<svg width="70" height="20" viewBox="0 0 70 20" fill="none" xmlns="http://www.w3.org/2000/svg">
<path d="M2.8811 3V17.1759H1V3H2.8811ZM7.51206 7.41794V17.1759H5.64057V7.41794H7.51206ZM7.86718 4.40222C7.86718 4.57508 7.83203 4.74157 7.76162 4.90164C7.69121 5.05531 7.59522 5.19298 7.47369 5.31462C7.35852 5.42986 7.22091 5.5227 7.06098 5.59314C6.90104 5.65719 6.73468 5.68919 6.56192 5.68919C6.38916 5.68919 6.22601 5.65719 6.07243 5.59314C5.91889 5.5227 5.78129 5.42986 5.65975 5.31462C5.54458 5.19298 5.45184 5.05531 5.38143 4.90164C5.31745 4.74157 5.28544 4.57508 5.28544 4.40222C5.28544 4.22293 5.31745 4.05647 5.38143 3.90279C5.45184 3.74272 5.54458 3.60505 5.65975 3.48981C5.78129 3.36815 5.91889 3.27531 6.07243 3.21129C6.22601 3.14085 6.38916 3.10563 6.56192 3.10563C6.73468 3.10563 6.90104 3.14085 7.06098 3.21129C7.22091 3.27531 7.35852 3.36815 7.47369 3.48981C7.59522 3.60505 7.69121 3.74272 7.76162 3.90279C7.83203 4.05647 7.86718 4.22293 7.86718 4.40222ZM11.9781 8.77215C12.1892 8.54803 12.41 8.3432 12.6403 8.15749C12.8706 7.97177 13.1138 7.81495 13.3697 7.68689C13.6321 7.55243 13.9104 7.44998 14.2047 7.37954C14.5054 7.3027 14.8253 7.2643 15.1645 7.2643C15.7019 7.2643 16.1722 7.35396 16.5753 7.53322C16.9848 7.71247 17.3271 7.96541 17.6023 8.29194C17.8773 8.61211 18.0853 8.99945 18.2261 9.45407C18.3668 9.9087 18.4372 10.4113 18.4372 10.962V17.1759H16.5561V10.962C16.5561 10.2641 16.3962 9.72299 16.0762 9.3388C15.7563 8.94825 15.2668 8.75296 14.6078 8.75296C14.1279 8.75296 13.6768 8.8682 13.2546 9.09872C12.8386 9.32283 12.4516 9.63018 12.0933 10.0207V17.1759H10.2217V7.41794H11.3446C11.607 7.41794 11.7702 7.54282 11.8341 7.79252L11.9781 8.77215ZM29.0727 7.41794V17.1759H27.9498C27.6938 17.1759 27.5275 17.0511 27.4507 16.8013L27.3163 15.8217C27.1052 16.0458 26.8845 16.2507 26.6541 16.4364C26.4238 16.6221 26.1774 16.7821 25.9151 16.9166C25.6527 17.0447 25.3744 17.1439 25.0801 17.2143C24.7857 17.2912 24.469 17.3296 24.1299 17.3296C23.5925 17.3296 23.119 17.2399 22.7095 17.0607C22.3064 16.8814 21.9673 16.6317 21.6922 16.3115C21.417 15.985 21.2091 15.5944 21.0683 15.1398C20.9275 14.6852 20.8572 14.1826 20.8572 13.6319V7.41794H22.7383V13.6319C22.7383 14.3298 22.8982 14.8741 23.2182 15.2647C23.538 15.6488 24.0275 15.8409 24.6866 15.8409C25.1665 15.8409 25.6143 15.7289 26.0303 15.5048C26.4461 15.2743 26.8364 14.9606 27.2011 14.5635V7.41794H29.0727ZM37.4337 9.09872C37.3827 9.18191 37.3284 9.24278 37.2707 9.28118C37.2131 9.31322 37.1395 9.32923 37.0501 9.32923C36.9477 9.32923 36.8324 9.29404 36.7045 9.22356C36.5829 9.15312 36.4324 9.07628 36.2535 8.99305C36.0806 8.90985 35.8758 8.83302 35.6392 8.76257C35.4023 8.6921 35.121 8.65691 34.7946 8.65691C34.5259 8.65691 34.2794 8.6921 34.0554 8.76257C33.8381 8.82655 33.6525 8.91946 33.4988 9.0411C33.3454 9.15633 33.2271 9.29718 33.1439 9.46368C33.0608 9.62372 33.019 9.79661 33.019 9.98229C33.019 10.2256 33.0896 10.4273 33.2301 10.5874C33.3775 10.7474 33.5661 10.8851 33.7963 11.0004C34.0332 11.1156 34.2986 11.2213 34.5932 11.3173C34.8937 11.407 35.1976 11.503 35.5047 11.6054C35.8181 11.7079 36.1223 11.8263 36.4165 11.9608C36.7174 12.0889 36.9828 12.2521 37.2131 12.4506C37.45 12.6427 37.6388 12.8764 37.7793 13.1517C37.9264 13.427 38 13.7632 38 14.1602C38 14.6148 37.9172 15.0374 37.7505 15.4279C37.5908 15.8121 37.3509 16.145 37.0308 16.4268C36.7174 16.7085 36.3271 16.9294 35.8599 17.0895C35.3927 17.2495 34.8586 17.3296 34.2572 17.3296C33.5853 17.3296 32.9647 17.2176 32.3951 16.9934C31.8259 16.7693 31.3491 16.4844 30.9651 16.1387L31.4067 15.4183C31.4578 15.3287 31.5217 15.2614 31.5986 15.2166C31.6754 15.1654 31.7778 15.1398 31.9057 15.1398C32.0273 15.1398 32.1519 15.1846 32.2801 15.2743C32.408 15.3639 32.5614 15.4631 32.7407 15.572C32.9199 15.6744 33.1373 15.7705 33.3934 15.8601C33.6492 15.9433 33.9693 15.985 34.353 15.985C34.673 15.985 34.9514 15.9466 35.1879 15.8697C35.4249 15.7865 35.62 15.6776 35.7734 15.5432C35.9335 15.4024 36.0517 15.2422 36.1286 15.063C36.2055 14.8837 36.2439 14.6948 36.2439 14.4963C36.2439 14.2402 36.1704 14.0289 36.0229 13.8624C35.8824 13.6895 35.6936 13.5423 35.4567 13.4206C35.2264 13.299 34.961 13.1934 34.6601 13.1037C34.3596 13.014 34.0525 12.918 33.739 12.8156C33.4252 12.7131 33.1181 12.5947 32.8176 12.4602C32.5167 12.3257 32.248 12.1561 32.0114 11.9512C31.7808 11.7463 31.5923 11.4966 31.4452 11.202C31.3043 10.9075 31.2338 10.5489 31.2338 10.1264C31.2338 9.74856 31.3106 9.38685 31.4644 9.0411C31.6241 8.69535 31.8514 8.39121 32.1456 8.12866C32.4465 7.86614 32.8142 7.65806 33.2493 7.50439C33.691 7.34435 34.1933 7.2643 34.7562 7.2643C35.4023 7.2643 35.9848 7.36672 36.503 7.57162C37.0275 7.77655 37.4755 8.05822 37.8466 8.41679L37.4337 9.09872Z" fill="#546175"/>
</svg>
