<svg width="100" height="50" viewBox="0 0 100 50" fill="none" xmlns="http://www.w3.org/2000/svg">
<path d="M37.7427 15.1757C36.907 16.005 36.9379 16.9879 37.8665 17.6944C38.9189 18.5237 40.4665 17.9708 40.8689 16.65C41.0856 15.8821 39.8784 14.4078 39.0118 14.4078C38.7332 14.4078 38.176 14.7456 37.7427 15.1757Z" fill="#7A8DA2"/>
<path d="M24 22.5168V29.7657H27.9619C32.5738 29.7657 33.9048 29.4586 34.9572 28.1992C36.5357 26.3563 36.1333 23.5304 34.1524 22.5168L33.2857 22.0561L34.0595 21.3803C35.6691 19.9981 35.5453 17.418 33.8119 16.1279C33.0381 15.5443 32.4191 15.4829 28.4571 15.3907L24 15.2986V22.5168ZM30.8405 18.4009C31.6452 18.8309 31.5833 20.0902 30.7476 20.6738C30.3762 20.9503 29.5405 21.1653 28.8905 21.1653H27.7143V19.6295V18.0937H28.9833C29.6643 18.0937 30.5 18.2473 30.8405 18.4009ZM31.4905 24.1447C32.2643 24.8205 32.2024 25.957 31.3667 26.5099C30.9643 26.7863 30.0357 27.0013 29.2 27.0013H27.7143V25.3119V23.6226H29.3238C30.3762 23.6226 31.1191 23.8069 31.4905 24.1447Z" fill="#7A8DA2"/>
<path d="M54.6429 22.5475V29.7657H56.5001H58.3263L58.4191 28.0149C58.481 27.0627 58.6668 26.2334 58.8834 26.172C59.0691 26.1106 59.7501 26.8785 60.3691 27.8921L61.5453 29.7657H63.6501C64.8263 29.7657 65.7858 29.7043 65.7858 29.6122C65.7858 29.52 64.8882 28.1071 63.8049 26.4791L61.793 23.5304L63.6501 21.3189C64.6406 20.121 65.4763 19.0152 65.4763 18.923C65.4763 18.8002 64.5787 18.708 63.4953 18.708H61.5144L60.1525 20.551C59.4406 21.5646 58.7287 22.3939 58.6049 22.3939C58.4501 22.3939 58.3572 20.7967 58.3572 18.8616V15.3293H56.5001H54.6429V22.5475Z" fill="#7A8DA2"/>
<path d="M37.3096 24.2368V29.7964L39.1048 29.7042L40.8691 29.6121V24.2368V18.8615L39.1048 18.7694L37.3096 18.6772V24.2368Z" fill="#7A8DA2"/>
<path d="M42.3858 19.1073C42.3239 19.3223 42.293 21.7795 42.3239 24.544L42.4168 29.6121L44.1501 29.7042L45.9144 29.7964L46.0072 26.2948C46.1001 23.9297 46.2549 22.6396 46.5644 22.3017C47.0596 21.6874 48.5453 21.626 49.0096 22.1789C49.1953 22.3939 49.412 24.1447 49.443 26.1105L49.5358 29.6121L51.3311 29.7042L53.0954 29.7964V25.2812V20.7966L52.043 19.7523C51.1144 18.8308 50.8049 18.708 49.443 18.708C48.2049 18.708 47.6787 18.8923 46.9358 19.5066L45.9763 20.3052V19.5066C45.9763 18.7387 45.9144 18.708 44.2739 18.708C43.1596 18.708 42.5096 18.8615 42.3858 19.1073Z" fill="#7A8DA2"/>
<path d="M67.7357 19.3223C66.5286 20.0594 66.0952 20.7966 66.0952 22.2403C66.0952 23.9296 67.2714 24.9433 70.0571 25.5883C71.8524 26.049 72.2857 26.264 72.2857 26.7248C72.2857 27.5848 69.9643 27.5541 69.5 26.6941C69.2214 26.2026 68.85 26.0798 67.4881 26.0798C65.6 26.0798 65.4143 26.3255 66.25 27.9227C67.519 30.38 72.9048 30.7486 75.1333 28.537C75.8143 27.8306 76 27.4005 76 26.3255C76 24.5132 75.1643 23.7761 72.4095 23.1003C69.8714 22.5167 69.3452 22.1788 69.8405 21.5952C70.4595 20.8581 72.2857 21.1652 72.2857 21.9638C72.2857 22.271 72.75 22.3938 73.9881 22.3938C75.5667 22.3938 75.6905 22.3324 75.6905 21.6874C75.6905 20.7045 74.8548 19.6294 73.6476 19.138C72.1 18.4929 68.9429 18.5851 67.7357 19.3223Z" fill="#7A8DA2"/>
</svg>
