<svg xmlns="http://www.w3.org/2000/svg" viewBox="0 0 200.73 42.4"><path d="M13.31 10.05c-3.61 0-5.93 1.32-7.4 3.19l-.12-2.72H0V42.4h6V30.66c1.5 1.71 4 2.83 7.31 2.83 6.38 0 10.9-4.83 10.9-11.62s-4.52-11.82-10.9-11.82ZM6 21.84a6.11 6.11 0 1 1 12.21 0 6 6 0 0 1-6.1 6.26A6 6 0 0 1 6 21.84Zm32.32 11.65a8.85 8.85 0 0 0 7.34-3.19l.11 2.7h5.89V10.52h-5.89l-.11 2.72a8.93 8.93 0 0 0-7.34-3.19c-6.19 0-10.85 4.86-10.85 11.68s4.66 11.76 10.85 11.76Zm7.31-11.76a6.12 6.12 0 0 1-6.14 6.42c-3.61 0-6-2.81-6-6.42a6 6 0 0 1 6-6.31 6 6 0 0 1 6.14 6.31Zm19.95-2.44c-2.7-.49-3.68-1.06-3.68-2.16 0-1.33 1.43-2 4.38-2a20.47 20.47 0 0 1 6.8 1.27l.51-4.9A19.68 19.68 0 0 0 66 10.05c-6 0-9.87 2.89-9.87 7.08 0 3.73 2.11 5.93 6.44 6.68l2.7.52c2.63.47 3.59 1.05 3.59 2.25s-1.25 1.94-4.18 1.94A21.53 21.53 0 0 1 57.09 27l-.63 4.93a21.18 21.18 0 0 0 8.67 1.61c5.77 0 9.52-2.51 9.52-7 0-3.89-2.23-5.91-6.68-6.73Zm21.61 0c-2.7-.49-3.68-1.06-3.68-2.16 0-1.33 1.43-2 4.38-2a20.47 20.47 0 0 1 6.8 1.27l.51-4.9a19.68 19.68 0 0 0-7.61-1.41c-6 0-9.87 2.89-9.87 7.08 0 3.73 2.11 5.93 6.44 6.68l2.7.52c2.62.47 3.58 1.05 3.58 2.25s-1.24 1.94-4.17 1.94A21.53 21.53 0 0 1 78.7 27l-.63 4.93a21.18 21.18 0 0 0 8.67 1.61c5.77 0 9.52-2.51 9.52-7 0-3.89-2.23-5.91-6.68-6.73Zm26.67 14.2c6.37 0 10.9-4.94 10.9-11.74s-4.53-11.7-10.9-11.7c-3.61 0-5.93 1.32-7.41 3.19V0h-5.9v33h5.88l.12-2.39c1.45 1.73 4 2.88 7.31 2.88Zm-7.34-11.76a6 6 0 0 1 6.12-6.28 6 6 0 0 1 6.09 6.28 6.11 6.11 0 1 1-12.21 0Zm32.35 11.76a8.81 8.81 0 0 0 7.33-3.19l.12 2.72h5.88v-22.5h-5.88l-.12 2.72a8.9 8.9 0 0 0-7.33-3.19c-6.19 0-10.85 4.86-10.85 11.68s4.66 11.76 10.85 11.76Zm7.31-11.76a6.13 6.13 0 0 1-6.18 6.42c-3.61 0-6-2.81-6-6.42a6 6 0 0 1 6-6.31 6 6 0 0 1 6.18 6.31Zm19.94-2.44c-2.69-.49-3.67-1.06-3.67-2.16 0-1.33 1.43-2 4.38-2a20.46 20.46 0 0 1 6.79 1.27l.52-4.9a19.73 19.73 0 0 0-7.62-1.41c-6 0-9.86 2.89-9.86 7.08 0 3.73 2.11 5.93 6.44 6.68l2.7.52c2.62.47 3.58 1.05 3.58 2.25s-1.24 1.94-4.17 1.94a21.49 21.49 0 0 1-7.57-1.56l-.64 4.88a21.15 21.15 0 0 0 8.67 1.61c5.77 0 9.52-2.51 9.52-7 0-3.89-2.23-5.91-6.68-6.73ZM199 26.51a17.92 17.92 0 0 1-7.62 1.71c-3.7 0-6.51-1.5-7.12-4.64h16.26c1.48-8.32-3.77-13.53-10.68-13.53-6.68 0-11.56 4.83-11.56 11.72s5.11 11.72 13.08 11.72a17.53 17.53 0 0 0 8.48-2.11Zm-14.65-7c.26-2.56 2.42-4.43 5.63-4.43s5 1.92 5.15 4.43Z" style="fill:#202f44"/></svg>