<svg width="100" height="50" viewBox="0 0 100 50" fill="none" xmlns="http://www.w3.org/2000/svg">
<path d="M27.0876 28.0716C26.6628 28.8939 26.0599 29.5379 25.2788 30.0175C24.484 30.4835 23.5521 30.7301 22.4558 30.7301C21.6747 30.7301 20.9622 30.6068 20.3181 30.3464C19.674 30.086 19.1122 29.7297 18.6463 29.2638C18.1804 28.7979 17.8241 28.2361 17.55 27.592C17.2896 26.948 17.1526 26.2354 17.1526 25.468C17.1526 24.7143 17.2896 24.0154 17.55 23.3713C17.8104 22.7273 18.1804 22.1791 18.6463 21.6995C19.1122 21.2336 19.6603 20.8636 20.277 20.6032C20.8936 20.3428 21.5925 20.2058 22.3325 20.2058C23.0863 20.2058 23.7713 20.3428 24.4017 20.6032C25.0322 20.8636 25.5665 21.2336 26.0051 21.6995C26.4436 22.1654 26.7999 22.7273 27.0465 23.385C27.2932 24.0427 27.4165 24.7554 27.4165 25.5364C27.4165 25.7146 27.4165 25.8653 27.4028 25.975C27.3891 26.0983 27.3891 26.1942 27.3754 26.2628H20.0577C20.0851 26.5643 20.1674 26.8246 20.3044 27.0713C20.4414 27.3179 20.6196 27.5235 20.8388 27.7017C21.0581 27.8798 21.3048 28.0305 21.5925 28.1265C21.8803 28.2224 22.1681 28.2772 22.4696 28.2772C23.0177 28.2772 23.4562 28.1675 23.7851 27.9483C24.114 27.7291 24.388 27.4413 24.6073 27.0576L27.0876 28.0716ZM24.5388 24.3443C24.4703 23.8098 24.2373 23.3576 23.8262 23.015C23.4288 22.6724 22.9218 22.4943 22.3051 22.4943C22.0036 22.4943 21.7296 22.5491 21.4829 22.645C21.2225 22.741 21.0033 22.878 20.7977 23.0561C20.5922 23.2343 20.4277 23.4261 20.3044 23.6454C20.1811 23.8647 20.0988 24.0839 20.0714 24.3306H24.5388V24.3443Z" fill="#7A8DA2"/>
<path d="M31.8566 16.3V30.4421H28.9104V16.3H31.8566Z" fill="#7A8DA2"/>
<path d="M43.3814 28.0716C42.9566 28.8939 42.3537 29.5379 41.5726 30.0175C40.7778 30.4835 39.8459 30.7301 38.7496 30.7301C37.9685 30.7301 37.2559 30.6068 36.6119 30.3464C35.9678 30.086 35.406 29.7297 34.9401 29.2638C34.4741 28.7979 34.1179 28.2361 33.8437 27.592C33.5834 26.948 33.4464 26.2354 33.4464 25.468C33.4464 24.7143 33.5834 24.0154 33.8437 23.3713C34.1041 22.7273 34.4741 22.1791 34.9401 21.6995C35.406 21.2336 35.9541 20.8636 36.5707 20.6032C37.1874 20.3428 37.8863 20.2058 38.6263 20.2058C39.38 20.2058 40.0651 20.3428 40.6955 20.6032C41.3259 20.8636 41.8603 21.2336 42.2989 21.6995C42.7373 22.1654 43.0936 22.7273 43.3403 23.385C43.587 24.0427 43.7103 24.7554 43.7103 25.5364C43.7103 25.7146 43.7103 25.8653 43.6965 25.975C43.6829 26.0983 43.6829 26.1942 43.6692 26.2628H36.3378C36.3653 26.5643 36.4474 26.8246 36.5845 27.0713C36.7216 27.3179 36.8996 27.5235 37.1189 27.7017C37.3382 27.8798 37.5848 28.0305 37.8726 28.1265C38.1467 28.2224 38.4481 28.2772 38.7496 28.2772C39.2978 28.2772 39.7363 28.1675 40.0651 27.9483C40.394 27.7291 40.6681 27.4413 40.8874 27.0576L43.3814 28.0716ZM40.8326 24.3443C40.7641 23.8098 40.5311 23.3576 40.12 23.015C39.7226 22.6724 39.2156 22.4943 38.5989 22.4943C38.2974 22.4943 38.0233 22.5491 37.7767 22.645C37.5163 22.741 37.2971 22.878 37.0915 23.0561C36.886 23.2343 36.7216 23.4261 36.5981 23.6454C36.4748 23.8647 36.3927 24.0839 36.3653 24.3306H40.8326V24.3443Z" fill="#7A8DA2"/>
<path d="M45.4646 25.5628C45.4646 24.8502 45.588 24.1787 45.8346 23.5484C46.0813 22.918 46.4376 22.3699 46.8898 21.9176C47.3421 21.4517 47.8902 21.0954 48.5205 20.8214C49.1509 20.561 49.8361 20.424 50.5897 20.424C51.6176 20.424 52.5494 20.7117 53.3853 21.2736V23.0276C52.522 22.3698 51.6176 22.041 50.672 22.041C50.1786 22.041 49.7127 22.1369 49.288 22.315C48.8632 22.4932 48.4931 22.7398 48.1916 23.0687C47.8902 23.3839 47.6435 23.7539 47.479 24.1787C47.3009 24.6035 47.2187 25.0694 47.2187 25.5628C47.2187 26.0424 47.3009 26.5084 47.479 26.9331C47.6572 27.3579 47.8902 27.7417 48.1916 28.0568C48.4931 28.372 48.8632 28.6187 49.288 28.8105C49.7127 28.9886 50.1786 29.0846 50.672 29.0846C51.179 29.0846 51.6723 28.9886 52.1519 28.7968C52.6179 28.605 53.0564 28.372 53.44 28.1254V29.8794C53.0153 30.1534 52.5631 30.359 52.0834 30.4961C51.6176 30.633 51.1242 30.7153 50.6035 30.7153C49.8361 30.7153 49.1372 30.5782 48.5069 30.3179C47.8765 30.0575 47.3283 29.6876 46.8761 29.2216C46.4239 28.7557 46.0676 28.2213 45.8209 27.5909C45.588 26.9606 45.4646 26.289 45.4646 25.5628Z" fill="#7A8DA2"/>
<path d="M57.2495 16.3279V30.4699H55.5092V16.3279H57.2495Z" fill="#7A8DA2"/>
<path d="M62.1141 17.7388C62.1141 18.0677 62.0046 18.3417 61.7716 18.561C61.5386 18.7802 61.2645 18.9036 60.9493 18.9036C60.6204 18.9036 60.3464 18.794 60.1272 18.561C59.8942 18.328 59.7845 18.054 59.7845 17.7388C59.7845 17.4099 59.8942 17.1358 60.1272 16.9166C60.3601 16.6836 60.6342 16.574 60.9493 16.574C61.2782 16.574 61.5524 16.6836 61.7716 16.9166C61.9908 17.1495 62.1141 17.4099 62.1141 17.7388ZM61.8127 20.6439V30.4694H60.0723V20.6439H61.8127Z" fill="#7A8DA2"/>
<path d="M66.3756 30.4686H64.6353V20.6432H66.3756V22.0547C66.6907 21.575 67.1019 21.1776 67.6226 20.8762C68.1434 20.5747 68.7737 20.424 69.5136 20.424C70.7744 20.424 71.7611 20.8077 72.4462 21.5888C73.1314 22.3699 73.474 23.4113 73.474 24.7132V30.4686H71.7337V24.9187C71.7337 24.028 71.5144 23.3291 71.0759 22.8221C70.6374 22.315 69.9934 22.0547 69.1437 22.0547C68.2941 22.0547 67.6226 22.3561 67.1155 22.9454C66.6223 23.5347 66.3619 24.3431 66.3619 25.3572V30.4686H66.3756Z" fill="#7A8DA2"/>
<path d="M78.2016 17.7388C78.2016 18.0677 78.0921 18.3417 77.8591 18.561C77.6261 18.7802 77.352 18.9036 77.0369 18.9036C76.7217 18.9036 76.4339 18.794 76.2147 18.561C75.9817 18.328 75.8721 18.054 75.8721 17.7388C75.8721 17.4099 75.9817 17.1358 76.2147 16.9166C76.4476 16.6836 76.7217 16.574 77.0369 16.574C77.352 16.574 77.6399 16.6836 77.8591 16.9166C78.0783 17.1495 78.2016 17.4099 78.2016 17.7388ZM77.9002 20.6439V30.4694H76.1598V20.6439H77.9002Z" fill="#7A8DA2"/>
<path d="M80.0244 25.5628C80.0244 24.8502 80.1477 24.1787 80.3945 23.5484C80.6411 22.918 80.9974 22.3699 81.4496 21.9176C81.9018 21.4517 82.4499 21.0954 83.0803 20.8214C83.7106 20.561 84.3958 20.424 85.1495 20.424C86.1773 20.424 87.1092 20.7117 87.9451 21.2736V23.0276C87.0817 22.3698 86.1772 22.041 85.2318 22.041C84.7385 22.041 84.2725 22.1369 83.8477 22.315C83.4229 22.4932 83.0529 22.7398 82.7514 23.0687C82.4499 23.3839 82.2033 23.7539 82.0388 24.1787C81.8744 24.6035 81.7785 25.0557 81.7785 25.5628C81.7785 26.0424 81.8608 26.5084 82.0388 26.9331C82.217 27.3579 82.4499 27.7417 82.7514 28.0568C83.0529 28.372 83.4229 28.6187 83.8477 28.8105C84.2725 28.9886 84.7385 29.0846 85.2318 29.0846C85.7388 29.0846 86.2321 28.9886 86.7117 28.7968C87.1777 28.605 87.6162 28.372 87.9998 28.1254V29.8794C87.575 30.1534 87.1228 30.359 86.6432 30.4961C86.1773 30.633 85.684 30.7153 85.1633 30.7153C84.3958 30.7153 83.697 30.5782 83.0666 30.3179C82.4363 30.0575 81.8881 29.6876 81.4359 29.2216C80.9837 28.7557 80.6273 28.2213 80.3807 27.5909C80.1477 26.9606 80.0244 26.289 80.0244 25.5628Z" fill="#7A8DA2"/>
<path d="M16.454 22.8914V20.4659H13.9326V16.3H11V19.6711V20.4522V22.8777V25.4266V27.1806C11 28.3043 11.3015 29.1676 11.9044 29.7843C12.5074 30.4009 13.3433 30.7025 14.3848 30.7025C14.8507 30.7025 15.2618 30.6613 15.5907 30.5791C15.9333 30.4969 16.2073 30.4009 16.4403 30.2914V27.7425C16.2759 27.8521 16.0977 27.9343 15.9196 27.9754C15.7277 28.0166 15.5359 28.044 15.3577 28.044C14.8781 28.044 14.5081 27.9343 14.2751 27.7013C14.0422 27.4685 13.9189 27.0847 13.9189 26.5503V22.8914H16.454Z" fill="#7A8DA2"/>
</svg>
