<svg width="100" height="50" viewBox="0 0 100 50" fill="none" xmlns="http://www.w3.org/2000/svg">
<path d="M10 17.3002C10 17.1343 10.1459 17 10.3071 17H10.7102L17.4474 24.3667H17.4628V17.4819C17.4628 17.316 17.5933 17.1659 17.7699 17.1659H19.2594C19.4206 17.1659 19.5665 17.316 19.5665 17.4819V28.6998C19.5665 28.8657 19.4206 29 19.2594 29H18.8717L12.1075 21.3489H12.0884V28.5142C12.0884 28.6801 11.9578 28.8302 11.7812 28.8302H10.3071C10.1459 28.8302 10 28.6801 10 28.5142V17.3002Z" fill="#7A8DA2"/>
<path d="M27.801 17C31.041 17 33.6323 19.682 33.6323 23.0158C33.6323 26.3496 31.041 29 27.801 29C24.561 29 21.9851 26.3496 21.9851 23.0158C21.9851 19.682 24.561 17 27.801 17ZM27.801 26.8315C29.8433 26.8315 31.5286 25.1132 31.5286 23.0158C31.5286 20.9144 29.8433 19.1646 27.801 19.1646C25.7587 19.1646 24.0927 20.9144 24.0927 23.0158C24.0927 25.1172 25.7587 26.8315 27.801 26.8315Z" fill="#7A8DA2"/>
<path d="M41.2751 17C44.5152 17 47.1064 19.682 47.1064 23.0158C47.1064 26.3496 44.5152 29 41.2751 29C38.0351 29 35.4592 26.3496 35.4592 23.0158C35.4592 19.682 38.0351 17 41.2751 17ZM41.2751 26.8315C43.3174 26.8315 45.0027 25.1132 45.0027 23.0158C45.0027 20.9144 43.3174 19.1646 41.2751 19.1646C39.2329 19.1646 37.5668 20.9144 37.5668 23.0158C37.5668 25.1172 39.2329 26.8315 41.2751 26.8315Z" fill="#7A8DA2"/>
<path d="M49.4368 17.5647C49.4368 17.3475 49.598 17.1658 49.8245 17.1658H51.2487C51.4599 17.1658 51.6364 17.3475 51.6364 17.5647V22.0637L55.721 17.3317C55.7863 17.2487 55.8822 17.1658 56.0281 17.1658H57.6481C57.9552 17.1658 58.1165 17.5173 57.9092 17.7662L53.6826 22.6681L58.2201 28.2533C58.3814 28.4706 58.2508 28.8379 57.9284 28.8379H56.1625C56.0013 28.8379 55.9014 28.7708 55.8707 28.7194L51.6441 23.3514V28.435C51.6441 28.6523 51.4675 28.834 51.2564 28.834H49.8322C49.6057 28.834 49.4444 28.6523 49.4444 28.435V17.5647H49.4368Z" fill="#7A8DA2"/>
<path d="M61.1111 17.4818C61.1111 17.3159 61.2416 17.1658 61.4182 17.1658H62.9077C63.0689 17.1658 63.2148 17.3159 63.2148 17.4818V26.8313H67.3454C67.522 26.8313 67.6525 26.9814 67.6525 27.1473V28.514C67.6525 28.6799 67.522 28.83 67.3454 28.83H61.4182C61.2416 28.83 61.1111 28.6799 61.1111 28.514V17.4818Z" fill="#7A8DA2"/>
<path d="M71.3992 23.2172L67.7062 17.6517C67.5757 17.4344 67.7062 17.1698 67.9673 17.1698H69.618C69.7485 17.1698 69.8291 17.2527 69.879 17.3199L72.4703 21.1553L75.0615 17.3199C75.1114 17.2527 75.1921 17.1698 75.3226 17.1698H76.9925C77.2535 17.1698 77.3802 17.4384 77.2536 17.6517L73.5106 23.2014V28.5181C73.5106 28.684 73.3648 28.8341 73.2035 28.8341H71.714C71.5374 28.8341 71.4069 28.684 71.4069 28.5181V23.2172H71.3992Z" fill="#7A8DA2"/>
<path d="M79.6259 17.3002C79.6259 17.1343 79.7718 17 79.933 17H80.3361L87.0733 24.3667H87.0887V17.4819C87.0887 17.316 87.2192 17.1659 87.3958 17.1659H88.8853C89.0465 17.1659 89.1924 17.316 89.1924 17.4819V28.6998C89.1924 28.8657 89.0465 29 88.8853 29H88.4976L81.7258 21.3489H81.7104V28.5142C81.7104 28.6801 81.5799 28.8302 81.4033 28.8302H79.9292C79.7679 28.8302 79.6221 28.6801 79.6221 28.5142V17.3002H79.6259Z" fill="#7A8DA2"/>
</svg>
