<svg width="100" height="50" viewBox="0 0 100 50" fill="none" xmlns="http://www.w3.org/2000/svg">
<g clip-path="url(#clip0)">
<path fill-rule="evenodd" clip-rule="evenodd" d="M13.952 22.6681V28.5875H15.1898H16.4275V25.3319C16.4275 22.9171 16.4573 22.0761 16.5429 22.0761C16.6066 22.0761 16.6333 22.1015 16.6023 22.1322C16.5326 22.2017 17.077 22.7669 17.2138 22.7669C17.2686 22.7669 17.3782 22.8912 17.457 23.0434C17.6052 23.329 18.0587 23.857 19.002 24.8429C19.3015 25.1561 19.6328 25.5299 19.7381 25.6738C19.8436 25.818 20.2991 26.3163 20.7509 26.7817C21.2023 27.2469 21.598 27.7103 21.6303 27.8117C21.6624 27.9128 21.775 27.9956 21.8803 27.9956C21.9853 27.9956 22.0717 28.0602 22.0717 28.1395C22.0717 28.4547 22.5908 28.7847 23.0862 28.7847H23.5584L23.5329 22.8409L23.5074 16.8968L22.2449 16.8692L20.9824 16.8417L20.9791 20.1743L20.9761 23.5068L20.6574 23.1262C20.4822 22.9169 20.0375 22.4286 19.6691 22.0409C18.5852 20.9 18.491 20.7936 18.5637 20.7936C18.6018 20.7936 18.463 20.659 18.2551 20.4945C18.0473 20.33 17.8092 20.0968 17.7262 19.9765C17.6428 19.8563 17.4615 19.6392 17.3229 19.4943C17.1843 19.3491 16.982 19.1144 16.873 18.9723C16.7641 18.8304 16.6172 18.6606 16.5465 18.5949C16.4758 18.529 16.3644 18.4178 16.299 18.3474C16.2334 18.2769 15.9753 18.0088 15.7251 17.7509C15.4751 17.4933 15.1913 17.1625 15.0949 17.0158C14.9439 16.7859 14.8522 16.7489 14.4356 16.7489H13.952V22.6681ZM67.7196 22.7174V28.5875H71.4329H75.1462V27.4547C75.1462 26.0756 75.4211 26.1991 72.4442 26.2391L70.1949 26.269V21.5584L70.1952 16.8475H68.9574H67.7196V22.7174ZM36.2561 17.6035C36.1683 17.6387 36.1324 17.9512 36.1324 18.681V19.7086H35.4888H34.8452V20.8925V22.0761H35.4888H36.1324V24.296C36.1324 25.7101 36.1683 26.5156 36.2314 26.5156C36.2859 26.5156 36.3304 26.6489 36.3304 26.8117C36.3304 26.9744 36.375 27.1075 36.4293 27.1075C36.4839 27.1075 36.5283 27.1649 36.5283 27.2351C36.5283 27.3646 36.9823 27.8723 37.4414 28.2564C37.9052 28.6446 40.3345 28.9784 40.6208 28.6932C40.6792 28.6351 40.8294 28.5875 40.9546 28.5875C41.1784 28.5875 41.1824 28.5689 41.1824 27.5022V26.417H40.331C39.4962 26.417 38.7379 26.2119 38.8579 26.0185C38.8854 25.974 38.8629 25.9096 38.8074 25.8753C38.745 25.8371 38.7069 25.1043 38.7069 23.9448V22.0761H39.8982H41.0897L41.0617 20.9172L41.0339 19.7579L39.8704 19.73L38.7069 19.7023V18.681C38.7069 17.7054 38.697 17.6571 38.4842 17.6002C38.2191 17.5295 36.4336 17.532 36.2561 17.6035ZM7.66428 19.605C7.5552 19.6543 7.32139 19.6978 7.14439 19.7016C6.96738 19.7053 6.82245 19.7529 6.82245 19.8072C6.82245 19.8616 6.73609 19.9058 6.6303 19.9058C6.52475 19.9058 6.41365 19.9453 6.38386 19.9936C6.35381 20.0417 6.21367 20.1101 6.07227 20.1456C5.84729 20.2019 5.61499 20.3728 5.20241 20.7861C4.6916 21.2975 4.45804 21.5883 4.39441 21.7904C4.35376 21.9204 4.2929 22.0492 4.25932 22.0761C4.10454 22.2017 3.95986 22.5768 4.01313 22.7149C4.04571 22.7991 4.01743 22.9337 3.95051 23.014C3.78311 23.215 3.85431 25.8424 4.02854 25.9002C4.09494 25.9221 4.14898 26.0253 4.14898 26.1294C4.14898 26.2333 4.18862 26.3184 4.23735 26.3184C4.28583 26.3184 4.35174 26.422 4.38355 26.5483C4.46334 26.8655 5.57081 27.987 5.84553 28.0288C5.96875 28.0476 6.08666 28.1143 6.10762 28.1772C6.12883 28.2401 6.20913 28.2914 6.28614 28.2914C6.3634 28.2914 6.42653 28.3319 6.42653 28.3815C6.42653 28.431 6.6159 28.5025 6.84719 28.5407C7.07874 28.5787 7.32114 28.6522 7.38578 28.7042C7.63424 28.904 10.1825 28.6373 10.3872 28.3903C10.4145 28.3573 10.6122 28.2492 10.8266 28.1495C11.0412 28.0502 11.3058 27.8859 11.4147 27.7848C11.5237 27.6836 11.649 27.6009 11.6932 27.6009C11.9146 27.6009 11.6818 26.8333 11.3495 26.4683C11.2518 26.3609 11.1463 26.1719 11.1152 26.0482C11.0528 25.8011 10.5738 25.613 10.5079 25.8094C10.487 25.8723 10.4067 25.9239 10.3294 25.9239C10.2524 25.9239 10.1893 25.9576 10.1893 25.9991C10.1893 26.3282 8.0496 26.577 7.38502 26.3251C7.07293 26.2069 6.52652 25.6273 6.52601 25.414C6.52576 25.3236 6.46971 25.2273 6.40178 25.1999C6.33361 25.1725 7.58121 25.1465 9.17423 25.1423C12.002 25.1347 12.0707 25.1299 12.0707 24.9372C12.0707 24.8288 12.1151 24.74 12.1696 24.74C12.2295 24.74 12.2686 24.3269 12.2686 23.6983C12.2686 23.0288 12.2333 22.6784 12.1696 22.7174C12.1106 22.7539 12.0707 22.6364 12.0707 22.4273C12.0707 22.2341 12.0366 22.0761 11.9949 22.0761C11.9532 22.0761 11.8421 21.8988 11.7477 21.6817C11.6533 21.4646 11.5369 21.287 11.4889 21.287C11.4407 21.287 11.346 21.1539 11.2783 20.9911C11.2106 20.8284 11.1182 20.695 11.0728 20.695C11.0276 20.695 10.8809 20.5858 10.7468 20.4525C10.613 20.3189 10.388 20.1811 10.2474 20.1458C10.1065 20.1106 9.99107 20.0422 9.99107 19.9939C9.99107 19.9453 9.90194 19.9058 9.79311 19.9058C9.68428 19.9058 9.59515 19.8671 9.59515 19.8198C9.59515 19.7723 9.38356 19.7081 9.12474 19.6772C8.86618 19.6462 8.47607 19.5969 8.25842 19.568C8.04051 19.5388 7.77311 19.5554 7.66428 19.605ZM29.2505 19.606C29.1417 19.6548 28.9071 19.6978 28.7293 19.7016C28.4082 19.7084 28.3488 19.729 27.7499 20.0397C27.5782 20.129 27.3871 20.2017 27.3254 20.2017C27.1126 20.2017 25.7352 21.5634 25.7352 21.774C25.7352 21.8316 25.6908 21.8789 25.6362 21.8789C25.5819 21.8789 25.5372 21.9677 25.5372 22.0761C25.5372 22.1848 25.5001 22.2736 25.4547 22.2736C25.31 22.2736 25.113 23.3815 25.113 24.1974C25.113 25.013 25.31 26.1211 25.4547 26.1211C25.5001 26.1211 25.5372 26.1878 25.5372 26.269C25.5372 26.3506 25.5819 26.417 25.6362 26.417C25.6908 26.417 25.7352 26.4859 25.7352 26.5697C25.7352 26.7669 27.0699 28.0942 27.2681 28.0942C27.351 28.0942 27.4186 28.1385 27.4186 28.1928C27.4186 28.2471 27.4855 28.2914 27.5671 28.2914C27.6489 28.2914 27.7156 28.3271 27.7156 28.3707C27.7156 28.6034 30.2706 28.906 30.5186 28.7027C30.5837 28.6494 30.8483 28.5744 31.1071 28.5362C31.3657 28.4977 31.5775 28.427 31.5775 28.379C31.5775 28.3309 31.6442 28.2914 31.726 28.2914C31.8076 28.2914 31.8745 28.2471 31.8745 28.1928C31.8745 28.1385 31.9366 28.0942 32.0126 28.0942C32.1502 28.0942 33.0628 27.2932 33.0628 27.1727C33.0628 27.1377 33.186 26.9868 33.3367 26.8371C33.642 26.5337 33.9538 25.9211 33.9538 25.6245C33.9538 25.5179 33.9985 25.4306 34.0531 25.4306C34.1137 25.4306 34.152 24.9556 34.152 24.2032C34.152 23.4912 34.1104 22.9501 34.0531 22.9149C33.9985 22.8812 33.9538 22.7712 33.9538 22.6703C33.9538 22.5048 33.6847 21.9036 33.5556 21.7803C33.5271 21.7531 33.4258 21.609 33.3304 21.4595C33.2352 21.3104 33.0923 21.1883 33.0128 21.1883C32.9335 21.1883 32.8408 21.0789 32.8072 20.9453C32.7736 20.8115 32.6691 20.6779 32.5752 20.6482C32.4812 20.6185 32.3161 20.5169 32.208 20.4226C31.9174 20.1692 31.3902 19.9058 31.1733 19.9058C31.0688 19.9058 30.9834 19.8671 30.9834 19.8198C30.9834 19.7723 30.7716 19.7066 30.513 19.6736C30.2542 19.6404 29.909 19.5919 29.7457 19.5655C29.5823 19.5391 29.3593 19.5572 29.2505 19.606ZM45.6383 19.61C45.5565 19.6626 45.3226 19.7061 45.1184 19.7071C44.9141 19.7079 44.7469 19.7529 44.7469 19.8072C44.7469 19.8616 44.6606 19.9058 44.5548 19.9058C44.4492 19.9058 44.3381 19.9453 44.3083 19.9936C44.2783 20.0417 44.1382 20.1101 43.9968 20.1456C43.8554 20.1808 43.6301 20.3189 43.4963 20.4525C43.3622 20.5858 43.1852 20.695 43.1029 20.695C43.0203 20.695 42.9804 20.7395 43.0143 20.7936C43.0479 20.848 43.0302 20.8925 42.9751 20.8925C42.8433 20.8925 42.3707 21.3652 42.3707 21.497C42.3707 21.5534 42.5153 21.7476 42.6923 21.9287C43.1373 22.3838 43.2617 22.5446 43.2617 22.6641C43.2617 22.7207 43.3299 22.7669 43.4135 22.7669C43.4968 22.7669 43.5907 22.8334 43.622 22.9149C43.7079 23.1375 43.8028 23.0998 44.2402 22.6681C44.4604 22.4512 44.7088 22.2736 44.7926 22.2736C44.8765 22.2736 44.9452 22.2291 44.9452 22.175C44.9452 22.1207 45.0343 22.0761 45.1431 22.0761C45.2519 22.0761 45.3411 22.0319 45.3411 21.9775C45.3411 21.9227 45.6052 21.8789 45.9352 21.8789C46.2655 21.8789 46.5293 21.9227 46.5293 21.9775C46.5293 22.0319 46.5735 22.0761 46.6273 22.0761C46.8013 22.0761 47.1235 22.411 47.1235 22.5914C47.1235 22.688 47.1682 22.7669 47.2224 22.7669C47.277 22.7669 47.3217 22.9222 47.3217 23.1121V23.4575L46.5046 23.458C45.0828 23.459 44.0538 23.5692 44.0538 23.7206C44.0538 23.8155 43.9803 23.8374 43.8064 23.7939C43.6539 23.7559 43.5589 23.774 43.5589 23.8414C43.5589 23.9015 43.495 23.9506 43.4173 23.9506C43.1585 23.9506 42.4015 24.7694 42.3229 25.1347C42.282 25.3244 42.205 25.534 42.1512 25.6004C41.9747 25.819 42.2389 27.4092 42.4643 27.4841C42.5217 27.503 42.5691 27.5704 42.5696 27.6338C42.5701 27.6972 42.7115 27.86 42.884 27.9956C43.0565 28.1312 43.2501 28.2944 43.3145 28.3583C43.3786 28.4222 43.5943 28.505 43.7932 28.5422C43.9922 28.5795 44.1796 28.6491 44.2094 28.6972C44.2801 28.8114 45.9069 28.8114 45.9776 28.6974C46.0074 28.6494 46.2339 28.58 46.4806 28.5432C46.7273 28.5063 46.9035 28.4346 46.872 28.3837C46.8407 28.3329 46.8788 28.2914 46.9571 28.2914C47.0353 28.2914 47.1548 28.225 47.2224 28.1435C47.4128 27.9151 47.4896 27.9669 47.4416 28.2914L47.3982 28.5875H48.5976H49.7969V25.5923C49.7969 22.5848 49.7454 21.6409 49.5858 21.739C49.5386 21.7682 49.5 21.7177 49.5 21.6266C49.5 21.4472 48.9367 20.6434 48.6332 20.3901C47.9663 19.8331 46.062 19.337 45.6383 19.61ZM79.998 19.6067C79.8619 19.6518 79.5834 19.6933 79.3791 19.6988C79.1751 19.7041 79.0079 19.7529 79.0079 19.8072C79.0079 19.8616 78.8966 19.9058 78.7602 19.9058C78.6241 19.9058 78.5128 19.9501 78.5128 20.0045C78.5128 20.0588 78.4458 20.1031 78.3643 20.1031C78.2825 20.1031 78.2156 20.1511 78.2156 20.21C78.2156 20.2689 78.1603 20.2985 78.0928 20.2762C77.955 20.2304 77.7207 20.4276 77.7207 20.5894C77.7207 20.6475 77.6537 20.695 77.5719 20.695C77.2505 20.695 76.2903 21.8472 76.3918 22.1109C76.4301 22.2102 76.393 22.295 76.295 22.3325C76.2077 22.3659 76.1362 22.4774 76.1362 22.58C76.1362 22.6827 76.0918 22.7669 76.0372 22.7669C75.9827 22.7669 75.9383 22.9913 75.9383 23.2658C75.9383 23.5735 75.9001 23.7415 75.8393 23.704C75.6699 23.5996 75.7219 24.5385 75.8951 24.7111C76.009 24.8245 76.033 24.9664 75.9855 25.2467C75.9433 25.495 75.9585 25.6278 76.0287 25.6278C76.0877 25.6278 76.1362 25.7387 76.1362 25.8743C76.1362 26.0102 76.1789 26.1211 76.2309 26.1211C76.2827 26.1211 76.3544 26.2748 76.3897 26.463C76.4296 26.6748 76.5256 26.8275 76.6417 26.8643C76.745 26.897 76.8293 26.9634 76.8293 27.0119C76.8293 27.1772 77.6709 27.9455 78.0679 28.1425C78.2853 28.2507 78.4855 28.3671 78.5128 28.4013C78.8357 28.8094 82.2755 28.787 82.2755 28.3772C82.2755 28.3299 82.3646 28.2914 82.4735 28.2914C82.5826 28.2914 82.6717 28.2479 82.6717 28.1948C82.6717 28.1415 82.78 28.0708 82.9126 28.0376C83.078 27.9963 83.135 27.9297 83.0949 27.825C83.056 27.7241 83.0822 27.6879 83.1731 27.7181C83.3022 27.7611 84.2559 26.8685 84.2559 26.7048C84.2559 26.6628 84.3117 26.5682 84.3796 26.4942C84.7152 26.1307 84.9727 25.1169 84.9757 24.1481C84.9775 23.6147 84.7568 22.4253 84.6493 22.3886C84.5962 22.3705 84.5531 22.2948 84.5531 22.2203C84.5531 22.0359 84.1382 21.4409 83.7718 21.0998C83.6062 20.9458 83.4989 20.7916 83.5332 20.7574C83.5676 20.7232 83.5322 20.695 83.4544 20.695C83.3767 20.695 83.1951 20.5858 83.0507 20.4525C82.9063 20.3192 82.6727 20.1811 82.5318 20.1458C82.3909 20.1106 82.2755 20.0422 82.2755 19.9939C82.2755 19.9453 82.1642 19.9058 82.0281 19.9058C81.8917 19.9058 81.7804 19.8676 81.7804 19.8211C81.7804 19.7743 81.5465 19.7079 81.2605 19.6734C80.9746 19.6389 80.6292 19.5914 80.4931 19.5677C80.357 19.5438 80.1343 19.5614 79.998 19.6067ZM89.7515 19.61C89.6424 19.6565 89.3864 19.6978 89.1821 19.7016C88.9779 19.7053 88.8107 19.7529 88.8107 19.8072C88.8107 19.8616 88.6994 19.9058 88.5633 19.9058C88.4272 19.9058 88.3156 19.9453 88.3156 19.9939C88.3156 20.0422 88.1976 20.1114 88.0532 20.1474C87.9088 20.1836 87.705 20.3214 87.6005 20.454C87.4957 20.5866 87.3538 20.695 87.2846 20.695C87.2157 20.695 87.1043 20.8153 87.0371 20.9622C86.97 21.1091 86.8291 21.289 86.7241 21.3624C86.5986 21.45 86.5334 21.6117 86.5334 21.8351C86.5334 22.0714 86.488 22.175 86.3847 22.175C86.2857 22.175 86.2362 22.2736 86.2362 22.4708C86.2362 22.6336 86.1918 22.7669 86.1372 22.7669C86.0766 22.7669 86.0383 23.2273 86.0383 23.9506C86.0383 24.6741 86.0766 25.1345 86.1372 25.1345C86.1918 25.1345 86.2362 25.2678 86.2362 25.4306C86.2362 25.5933 86.2754 25.7264 86.3228 25.7264C86.3706 25.7264 86.4365 25.8605 86.4693 26.0243C86.5311 26.3317 86.5539 26.3689 86.9761 26.8507C87.1139 27.0079 87.2265 27.1644 87.2265 27.1983C87.2265 27.2323 87.3823 27.3438 87.573 27.4461C87.7636 27.5483 87.9196 27.6693 87.9196 27.7151C87.9196 27.7609 87.9866 27.7983 88.0681 27.7983C88.1499 27.7983 88.2166 27.8421 88.2166 27.8957C88.2166 27.9493 88.3959 28.0217 88.615 28.0567C88.8339 28.0917 89.0372 28.1586 89.0665 28.2059C89.1357 28.3173 91.0602 28.3178 91.1294 28.2061C91.1587 28.1591 91.34 28.0952 91.5324 28.0642C91.8867 28.0069 92.1775 27.8014 92.1775 27.6079C92.1775 27.5498 92.2442 27.5022 92.326 27.5022C92.4333 27.5022 92.4745 27.6119 92.4745 27.897C92.4745 28.1138 92.4348 28.2914 92.3861 28.2914C92.3376 28.2914 92.2707 28.4001 92.2371 28.5327C92.145 28.899 91.6496 29.3958 91.4519 29.3203C91.3584 29.2846 91.2862 29.3045 91.2862 29.3661C91.2862 29.4373 90.9938 29.4753 90.4446 29.4753C89.9495 29.4753 89.6031 29.4348 89.6031 29.3767C89.6031 29.3223 89.5094 29.2781 89.395 29.2781C89.1246 29.2781 88.5064 28.9898 88.3098 28.7717C87.9489 28.3719 87.2265 28.5596 87.2265 29.0532C87.2265 29.1259 87.1652 29.2089 87.0904 29.2376C87.0157 29.2662 86.8718 29.4423 86.7708 29.629C86.67 29.8159 86.5529 29.9686 86.5107 29.9686C86.4688 29.9686 86.4344 30.0298 86.4344 30.1047C86.4344 30.2718 87.2005 30.9553 87.3879 30.9553C87.4626 30.9553 87.5235 30.9996 87.5235 31.0539C87.5235 31.108 87.5904 31.1525 87.6719 31.1525C87.7537 31.1525 87.8207 31.1968 87.8207 31.2511C87.8207 31.3055 87.8987 31.35 87.9939 31.3505C88.0891 31.3508 88.2949 31.4174 88.4509 31.4984C88.6067 31.5794 88.8433 31.6458 88.9764 31.6458C89.1097 31.6458 89.1948 31.6841 89.1657 31.7311C89.1364 31.7779 89.4374 31.8456 89.8341 31.8813C90.6418 31.9543 91.9793 31.8602 91.9793 31.7301C91.9793 31.6838 92.0596 31.6458 92.1576 31.6458C92.3861 31.6458 92.8689 31.424 92.8699 31.3185C92.8702 31.274 92.9653 31.2677 93.081 31.3045C93.2226 31.3492 93.2694 31.3352 93.2237 31.2617C93.1865 31.2016 93.205 31.1525 93.2651 31.1525C93.3759 31.1525 93.5764 31.0094 93.7913 30.7772C93.8567 30.7062 94.0329 30.516 94.1827 30.3545C94.3324 30.1928 94.4548 30.0134 94.4548 29.9558C94.4548 29.8982 94.5551 29.711 94.6778 29.54C94.9003 29.229 94.9005 29.2242 94.9306 24.4686L94.9606 19.7086H93.8165H92.6725L92.6692 20.177C92.6661 20.6341 92.6616 20.6409 92.4909 20.4485C92.2874 20.2193 91.7299 19.9058 91.5258 19.9058C91.4486 19.9058 91.3852 19.8563 91.3852 19.7957C91.3852 19.7348 91.2983 19.7081 91.1913 19.736C91.0845 19.764 90.8282 19.7267 90.6219 19.6533C90.1899 19.4998 90.0275 19.4918 89.7515 19.61ZM51.6783 24.1481V28.5875H52.956H54.2336L54.268 25.9566C54.2942 23.9644 54.3326 23.3159 54.4263 23.2847C54.4942 23.262 54.55 23.1823 54.55 23.1071C54.55 22.8449 55.231 22.2736 55.5436 22.2736C55.7052 22.2736 55.8372 22.2291 55.8372 22.175C55.8372 22.1202 56.1014 22.0761 56.4314 22.0761H57.0255V20.8925V19.7086H56.1839C55.6888 19.7086 55.3421 19.7491 55.3421 19.8072C55.3421 19.8616 55.2898 19.9058 55.2259 19.9058C54.9848 19.9058 54.353 20.258 54.2975 20.4238C54.1889 20.7473 54.0548 20.5974 54.0548 20.1524V19.7086H52.8666H51.6783V24.1481ZM57.2661 19.8183C57.2288 19.8784 57.2376 19.9562 57.2858 19.9909C57.3964 20.0701 57.7199 20.9823 57.7191 21.213C57.7189 21.3081 57.7631 21.3856 57.8176 21.3856C57.8721 21.3856 57.9166 21.4744 57.9166 21.5831C57.9166 21.6915 57.9613 21.7803 58.0156 21.7803C58.0701 21.7803 58.1148 21.8912 58.1148 22.0268C58.1148 22.1627 58.158 22.2736 58.2105 22.2736C58.2633 22.2736 58.2809 22.34 58.2496 22.4215C58.2181 22.5031 58.2418 22.5695 58.3021 22.5695C58.3625 22.5695 58.4117 22.6804 58.4117 22.8163C58.4117 22.9519 58.4564 23.0628 58.5107 23.0628C58.5653 23.0628 58.6097 23.1491 58.6097 23.2542C58.6097 23.3596 58.6567 23.4746 58.714 23.5098C58.7713 23.5453 58.8008 23.6256 58.7796 23.6884C58.7584 23.7513 58.8228 23.9483 58.923 24.1264C59.023 24.3043 59.1048 24.5151 59.1048 24.5949C59.1048 24.6746 59.1468 24.74 59.1978 24.74C59.249 24.74 59.321 24.9398 59.3576 25.1838C59.3945 25.428 59.4639 25.6278 59.5121 25.6278C59.5606 25.6278 59.6 25.6894 59.6 25.7644C59.6 25.8396 59.6667 26.0283 59.748 26.1838C59.8293 26.3392 59.8962 26.5455 59.8964 26.6421C59.8967 26.7387 59.9674 26.8449 60.0535 26.8776C60.1474 26.9136 60.1908 27.0109 60.1618 27.1214C60.1353 27.2222 60.154 27.305 60.2035 27.305C60.2527 27.305 60.2931 27.416 60.2931 27.5515C60.2931 27.6871 60.3378 27.7983 60.3921 27.7983C60.4466 27.7983 60.4911 27.8648 60.4911 27.9463C60.4911 28.0275 60.4466 28.0942 60.3921 28.0942C60.3378 28.0942 60.2931 28.1792 60.2931 28.2834C60.2931 28.3873 60.2598 28.4871 60.2189 28.5052C60.178 28.5234 60.0595 28.7045 59.9558 28.908C59.8406 29.1337 59.6957 29.2781 59.5843 29.2781C59.4841 29.2781 59.402 29.3223 59.402 29.3767C59.402 29.435 59.0389 29.4753 58.5107 29.4753H57.6196V30.5183C57.6196 31.8821 57.6017 31.8647 59.0278 31.8803C59.8288 31.8891 60.1393 31.8589 60.1694 31.7691C60.1921 31.7012 60.2701 31.6458 60.3429 31.6458C60.5587 31.6458 61.1117 31.318 61.3208 31.066C61.4278 30.9369 61.6192 30.7281 61.746 30.6018C61.8727 30.4755 61.9765 30.3259 61.9765 30.269C61.9765 30.2124 62.0237 30.1659 62.0813 30.1659C62.1389 30.1659 62.1586 30.1216 62.125 30.0672C62.0914 30.0129 62.1111 29.9686 62.1687 29.9686C62.2263 29.9686 62.2735 29.902 62.2735 29.8207C62.2735 29.7392 62.3182 29.6728 62.3724 29.6728C62.427 29.6728 62.4717 29.584 62.4717 29.4753C62.4717 29.3669 62.5103 29.2781 62.558 29.2781C62.6055 29.2781 62.6727 29.1005 62.7075 28.8834C62.7424 28.6665 62.8151 28.4889 62.8689 28.4889C62.9226 28.4889 62.9666 28.4001 62.9666 28.2914C62.9666 28.183 63.0055 28.0942 63.0529 28.0942C63.1004 28.0942 63.1678 27.9166 63.2027 27.6995C63.2375 27.4826 63.31 27.305 63.364 27.305C63.4178 27.305 63.4617 27.2162 63.4617 27.1075C63.4617 26.9991 63.5064 26.9103 63.5607 26.9103C63.6153 26.9103 63.6597 26.7968 63.6597 26.658C63.6597 26.5146 63.7026 26.4318 63.7589 26.4663C63.8536 26.5246 63.9006 26.2675 63.863 25.8985C63.8531 25.8031 63.915 25.6985 64.0001 25.666C64.0852 25.6333 64.1548 25.5226 64.1548 25.42C64.1548 25.3174 64.196 25.2331 64.246 25.2331C64.2962 25.2331 64.3664 25.1005 64.4023 24.9382C64.4379 24.7762 64.5083 24.6182 64.5586 24.5873C64.6088 24.5564 64.65 24.42 64.65 24.2844C64.65 24.145 64.6932 24.0643 64.749 24.0988C64.8035 24.1322 64.848 24.0859 64.848 23.9961C64.848 23.9061 64.9103 23.6927 64.9866 23.5217C65.0628 23.3506 65.185 23.0666 65.2583 22.8902C65.3315 22.7139 65.4272 22.5695 65.4706 22.5695C65.5143 22.5695 65.5406 22.5141 65.5295 22.4462C65.4969 22.2507 65.6527 21.7803 65.7499 21.7803C65.7986 21.7803 65.8383 21.6915 65.8383 21.5831C65.8383 21.4744 65.8771 21.3856 65.9246 21.3856C65.9721 21.3856 66.0395 21.208 66.0743 20.9911C66.1092 20.774 66.1817 20.5964 66.2354 20.5964C66.2892 20.5964 66.3334 20.5076 66.3334 20.3992C66.3334 20.2905 66.3779 20.2017 66.4324 20.2017C66.4869 20.2017 66.5314 20.0908 66.5314 19.9552V19.7086H65.1946C63.9374 19.7086 63.8579 19.7199 63.8579 19.9001C63.8579 20.0052 63.8132 20.1189 63.7589 20.1524C63.7044 20.1861 63.6597 20.2996 63.6597 20.405C63.6597 20.5104 63.6153 20.5964 63.5607 20.5964C63.5064 20.5964 63.4617 20.7073 63.4617 20.8429C63.4617 20.9788 63.4153 21.0897 63.3585 21.0897C63.3016 21.0897 63.2643 21.1451 63.2754 21.213C63.308 21.4085 63.1522 21.8789 63.055 21.8789C63.0065 21.8789 62.9666 21.9873 62.9666 22.1197C62.9666 22.2522 62.9259 22.3856 62.8762 22.4163C62.8264 22.447 62.7557 22.6492 62.7191 22.8661C62.6823 23.0827 62.6116 23.26 62.5618 23.26C62.5123 23.26 62.4717 23.371 62.4717 23.5068C62.4717 23.6424 62.429 23.7534 62.377 23.7534C62.325 23.7534 62.2525 23.9123 62.2159 24.1068C62.1237 24.5961 61.7877 25.2635 61.7824 24.9677C61.7801 24.8489 61.7364 24.7257 61.6851 24.6942C61.6339 24.6625 61.5619 24.4379 61.5253 24.1951C61.4887 23.9521 61.4193 23.7534 61.371 23.7534C61.3228 23.7534 61.2834 23.6424 61.2834 23.5068C61.2834 23.371 61.2387 23.26 61.1844 23.26C61.1299 23.26 61.0852 23.1712 61.0852 23.0628C61.0852 22.9544 61.0355 22.8656 60.9746 22.8656C60.9102 22.8656 60.884 22.7629 60.9115 22.6188C60.9375 22.4832 60.9203 22.3722 60.8736 22.3722C60.8266 22.3722 60.7883 22.2613 60.7883 22.1257C60.7883 21.9898 60.7436 21.8789 60.6893 21.8789C60.6347 21.8789 60.5903 21.768 60.5903 21.6324C60.5903 21.4968 60.5383 21.3856 60.4747 21.3856C60.411 21.3856 60.3853 21.3597 60.4171 21.328C60.4845 21.2608 60.3565 20.8412 60.0664 20.177L59.8618 19.7086H58.5981C57.7775 19.7086 57.3103 19.7471 57.2661 19.8183ZM8.97829 21.9587C8.99976 22.0233 9.08813 22.0761 9.17423 22.0761C9.26059 22.0761 9.30175 22.1056 9.26564 22.1413C9.22978 22.1773 9.28988 22.2691 9.39946 22.3456C9.5088 22.4218 9.57268 22.5257 9.54137 22.5763C9.51006 22.6268 9.52647 22.6681 9.57798 22.6681C9.62949 22.6681 9.69135 22.8014 9.71534 22.9642L9.75877 23.26H8.04303C6.58409 23.26 6.32755 23.2379 6.32755 23.1121C6.32755 23.0308 6.37199 22.9642 6.42653 22.9642C6.48082 22.9642 6.52551 22.8958 6.52551 22.8122C6.52551 22.622 7.21509 21.9189 7.47238 21.8467C7.81452 21.7511 8.93663 21.8344 8.97829 21.9587ZM91.4142 22.0022C91.5609 22.0701 91.6811 22.1589 91.6816 22.1997C91.6819 22.2402 91.7422 22.2736 91.8152 22.2736C91.8884 22.2736 92.0331 22.4402 92.1371 22.6434C92.2409 22.8469 92.3594 23.0283 92.4003 23.0464C92.5043 23.0925 92.4937 24.74 92.3891 24.74C92.3424 24.74 92.3253 24.8509 92.3513 24.9865C92.3874 25.175 92.3571 25.2331 92.222 25.2331C92.1248 25.2331 92.0743 25.262 92.1096 25.2972C92.1919 25.379 91.7938 25.7264 91.6178 25.7264C91.5443 25.7264 91.4844 25.7709 91.4844 25.825C91.4844 25.8794 91.3953 25.9239 91.2862 25.9239C91.1774 25.9239 91.0883 25.9682 91.0883 26.0225C91.0883 26.0766 90.8656 26.1211 90.5931 26.1211C90.3209 26.1211 90.098 26.0766 90.098 26.0225C90.098 25.9682 90.0071 25.9239 89.8957 25.9239C89.6917 25.9239 89.5266 25.8202 89.2273 25.5045C89.1374 25.4094 89.0069 25.3319 88.9372 25.3319C88.8246 25.3319 88.7706 25.1312 88.7842 24.7647C88.7867 24.6967 88.7491 24.6414 88.7009 24.6414C88.5943 24.6414 88.5817 23.3239 88.687 23.219C88.7279 23.1783 88.765 23.1154 88.7698 23.0791C88.8102 22.7687 89.1872 22.2736 89.3831 22.2736C89.4561 22.2736 89.4882 22.2291 89.4543 22.175C89.4207 22.1207 89.4849 22.0761 89.597 22.0761C89.7091 22.0761 89.801 22.0319 89.801 21.9775C89.801 21.8354 91.0963 21.855 91.4142 22.0022ZM29.809 22.0761C30.2443 22.0761 30.4774 22.1126 30.4388 22.175C30.4052 22.2291 30.462 22.2736 30.565 22.2736C30.7504 22.2736 31.2804 22.7785 31.2804 22.9551C31.2804 23.0052 31.325 23.0613 31.3796 23.0794C31.6485 23.1687 31.6298 25.2331 31.3604 25.2331C31.3165 25.2331 31.2804 25.306 31.2804 25.3951C31.2804 25.4841 31.1546 25.6728 31.0008 25.8145C30.161 26.5873 29.019 26.5531 28.2372 25.7319C28.0592 25.545 27.9138 25.3377 27.9138 25.2716C27.9138 25.2052 27.8628 25.134 27.8004 25.1133C27.6479 25.0628 27.6517 23.3307 27.8044 23.2799C27.8645 23.26 27.9138 23.1878 27.9138 23.1199C27.9138 22.9403 28.5087 22.2736 28.669 22.2736C28.7437 22.2736 28.8048 22.2022 28.8048 22.1151C28.8048 22.011 28.8586 21.977 28.9616 22.0163C29.0478 22.0492 29.429 22.0761 29.809 22.0761ZM81.1862 22.175C81.1862 22.2291 81.2463 22.2736 81.3195 22.2736C81.5852 22.2736 82.1765 22.9858 82.1765 23.3061C82.1765 23.3893 82.221 23.4575 82.2755 23.4575C82.3328 23.4575 82.3745 23.7697 82.3745 24.1974C82.3745 24.6042 82.3364 24.9372 82.2899 24.9372C82.2434 24.9372 82.1389 25.1445 82.0578 25.3979C81.972 25.666 81.8442 25.868 81.7526 25.8814C81.6657 25.8942 81.4991 25.9933 81.3822 26.1018C81.0173 26.4406 79.7775 26.4467 79.4164 26.1116C79.3051 26.0082 79.1677 25.9239 79.1109 25.9239C79.0544 25.9239 79.0079 25.8877 79.0079 25.8436C79.0079 25.7996 78.9077 25.6565 78.785 25.5257C78.4208 25.1365 78.4403 22.6681 78.8074 22.6681C78.8466 22.6681 78.9814 22.5793 79.1069 22.4708C79.2324 22.3624 79.3952 22.2736 79.4685 22.2736C79.5419 22.2736 79.602 22.2291 79.602 22.175C79.602 22.1174 79.9321 22.0761 80.3941 22.0761C80.8562 22.0761 81.1862 22.1174 81.1862 22.175ZM47.3217 25.4213C47.3217 25.6924 46.9119 26.417 46.7586 26.417C46.6869 26.417 46.6283 26.4615 46.6283 26.5156C46.6283 26.5699 46.5617 26.6145 46.4798 26.6145C46.3983 26.6145 46.3314 26.6587 46.3314 26.7131C46.3314 26.7679 46.0673 26.8117 45.7372 26.8117C45.4072 26.8117 45.1431 26.7679 45.1431 26.7131C45.1431 26.6587 45.0772 26.6145 44.9964 26.6145C44.8482 26.6145 44.6863 26.1961 44.7293 25.9239C44.8118 25.4001 44.8565 25.3219 45.0391 25.3795C45.1416 25.4119 45.2542 25.3923 45.2891 25.336C45.4191 25.1264 47.3217 25.2064 47.3217 25.4213Z" fill="#7A8DA2"/>
</g>
<defs>
<clipPath id="clip0">
<rect width="100" height="50" fill="white"/>
</clipPath>
</defs>
</svg>
