<svg width="500" height="500" viewBox="0 0 500 500" fill="none" xmlns="http://www.w3.org/2000/svg">
<path d="M307.564 452.209C307.126 451.68 306.287 447.722 306.453 446.967C306.797 445.395 305.862 441.036 303.992 435.504C300.801 426.059 298.87 422.621 294.344 418.323C292.84 416.895 291.172 415.503 290.637 415.229C288.599 414.187 288.442 413.986 287.603 411.332C287.167 409.954 286.596 408.405 286.334 407.889C285.68 406.602 282.155 402.977 281.198 402.607C280.47 402.325 276.153 399.634 272.937 397.456C272.09 396.883 271.044 396.417 270.278 396.272C269.583 396.14 268.98 395.997 268.938 395.955C268.895 395.912 268.723 395.482 268.554 395C268.306 394.291 267.798 393.822 265.895 392.549C264.601 391.684 262.362 390.412 260.921 389.722C259.479 389.033 255.002 386.612 250.972 384.343C244.988 380.973 243.112 380.038 240.737 379.238C239.137 378.699 237.568 378.256 237.25 378.254C236.477 378.249 233.568 376.663 223.809 370.921C214.759 365.597 212.575 364.435 209.786 363.458C208.046 362.848 207.572 362.792 203.879 362.76C198.714 362.715 197.813 362.418 195.564 360.022C194.716 359.119 193.433 357.521 192.711 356.471L191.399 354.562L191.538 352.458C191.65 350.756 191.873 349.867 192.704 347.797C195.056 341.937 194.981 340.32 192.076 334.23C188.828 327.42 186.402 324.578 177.353 316.987C174.341 314.461 171.379 311.946 170.771 311.397C170.163 310.848 169.224 310.014 168.684 309.542C167.84 308.804 167.661 308.466 167.395 307.112C166.323 301.658 163.336 297.987 156.982 294.313C156.14 293.827 155.848 293.277 155.449 291.429C155.148 290.041 153.819 286.521 152.946 284.802C152.611 284.141 151.688 282.614 150.896 281.408C147.992 276.983 147.175 274.806 147.177 271.493C147.178 269.395 147.729 268.527 149.555 267.743C152.485 266.486 154.121 265.529 155.372 264.34C156.605 263.167 156.667 263.049 156.667 261.87C156.667 260.248 155.567 258.527 153.971 257.654C151.675 256.398 144.844 248.514 142.93 244.911C141.549 242.31 140.585 239.689 139.637 235.951C139.079 233.751 138.077 230.526 137.411 228.784C135.638 224.148 135.461 223.419 135.779 222.095C136.19 220.385 136.418 220.244 137.965 220.745C140.834 221.674 144.415 223.164 145.054 223.695C145.426 224.004 146.103 224.327 146.559 224.413C147.786 224.643 149.753 223.516 150.639 222.076C151.308 220.987 151.313 220.953 150.955 219.746C150.502 218.218 148.372 214.614 147.441 213.8C146.441 212.926 144.726 209.861 144.364 208.303C143.938 206.469 144.187 206.248 146.67 206.248H148.563L149.37 204.969C150.744 202.79 150.342 201.542 147.621 199.536C145.928 198.289 144.513 197.726 141.185 196.975L138.722 196.419L137.603 197.076C136.571 197.681 135.32 199.16 134.927 200.24C134.757 200.704 135.667 204.471 136.332 206.057C136.82 207.222 136.81 207.685 136.286 208.256C136.051 208.511 135.367 209.452 134.765 210.347C133.744 211.862 133.582 211.995 132.384 212.288C131.174 212.584 131.016 212.566 129.707 211.983C128.942 211.642 127.549 211.117 126.612 210.816L124.909 210.268L124.575 208.86C124.332 207.837 123.964 207.139 123.224 206.302C122.665 205.669 121.685 204.476 121.045 203.651C120.405 202.825 119.589 202.024 119.232 201.871C118.453 201.538 116.954 199.695 116.697 198.756C116.596 198.388 116.237 196.785 115.899 195.194C115.243 192.103 115.283 191.809 116.395 191.529C116.861 191.412 117.063 191.107 117.342 190.104C118.221 186.941 118.09 185.924 116.503 183.59C115.456 182.051 111.913 178.538 110.709 177.846C109.774 177.309 109.068 176.05 108.127 173.245C107.029 169.97 105.051 166.125 101.913 161.17C100.261 158.56 98.6667 156.097 98.3706 155.695C98.042 155.249 97.5423 153.729 97.0888 151.797C95.729 146.002 95.7376 146.088 96.0764 141.611C96.2585 139.204 96.3187 136.392 96.2224 134.789C95.8525 128.634 95.583 125.907 95.2277 124.724C94.68 122.899 92.8669 120.286 89.7536 116.836C88.2425 115.161 86.8445 113.407 86.6471 112.938C85.6756 110.63 83.9156 107.55 83.0276 106.603C82.0387 105.549 81.9283 105.256 81.0983 101.483C80.4385 98.484 80.4313 98.3581 80.5787 92.4513C80.7281 86.4626 81.0969 83.3987 82.0929 79.8706C82.4532 78.5944 83.0643 77.9788 83.7204 78.2309C84.1569 78.3986 85.7499 80.4852 86.0553 81.2892C86.602 82.7288 89.9815 82.6948 91.4397 81.2351C91.8355 80.8389 92.2721 80.1081 92.4099 79.6112C92.5478 79.1142 92.6612 76.2925 92.662 73.3406C92.6627 70.3767 92.8837 64.9226 93.1556 61.1591C93.521 56.102 93.6403 52.2178 93.6185 46.0972C93.6 40.9264 93.6792 37.7596 93.8306 37.6081C93.9903 37.4481 97.8091 37.4983 105.11 37.7559C116.309 38.1511 127.7 38.5402 166.402 39.8493C178.247 40.2499 191.17 40.6894 195.118 40.8257C199.067 40.962 206.887 41.2322 212.496 41.4259C218.106 41.6196 222.777 41.8647 222.876 41.9706C223.1 42.2104 223.309 65.6405 223.47 108.552C223.62 148.761 223.83 171.427 224.055 171.84C224.148 172.01 232.436 180.397 242.472 190.478C252.508 200.558 278.946 227.17 301.222 249.614C323.498 272.058 350.88 299.631 362.07 310.887C392.737 341.734 401.129 350.246 402.056 351.451C402.802 352.421 403.003 353.027 403.789 356.689C404.51 360.046 404.937 361.409 406.04 363.876C407.56 367.277 408.683 368.914 410.644 370.591C411.374 371.216 412.341 372.305 412.793 373.011C413.709 374.445 414.702 375.279 416.345 375.994C417.739 376.599 419.496 378.74 419.496 379.831C419.496 380.589 418.372 381.87 416.04 383.768C414.101 385.348 413.157 385.911 410.63 386.997C408.947 387.721 407.469 388.436 407.345 388.585C407.001 389 405.751 393.08 404.786 396.937C403.94 400.321 403.921 400.502 403.923 405.22C403.923 408.633 404.096 411.648 404.511 415.526L405.098 421.008L404.413 424.4L403.728 427.793L402.673 428.664C402.092 429.143 401.294 429.821 400.899 430.171L400.181 430.807L400.491 432.546C400.662 433.503 400.877 434.286 400.969 434.286C401.06 434.286 402.059 434.401 403.188 434.543C405.102 434.783 405.324 434.873 406.497 435.876C407.695 436.901 408.302 438.112 408.302 439.481C408.302 439.673 407.599 440.374 406.74 441.038C405.193 442.233 405.147 442.25 401.933 442.77C398.706 443.293 391.89 444.063 382.141 445.007C379.33 445.279 375.113 445.717 372.771 445.979C370.429 446.242 360.901 447.224 351.599 448.161C342.296 449.099 330.383 450.305 325.124 450.841C319.866 451.377 314.116 451.929 312.348 452.068C310.579 452.206 308.849 452.378 308.502 452.45C308.102 452.532 307.759 452.444 307.564 452.209Z" fill="#546175" stroke="white" stroke-width="0.928863"/>
<g clip-path="url(#clip0)">
<path d="M178.5 230C153.833 230.03 133.843 250.02 133.812 274.688V302.188C133.812 304.086 135.352 305.625 137.25 305.625H151C152.899 305.625 154.438 304.086 154.438 302.188V274.688C154.438 261.398 165.211 250.625 178.5 250.625C191.789 250.625 202.563 261.398 202.563 274.688V302.188C202.563 304.086 204.102 305.625 206 305.625H219.75C221.649 305.625 223.188 304.086 223.188 302.188V274.688C223.157 250.02 203.168 230.03 178.5 230Z" fill="#A9B3BC"/>
<path d="M137.25 298.75H219.75C229.242 298.75 236.937 306.446 236.937 315.938V377.813C236.937 387.306 229.242 395.001 219.75 395.001H137.25C127.758 395.001 120.062 387.306 120.062 377.813V315.938C120.062 306.446 127.758 298.75 137.25 298.75Z" fill="#A9B3BC"/>
<path d="M195.687 336.562C195.727 327.07 188.065 319.342 178.573 319.302C169.08 319.262 161.353 326.925 161.313 336.417C161.285 342.979 164.995 348.983 170.876 351.893L168.222 370.456C167.956 372.336 169.264 374.075 171.144 374.341C171.303 374.363 171.464 374.375 171.625 374.375H185.375C187.273 374.394 188.828 372.871 188.847 370.972C188.849 370.797 188.837 370.622 188.812 370.449L186.158 351.887C191.967 348.98 195.65 343.057 195.687 336.562Z" fill="#546175"/>
</g>
<defs>
<clipPath id="clip0">
<rect width="165" height="165" fill="white" transform="translate(96 230)"/>
</clipPath>
</defs>
</svg>
