<svg width="500" height="500" viewBox="0 0 500 500" fill="none" xmlns="http://www.w3.org/2000/svg">
<path d="M246.982 57.014L253.235 70.3391C253.472 70.8318 253.935 71.1767 254.475 71.2644L268.587 73.416C269.195 73.5089 269.7 73.934 269.896 74.5174C270.091 75.1009 269.943 75.7445 269.512 76.1845L259.199 86.7537C258.839 87.129 258.674 87.65 258.753 88.1643L261.173 103.005C261.273 103.623 261.011 104.244 260.5 104.606C259.989 104.967 259.315 105.005 258.766 104.704L246.294 97.8082C245.799 97.5385 245.202 97.5385 244.707 97.8082L232.241 104.704C231.692 105.005 231.019 104.967 230.508 104.606C229.995 104.244 229.735 103.623 229.834 103.005L232.249 88.1643C232.328 87.65 232.163 87.129 231.803 86.7537L221.489 76.1577C221.059 75.7177 220.911 75.0741 221.106 74.4907C221.301 73.9073 221.806 73.4814 222.415 73.3892L236.527 71.2376C237.066 71.1507 237.529 70.8051 237.767 70.3123L244.019 56.9873C244.291 56.412 244.874 56.0471 245.51 56.0523C246.145 56.0582 246.721 56.4336 246.982 57.014Z" fill="#546175"/>
<path d="M246.983 385.053L253.235 398.378C253.472 398.87 253.935 399.215 254.475 399.303L268.587 401.455C269.195 401.547 269.7 401.973 269.896 402.556C270.091 403.139 269.943 403.783 269.512 404.223L259.199 414.792C258.839 415.168 258.674 415.689 258.753 416.203L261.174 431.043C261.273 431.662 261.012 432.283 260.5 432.644C259.988 433.005 259.316 433.043 258.766 432.742L246.301 425.847C245.806 425.577 245.209 425.577 244.714 425.847L232.248 432.742C231.699 433.043 231.026 433.005 230.515 432.644C230.002 432.283 229.742 431.662 229.841 431.043L232.262 416.203C232.341 415.689 232.176 415.168 231.816 414.792L221.489 404.196C221.059 403.756 220.911 403.113 221.105 402.529C221.3 401.946 221.806 401.52 222.414 401.428L236.526 399.276C237.066 399.189 237.529 398.844 237.766 398.351L244.019 385.026C244.291 384.451 244.873 384.086 245.51 384.091C246.145 384.097 246.721 384.472 246.983 385.053Z" fill="#546175"/>
<path d="M167.092 79.1957L173.332 92.5208C173.567 93.015 174.031 93.3606 174.571 93.4461L188.683 95.5977C189.291 95.6906 189.797 96.1157 189.992 96.6991C190.187 97.2825 190.039 97.9262 189.609 98.3661L179.308 108.962C178.943 109.334 178.777 109.858 178.863 110.373L181.283 125.213C181.385 125.834 181.123 126.457 180.608 126.819C180.094 127.181 179.418 127.217 178.868 126.912L166.403 120.017C165.908 119.747 165.311 119.747 164.816 120.017L152.351 126.912C151.801 127.217 151.125 127.181 150.611 126.819C150.096 126.457 149.835 125.834 149.936 125.213L152.337 110.347C152.422 109.833 152.258 109.311 151.898 108.936L141.591 98.3669C141.161 97.9262 141.013 97.281 141.21 96.6976C141.406 96.1135 141.914 95.6891 142.523 95.5984L156.635 93.4468C157.174 93.3621 157.636 93.0157 157.869 92.5215L164.148 79.1964C164.423 78.6346 164.994 78.2778 165.621 78.2778C166.245 78.2771 166.817 78.6331 167.092 79.1957Z" fill="#546175"/>
<path d="M331.111 363.283L337.351 376.641C337.586 377.135 338.05 377.481 338.59 377.566L352.703 379.725C353.311 379.814 353.817 380.239 354.013 380.822C354.208 381.405 354.06 382.048 353.628 382.486L343.328 393.043C342.961 393.412 342.795 393.934 342.882 394.447L345.302 409.287C345.404 409.908 345.142 410.531 344.627 410.893C344.113 411.255 343.438 411.291 342.888 410.986L330.422 404.097C329.929 403.822 329.328 403.822 328.835 404.097L316.37 410.986C315.82 411.291 315.144 411.255 314.63 410.893C314.116 410.531 313.854 409.908 313.955 409.287L316.376 394.447C316.461 393.936 316.298 393.414 315.936 393.043L305.616 382.467C305.19 382.026 305.045 381.383 305.241 380.802C305.437 380.221 305.941 379.797 306.548 379.705L320.66 377.547C321.199 377.462 321.661 377.116 321.894 376.622L328.147 363.297C328.419 362.727 328.993 362.362 329.626 362.359C330.257 362.356 330.834 362.715 331.111 363.283Z" fill="#546175"/>
<path d="M107.547 135.861L113.799 149.186C114.036 149.679 114.499 150.024 115.039 150.112L129.151 152.263C129.759 152.356 130.265 152.781 130.46 153.365C130.655 153.948 130.507 154.592 130.076 155.032L119.763 165.601C119.403 165.976 119.238 166.497 119.317 167.012L121.738 181.852C121.837 182.471 121.576 183.092 121.064 183.453C120.552 183.814 119.88 183.852 119.33 183.551L106.865 176.656C106.37 176.386 105.773 176.386 105.278 176.656L92.8125 183.551C92.2633 183.852 91.5899 183.814 91.0786 183.453C90.5665 183.092 90.3057 182.471 90.4052 181.852L92.8259 167.012C92.9047 166.497 92.7397 165.976 92.38 165.601L82.053 155.018C81.6301 154.578 81.4874 153.939 81.6814 153.36C81.8754 152.781 82.3756 152.359 82.9783 152.263L97.0905 150.111C97.63 150.024 98.093 149.679 98.3301 149.186L104.583 135.861C104.85 135.282 105.429 134.913 106.065 134.913C106.702 134.913 107.279 135.284 107.547 135.861Z" fill="#546175"/>
<path d="M391.642 299.879L397.894 313.205C398.127 313.698 398.588 314.044 399.128 314.13L413.24 316.281C413.849 316.372 414.356 316.796 414.553 317.381C414.75 317.965 414.602 318.609 414.172 319.05L403.852 329.619C403.491 329.994 403.328 330.516 403.413 331.03L405.833 345.87C405.935 346.491 405.673 347.114 405.158 347.476C404.644 347.838 403.968 347.874 403.418 347.569L390.953 340.674C390.458 340.404 389.861 340.404 389.366 340.674L376.901 347.569C376.351 347.874 375.675 347.838 375.161 347.476C374.647 347.114 374.385 346.491 374.486 345.87L376.907 331.03C376.991 330.515 376.826 329.991 376.461 329.619L366.14 319.037C365.718 318.596 365.575 317.957 365.769 317.378C365.963 316.799 366.463 316.377 367.066 316.281L381.178 314.129C381.718 314.044 382.182 313.698 382.418 313.204L388.67 299.879C388.94 299.301 389.519 298.933 390.156 298.933C390.793 298.933 391.372 299.303 391.642 299.879Z" fill="#546175"/>
<path d="M82.9636 221.033L89.2163 234.358C89.4533 234.851 89.9164 235.195 90.4559 235.283L104.568 237.435C105.176 237.528 105.681 237.953 105.877 238.536C106.072 239.12 105.924 239.763 105.493 240.203L95.1798 250.772C94.8201 251.148 94.6551 251.669 94.7339 252.183L97.1545 267.024C97.2541 267.642 96.9925 268.263 96.4812 268.624C95.9698 268.986 95.2965 269.024 94.7472 268.723L82.2754 261.827C81.7804 261.557 81.1829 261.557 80.6879 261.827L68.2227 268.723C67.6735 269.024 67.0001 268.986 66.4888 268.624C65.9767 268.263 65.7159 267.642 65.8154 267.024L68.2301 252.183C68.3089 251.669 68.1439 251.148 67.7842 250.772L57.4684 240.177C57.0381 239.737 56.8902 239.094 57.0849 238.51C57.2796 237.927 57.785 237.501 58.3937 237.409L72.5059 235.257C73.0454 235.17 73.5084 234.825 73.7455 234.332L79.9982 221.007C80.2702 220.432 80.8529 220.067 81.4891 220.072C82.126 220.078 82.7012 220.452 82.9636 221.033Z" fill="#546175"/>
<path d="M411.002 221.034L417.255 234.359C417.492 234.851 417.955 235.196 418.495 235.284L432.607 237.435C433.215 237.528 433.72 237.954 433.915 238.537C434.11 239.12 433.962 239.764 433.532 240.204L423.218 250.773C422.859 251.149 422.694 251.669 422.772 252.184L425.193 267.024C425.293 267.643 425.031 268.264 424.52 268.625C424.008 268.986 423.335 269.024 422.786 268.723L410.321 261.828C409.826 261.558 409.228 261.558 408.733 261.828L396.268 268.723C395.719 269.024 395.045 268.986 394.534 268.625C394.022 268.264 393.761 267.643 393.861 267.024L396.281 252.184C396.36 251.669 396.195 251.149 395.835 250.773L385.508 240.177C385.078 239.737 384.93 239.094 385.125 238.51C385.32 237.927 385.825 237.501 386.434 237.409L400.546 235.257C401.085 235.17 401.548 234.825 401.786 234.332L408.038 221.007C408.31 220.432 408.893 220.067 409.529 220.072C410.165 220.079 410.74 220.453 411.002 221.034Z" fill="#546175"/>
<path d="M110.44 298.522L116.693 311.847C116.928 312.341 117.392 312.687 117.932 312.773L132.045 314.924C132.653 315.017 133.158 315.442 133.353 316.026C133.548 316.609 133.4 317.253 132.97 317.693L122.656 328.269C122.29 328.637 122.124 329.16 122.21 329.672L124.631 344.513C124.733 345.134 124.471 345.757 123.956 346.119C123.442 346.481 122.766 346.517 122.216 346.212L109.751 339.323C109.258 339.047 108.656 339.047 108.164 339.323L95.6985 346.212C95.1456 346.517 94.467 346.477 93.9535 346.111C93.4399 345.744 93.182 345.115 93.2905 344.493L95.7052 329.652C95.7907 329.141 95.6272 328.619 95.266 328.248L84.945 317.693C84.5147 317.253 84.3668 316.609 84.5615 316.026C84.7562 315.442 85.2616 315.016 85.8703 314.924L99.9824 312.773C100.521 312.688 100.984 312.341 101.216 311.847L107.469 298.522C107.742 297.95 108.321 297.585 108.954 297.585C109.588 297.585 110.167 297.949 110.44 298.522Z" fill="#546175"/>
<path d="M394.528 134.502L400.781 147.827C401.018 148.32 401.481 148.665 402.02 148.753L416.132 150.904C416.74 150.997 417.246 151.422 417.441 152.006C417.637 152.589 417.488 153.233 417.058 153.673L406.744 164.249C406.384 164.621 406.219 165.141 406.298 165.653L408.719 180.493C408.819 181.111 408.558 181.733 408.046 182.094C407.533 182.455 406.861 182.493 406.312 182.192L393.847 175.303C393.353 175.028 392.752 175.028 392.259 175.303L379.794 182.192C379.24 182.505 378.556 182.469 378.038 182.101C377.519 181.734 377.26 181.099 377.373 180.473L379.794 165.633C379.876 165.121 379.711 164.6 379.348 164.229L369.034 153.653C368.604 153.213 368.456 152.569 368.651 151.986C368.846 151.402 369.351 150.976 369.96 150.884L384.072 148.733C384.612 148.647 385.076 148.302 385.311 147.807L391.564 134.482C391.839 133.911 392.419 133.549 393.053 133.553C393.686 133.558 394.26 133.927 394.528 134.502Z" fill="#546175"/>
<path d="M164.199 355.171L170.452 368.496C170.687 368.991 171.151 369.336 171.691 369.422L185.803 371.573C186.411 371.666 186.917 372.091 187.112 372.675C187.308 373.258 187.159 373.902 186.729 374.342L176.415 384.911C176.055 385.286 175.89 385.807 175.969 386.322L178.39 401.162C178.489 401.78 178.228 402.402 177.716 402.763C177.204 403.124 176.532 403.162 175.983 402.861L163.517 395.966C163.022 395.696 162.425 395.696 161.93 395.966L149.451 402.88C148.902 403.181 148.229 403.143 147.717 402.782C147.205 402.421 146.944 401.8 147.044 401.181L149.465 386.341C149.544 385.827 149.379 385.306 149.019 384.93L138.705 374.341C138.275 373.901 138.127 373.257 138.322 372.674C138.516 372.091 139.022 371.665 139.631 371.573L153.743 369.421C154.282 369.334 154.745 368.988 154.982 368.496L161.235 355.171C161.506 354.598 162.084 354.232 162.718 354.232C163.35 354.233 163.928 354.598 164.199 355.171Z" fill="#546175"/>
<path d="M328.219 71.0853L334.471 84.4103C334.707 84.9046 335.171 85.2502 335.711 85.3356L349.823 87.4872C350.431 87.5801 350.936 88.0053 351.132 88.5887C351.327 89.1721 351.179 89.8157 350.748 90.2557L340.435 100.825C340.075 101.2 339.91 101.721 339.989 102.236L342.41 117.076C342.509 117.694 342.248 118.316 341.736 118.677C341.224 119.038 340.552 119.076 340.002 118.775L327.51 111.879C327.015 111.61 326.418 111.61 325.923 111.879L313.47 118.801C312.921 119.102 312.248 119.064 311.736 118.703C311.225 118.342 310.964 117.72 311.063 117.102L313.484 102.262C313.563 101.747 313.398 101.226 313.038 100.851L302.724 90.255C302.294 89.815 302.146 89.1714 302.341 88.5879C302.536 88.0045 303.041 87.5787 303.65 87.4865L317.762 85.3408C318.301 85.2539 318.764 84.9083 319.001 84.4155L325.254 71.0905C325.52 70.5123 326.098 70.1406 326.735 70.1392C327.37 70.1392 327.95 70.5078 328.219 71.0853Z" fill="#546175"/>
</svg>
