<svg width="100" height="50" viewBox="0 0 100 50" fill="none" xmlns="http://www.w3.org/2000/svg">
<g clip-path="url(#clip0)">
<path d="M29.8152 25.6743H25.8135L25.1725 27.3615H23.342L26.824 18.7585H28.7931L32.2809 27.3615H30.4504L29.8152 25.6743ZM26.2986 24.3153H29.3244L27.8173 20.5494L26.2986 24.3153Z" fill="#7A8DA2"/>
<path d="M37.726 24.8278V27.3615H36.011V18.7585H40.0069C41.745 18.7585 43.1482 19.8526 43.1482 21.8047C43.1482 23.6474 41.745 24.8278 40.0069 24.8278H37.726V24.8278ZM37.726 20.2442V23.3537H39.8106C40.7172 23.3537 41.387 22.726 41.387 21.8105C41.387 20.8085 40.7056 20.2442 39.8106 20.2442H37.726Z" fill="#7A8DA2"/>
<path d="M48.6459 24.8278V27.3615H46.9309V18.7585H50.9268C52.665 18.7585 54.0682 19.8526 54.0682 21.8047C54.0682 23.6474 52.665 24.8278 50.9268 24.8278H48.6459V24.8278ZM48.6459 20.2442V23.3537H50.7305C51.6371 23.3537 52.3069 22.726 52.3069 21.8105C52.3069 20.8085 51.6256 20.2442 50.7305 20.2442H48.6459Z" fill="#7A8DA2"/>
<path d="M57.0594 25.4898C57.5675 25.6913 58.3297 25.962 59.04 25.962C59.9928 25.962 60.8705 25.7201 60.8705 24.5915V20.2497H57.8331V18.7526H62.5855V24.6951C62.5855 26.676 61.0149 27.4879 59.3865 27.4879C58.5492 27.4879 57.7696 27.3785 56.863 26.9754L57.0594 25.4898Z" fill="#7A8DA2"/>
<path d="M70.918 18.6318C73.5858 18.6318 75.4856 20.4803 75.4856 23.0773C75.4856 25.6743 73.5858 27.4824 70.918 27.4824C68.2618 27.4824 66.3562 25.6685 66.3562 23.0773C66.3562 20.4745 68.2618 18.6318 70.918 18.6318ZM70.9238 25.8988C72.5984 25.8988 73.7244 24.7587 73.7244 23.0715C73.7244 21.4016 72.5984 20.2269 70.9238 20.2269C69.2608 20.2269 68.1232 21.3958 68.1232 23.0715C68.1232 24.7587 69.2608 25.8988 70.9238 25.8988Z" fill="#7A8DA2"/>
<path d="M79.2334 18.7585H83.2524C84.8 18.7585 85.9202 19.7144 85.9202 21.1079C85.9202 21.8738 85.6026 22.4784 84.8866 22.9276C85.8856 23.2903 86.3706 24.0677 86.3706 24.9718C86.3706 26.3768 85.285 27.3615 83.6913 27.3615H79.2334V18.7585V18.7585ZM83.0272 22.369C83.7317 22.369 84.1532 21.9314 84.1532 21.298C84.1532 20.6185 83.6451 20.2269 82.9637 20.2269H80.9484V22.369H83.0272V22.369ZM83.4141 25.8989C84.1013 25.8989 84.5517 25.4612 84.5517 24.8393C84.5517 24.1656 84.107 23.7165 83.4141 23.7165H80.9484V25.8931H83.4141V25.8989Z" fill="#7A8DA2"/>
<path d="M96.1408 19.1731L95.9964 20.6933C95.546 20.4284 94.4258 20.1405 93.5018 20.1405C92.5664 20.1405 91.9023 20.4227 91.9023 21.1367C91.9023 21.8507 92.5144 21.9774 93.1034 22.1559L94.3507 22.5245C95.7712 22.9448 96.5854 23.5494 96.5854 24.8681C96.5854 26.3941 95.2861 27.4881 93.3171 27.4881C92.0986 27.4881 90.7185 27.1829 90.1238 26.8547L90.2624 25.3288C90.6897 25.5936 92.0929 25.9679 93.1669 25.9679C94.0735 25.9679 94.8011 25.6512 94.8011 24.9487C94.8011 24.4017 94.4777 24.1656 93.7444 23.9698L92.3816 23.6013C91.2844 23.3018 90.1296 22.7087 90.1296 21.2749C90.1296 19.6856 91.3826 18.6318 93.3921 18.6318C94.5817 18.6318 95.4536 18.8679 96.1408 19.1731Z" fill="#7A8DA2"/>
<path fill-rule="evenodd" clip-rule="evenodd" d="M14.9922 23.8777C13.7219 24.1426 12.5727 26.515 12.9192 28.0582C13.3119 29.8203 14.5649 30.1946 16.5629 29.9182C18.5609 29.6418 18.2144 27.3327 17.7351 26.1465C17.2616 24.9603 16.2626 23.6128 14.9922 23.8777Z" fill="#7A8DA2"/>
<path fill-rule="evenodd" clip-rule="evenodd" d="M10.6207 24.3324C8.82489 27.5686 10.2512 30.062 5.57964 29.9813C5.27936 29.9813 5.02529 29.9238 4.81741 29.8259C1.68187 28.2826 8.38025 15.9541 11.2097 16.0001C12.9248 16.0232 14.403 18.4647 14.5763 19.72C14.992 22.7259 12.4166 21.0905 10.6207 24.3324Z" fill="#7A8DA2"/>
</g>
<defs>
<clipPath id="clip0">
<rect width="100" height="50" fill="white"/>
</clipPath>
</defs>
</svg>
