<svg width="100" height="50" viewBox="0 0 100 50" fill="none" xmlns="http://www.w3.org/2000/svg">
<g clip-path="url(#clip0)">
<path d="M28.4647 24.1808L24.6889 27.7915C24.3691 28.0974 24.3694 28.5947 24.6896 28.9002L27.5749 31.6531C28.0667 32.1156 28.8706 32.1156 29.3624 31.6531L38.206 23.3368C38.6978 22.8744 38.6978 22.1183 38.206 21.6559L29.3624 13.3468C28.8706 12.8844 28.0667 12.8844 27.5749 13.3468L24.6896 16.0998C24.3694 16.4054 24.3691 16.9026 24.6889 17.2085L28.4647 20.8192C29.4482 21.744 29.4482 23.256 28.4647 24.1808Z" fill="#7A8DA2"/>
<path d="M17.1101 24.1808L20.8859 27.7915C21.2058 28.0974 21.2055 28.5947 20.8853 28.9002L17.9999 31.6531C17.5081 32.1156 16.7042 32.1156 16.2125 31.6531L7.36881 23.3368C6.87706 22.8744 6.87706 22.1183 7.36881 21.6559L16.2125 13.3468C16.7042 12.8844 17.5081 12.8844 17.9999 13.3468L20.8853 16.0998C21.2055 16.4054 21.2058 16.9026 20.8859 17.2085L17.1101 20.8192C16.1266 21.744 16.1266 23.256 17.1101 24.1808Z" fill="#7A8DA2"/>
<path d="M18.1007 23.187C17.7024 22.8076 17.7024 22.1924 18.1007 21.813L22.0665 18.0346C22.4647 17.6551 23.1103 17.6551 23.5086 18.0346L27.4743 21.813C27.8726 22.1924 27.8726 22.8076 27.4743 23.187L23.5086 26.9654C23.1103 27.3449 22.4647 27.3449 22.0665 26.9654L18.1007 23.187Z" fill="#7A8DA2"/>
<path d="M55.4873 28.2002H52.6691L51.1149 24.3264C50.9896 24.0213 50.7961 23.8088 50.5342 23.689C50.2837 23.5691 49.9649 23.5091 49.5777 23.5091H47.8527V28.2002H45.2224V16.5625H50.6367C52.0486 16.5625 53.1189 16.8567 53.8476 17.4451C54.5763 18.0336 54.9407 18.8781 54.9407 19.9786C54.9407 20.7523 54.7244 21.417 54.2917 21.9728C53.8704 22.5284 53.2612 22.9262 52.4642 23.1659C53.1815 23.3076 53.6996 23.7816 54.0185 24.5879L55.4873 28.2002ZM50.2438 21.5641C51.0067 21.5641 51.5647 21.4443 51.9176 21.2045C52.2706 20.9539 52.4471 20.567 52.4471 20.044C52.4471 19.521 52.2706 19.1396 51.9176 18.8999C51.5647 18.6492 51.0067 18.5239 50.2438 18.5239H47.8185V21.5641H50.2438Z" fill="#7A8DA2"/>
<path d="M65.8205 19.9132V28.2001H63.2756V26.9742C63.0137 27.3992 62.6437 27.7316 62.1655 27.9713C61.6872 28.211 61.1464 28.3309 60.5429 28.3309C59.7914 28.3309 59.1252 28.1565 58.5445 27.8079C57.9752 27.4592 57.5254 26.9633 57.1953 26.3205C56.8764 25.6666 56.717 24.9148 56.717 24.0648C56.717 23.2149 56.8764 22.4575 57.1953 21.7928C57.5254 21.1281 57.9809 20.616 58.5616 20.2564C59.1423 19.8859 59.8028 19.7007 60.5429 19.7007C61.1464 19.7007 61.6872 19.826 62.1655 20.0766C62.6437 20.3272 63.0137 20.6651 63.2756 21.09V19.9132H65.8205ZM61.2944 26.4512C61.932 26.4512 62.4216 26.2442 62.7632 25.8301C63.1048 25.416 63.2756 24.8167 63.2756 24.0322C63.2756 23.2476 63.1048 22.6482 62.7632 22.2342C62.4216 21.8092 61.932 21.5967 61.2944 21.5967C60.6567 21.5967 60.1614 21.8146 59.8084 22.2505C59.4555 22.6864 59.279 23.2912 59.279 24.0648C59.279 24.8385 59.4498 25.4323 59.7914 25.8464C60.1443 26.2496 60.6454 26.4512 61.2944 26.4512Z" fill="#7A8DA2"/>
<path d="M78.4916 19.7007C79.4824 19.7007 80.2166 19.9894 80.6952 20.567C81.1844 21.1336 81.4293 22.0053 81.4293 23.1822V28.2001H78.8505V23.2639C78.8505 22.6864 78.7533 22.2723 78.5601 22.0217C78.3663 21.7602 78.0479 21.6294 77.6035 21.6294C77.08 21.6294 76.6756 21.8037 76.3908 22.1525C76.106 22.5011 75.9639 22.9915 75.9639 23.6235V28.2001H73.3845V23.2639C73.3845 22.6973 73.2823 22.2832 73.0773 22.0217C72.8841 21.7602 72.5707 21.6294 72.1382 21.6294C71.6141 21.6294 71.2046 21.8037 70.908 22.1525C70.6238 22.5011 70.4811 22.9915 70.4811 23.6235V28.2001H67.9023V22.2832C67.9023 21.4006 67.8567 20.6105 67.7656 19.9132H70.1907L70.3446 21.1554C70.6064 20.6868 70.9709 20.3272 71.4377 20.0766C71.9157 19.826 72.4628 19.7007 73.0773 19.7007C74.3642 19.7007 75.218 20.2128 75.6392 21.2371C75.924 20.7685 76.3166 20.398 76.8177 20.1256C77.3299 19.8424 77.8883 19.7007 78.4916 19.7007Z" fill="#7A8DA2"/>
<path d="M88.7587 19.7007C89.4991 19.7007 90.1597 19.8859 90.7405 20.2564C91.3207 20.616 91.7706 21.1281 92.0897 21.7928C92.42 22.4575 92.5845 23.2149 92.5845 24.0648C92.5845 24.9148 92.4256 25.6666 92.1065 26.3205C91.7881 26.9633 91.3381 27.4592 90.7573 27.8079C90.1765 28.1565 89.5103 28.3309 88.7587 28.3309C88.1555 28.3309 87.6146 28.211 87.1366 27.9713C86.658 27.7316 86.294 27.3992 86.0435 26.9742V31.9999H83.4641V22.2832C83.4641 21.4006 83.4186 20.6105 83.3276 19.9132H85.7531L85.9238 21.2862C86.1513 20.7958 86.5159 20.409 87.0169 20.1256C87.5292 19.8424 88.11 19.7007 88.7587 19.7007ZM88.0246 26.4512C88.6621 26.4512 89.152 26.2496 89.4935 25.8464C89.835 25.4323 90.0057 24.8385 90.0057 24.0648C90.0057 23.2911 89.8294 22.6864 89.476 22.2505C89.1345 21.8146 88.6509 21.5967 88.0246 21.5967C87.3871 21.5967 86.8917 21.8092 86.5383 22.2342C86.1968 22.6482 86.026 23.2476 86.026 24.0321C86.026 24.8167 86.1968 25.416 86.5383 25.8301C86.8917 26.2442 87.3871 26.4512 88.0246 26.4512Z" fill="#7A8DA2"/>
</g>
<defs>
<clipPath id="clip0">
<rect width="86" height="19" fill="white" transform="translate(7 13)"/>
</clipPath>
</defs>
</svg>
