<svg width="100" height="50" viewBox="0 0 100 50" fill="none" xmlns="http://www.w3.org/2000/svg">
<g clip-path="url(#clip0)">
<path d="M26.2359 28.2127C25.6442 28.8696 24.5141 29.2886 23.2361 29.2829C20.1476 29.2716 17.994 27.199 18.0058 24.1468C18.0117 21.3267 20.5736 19.0333 23.5201 19.0446C26.7092 19.0559 29.0108 21.1285 28.999 24.1808L28.9694 33.9491L26.224 33.9434L26.2359 28.2127ZM26.2477 24.1694C26.2536 22.6178 25.1295 21.4909 23.5083 21.4853C21.9404 21.4796 20.757 22.6065 20.7511 24.1524C20.7452 25.6531 21.9226 26.831 23.4905 26.8366C25.1117 26.8479 26.2418 25.6757 26.2477 24.1694Z" fill="#7A8DA2"/>
<path d="M31.0817 24.1864L31.0995 19.1295L33.8448 19.1352L33.827 24.1921C33.8211 25.6927 34.9985 26.8706 36.5665 26.8762C38.1876 26.8819 39.3177 25.7097 39.3236 24.2091L39.3414 19.1522L42.0867 19.1578L42.069 24.2147C42.0571 27.267 39.3059 29.3282 36.5073 29.3169C33.3241 29.3112 31.0699 27.2387 31.0817 24.1864Z" fill="#7A8DA2"/>
<path d="M44.6605 13.5913C44.6605 12.6966 45.4534 11.9944 46.3823 12C47.2993 11.9944 48.0448 12.7022 48.0448 13.58C48.0448 13.5856 48.0448 13.5969 48.0448 13.6026C48.0448 14.4973 47.3053 15.2448 46.3704 15.2392C45.4297 15.2278 44.6724 14.4973 44.6605 13.5913ZM44.9386 19.1691L47.6839 19.1748L47.6543 29.2829L44.909 29.2773L44.9386 19.1691Z" fill="#7A8DA2"/>
<path d="M50.4706 24.2374C50.4765 21.4173 52.9378 19.1239 55.837 19.1352C56.8665 19.1409 57.8487 19.373 58.7303 19.9903L58.7539 12.051L61.4993 12.0567L61.4638 24.2714C61.4578 27.0914 58.8959 29.3849 55.9494 29.3735C52.7603 29.3622 50.4647 27.2896 50.4706 24.2374ZM58.7184 24.26C58.7243 22.7084 57.6002 21.5815 55.979 21.5759C54.4111 21.5702 53.2278 22.6971 53.2218 24.243C53.2159 25.7437 54.3933 26.9216 55.9613 26.9272C57.5765 26.9329 58.7125 25.7663 58.7184 24.26Z" fill="#7A8DA2"/>
<path d="M64.2033 24.2771C64.2092 21.457 66.6705 19.1635 69.5697 19.1749C70.5992 19.1805 71.5813 19.4127 72.4629 20.03L72.4866 12.0907L75.2319 12.0964L75.1964 24.311C75.1905 27.1311 72.6286 29.4245 69.6821 29.4132C66.493 29.4019 64.1973 27.3293 64.2033 24.2771ZM72.4511 24.2997C72.457 22.7481 71.3328 21.6212 69.7117 21.6155C68.1437 21.6099 66.9604 22.7368 66.9545 24.2827C66.9486 25.7834 68.126 26.9612 69.6939 26.9669C71.3151 26.9725 72.4452 25.8003 72.4511 24.2997Z" fill="#7A8DA2"/>
</g>
<defs>
<clipPath id="clip0">
<rect width="71" height="22" fill="white" transform="translate(18 12)"/>
</clipPath>
</defs>
</svg>
