<svg width="100" height="50" viewBox="0 0 100 50" fill="none" xmlns="http://www.w3.org/2000/svg">
<path d="M16.428 26.706V28.6667H5V26.706L12.0864 21.9736H5.17865V20H16.2839V21.9736L9.14139 26.706H16.428Z" fill="#7A8DA2"/>
<path d="M30.306 26.6919V28.8971H20.9299V20.0902H23.7979V26.6919H30.306ZM41.4642 20.0902V22.0954H33.8248V23.6037H40.953L40.0982 25.3446H33.8253V26.9046H41.4637V28.8971H30.9578V20.0902H41.4642ZM45.0796 28.8971H41.8943L47.1407 20.0902H51.0155L56.1516 28.8971H52.9868L52.0978 27.298H46.0173L45.0796 28.8971ZM47.0164 25.4799H51.057L49.0368 21.9918L47.0173 25.4799H47.0164ZM68.5747 23.9325L68.5883 25.783C68.5883 26.8657 68.3887 27.6687 67.9885 28.1908C67.5888 28.7134 66.8102 28.9742 65.6516 28.9742L64.1557 28.9873L62.446 28.9742L60.9634 28.9615C59.8838 28.9615 59.0251 28.8939 58.3883 28.7585C57.752 28.6232 57.2487 28.322 56.8788 27.8559C56.509 27.3895 56.3239 26.6745 56.3239 25.7121L56.2965 24.6032C56.2965 22.8881 56.5215 21.7008 56.9717 21.0412C57.4225 20.3811 58.4866 20.0513 60.1639 20.0513L62.308 20.0127L63.1008 20L65.0175 20.0385C66.263 20.0385 67.1649 20.2382 67.7231 20.6382C68.2816 21.038 68.5608 21.8095 68.5608 22.9527V23.1141H65.7552C65.7552 22.9031 65.7219 22.7227 65.6549 22.5727C65.5887 22.4217 65.4657 22.3166 65.2864 22.2565C65.1204 22.1991 64.9478 22.1613 64.7722 22.1437C64.5351 22.1261 64.2972 22.1186 64.0593 22.1212L60.7429 22.1081C60.0628 22.1081 59.6331 22.2629 59.4539 22.5723C59.2745 22.8818 59.185 23.4019 59.185 24.1323V24.9512C59.185 25.5575 59.2749 26.0073 59.4539 26.3018C59.6331 26.5963 59.888 26.7641 60.2193 26.8047C60.5501 26.8458 60.8041 26.8702 60.9806 26.8788C61.1576 26.8874 61.3842 26.8919 61.6598 26.8919L64.2106 26.9046C64.6934 26.9046 65.0735 26.8296 65.3516 26.6791C65.6302 26.5287 65.769 26.2473 65.769 25.8344L65.7552 25.5828H62.1216V23.9325H68.5747ZM81.98 20.1033V25.6346C81.98 27.0101 81.5961 27.9149 80.8287 28.3487C80.0614 28.783 78.878 29 77.2785 29L74.9346 28.9873C73.6934 28.9873 72.7434 28.9257 72.0834 28.8037C71.4241 28.681 70.8922 28.3693 70.4877 27.8685C70.0833 27.3682 69.8811 26.5802 69.8811 25.5059V20.1029H72.749V24.7126C72.749 25.594 72.8615 26.1656 73.0865 26.4277C73.3119 26.6902 73.8818 26.8211 74.7962 26.8211L76.0785 26.8404L77.2646 26.8211C78.0458 26.8211 78.5467 26.707 78.7675 26.4795C78.988 26.2513 79.0985 25.7897 79.0985 25.0932V20.1029H81.98V20.1033ZM94 20.0902V22.0954H86.3613V23.6037H93.4895L92.6349 25.3446H86.3613V26.9046H94V28.8971H83.4936V20.0902H94Z" fill="#7A8DA2"/>
</svg>
