<svg width="70" height="20" viewBox="0 0 70 20" fill="none" xmlns="http://www.w3.org/2000/svg">
<path fill-rule="evenodd" clip-rule="evenodd" d="M0.278761 2.13251C0.507823 2.19379 0.557522 2.3941 0.557522 3.25449V4.30199H1.19469C2.17704 4.30199 1.94846 4.60416 0.915929 4.6705L0 4.72933L0.995575 4.76014C1.89494 4.78801 1.99115 4.75949 1.99115 4.46497C1.99115 4.19328 1.8849 4.13901 1.35398 4.13901H0.716814V3.07961C0.716814 2.0841 0.69515 2.02135 0.358407 2.03912C0.0887257 2.0533 0.0689734 2.07644 0.278761 2.13251ZM5.91435 2.14913C5.78055 2.37063 5.0177 4.4961 5.0177 4.64735C5.0177 4.94676 5.68641 4.7841 5.76796 4.46497C5.88409 4.01057 6.69998 4.01057 6.81611 4.46497C6.90515 4.81376 7.56637 4.93306 7.56637 4.60041C7.56637 4.49561 7.37092 3.8722 7.13214 3.21505C6.77198 2.22394 6.6377 2.02021 6.34508 2.02021C6.15106 2.02021 5.9572 2.07823 5.91435 2.14913ZM10.9171 2.33542C10.6646 2.81818 10.7181 3.11807 11.1063 3.39629L11.4603 3.65005H11.1063C10.8618 3.65005 10.7522 3.74817 10.7522 3.96673C10.7522 4.36343 11.3306 4.79094 11.8673 4.79094C12.4405 4.79094 12.9823 4.35545 12.9823 3.89453C12.9823 3.67727 12.8259 3.39352 12.6282 3.25188C12.3373 3.04326 12.3232 2.99812 12.5485 2.99812C12.8657 2.99812 12.9178 2.50835 12.6319 2.21579C12.5267 2.10822 12.2937 2.02494 12.1142 2.03048C11.7957 2.04058 11.7961 2.04433 12.1298 2.18205C12.5039 2.33656 12.7464 2.64183 12.6076 2.78395C12.5592 2.83334 12.3999 2.75152 12.2537 2.6019C11.9431 2.28408 11.4928 2.32466 11.4267 2.67622C11.398 2.82829 11.6387 3.04359 12.0619 3.24487C12.8577 3.62283 12.9621 4.08245 12.3341 4.44297C11.8518 4.72004 11.1524 4.59145 11.005 4.19866C10.8632 3.82053 11.0619 3.67434 11.25 4.01807C11.3441 4.19018 11.5945 4.30199 11.8862 4.30199C12.2905 4.30199 12.3592 4.24511 12.3165 3.94489C12.2817 3.70156 12.107 3.54607 11.7679 3.45659C10.8465 3.21374 10.6555 2.50607 11.4257 2.18955L11.7876 2.04091L11.4348 2.03048C11.2408 2.02494 11.0079 2.16201 10.9171 2.33542ZM20.6106 3.35472C20.9972 4.5318 21.104 4.70945 21.4248 4.70945C21.7454 4.70945 21.8522 4.53245 22.2356 3.36483L22.6771 2.02021H22.2963C21.9899 2.02021 21.8781 2.14783 21.7246 2.67215C21.6196 3.03071 21.4804 3.32408 21.4154 3.32408C21.3504 3.32408 21.2339 3.04913 21.1567 2.71289C21.0428 2.21661 20.9364 2.09209 20.591 2.05085L20.1657 2L20.6106 3.35472ZM25.885 3.40558V4.79094H26.9204C27.8495 4.79094 27.9558 4.75753 27.9558 4.46497C27.9558 4.18073 27.8589 4.14259 27.1991 4.16753L26.4425 4.19589L27.1195 4.25831C28.101 4.34877 27.9507 4.62796 26.9204 4.62796H26.0442V3.40558V2.18319H26.9204C27.9507 2.18319 28.101 2.46239 27.1195 2.55284L26.4425 2.61527L27.1991 2.64362C27.8589 2.66856 27.9558 2.63042 27.9558 2.34618C27.9558 2.05362 27.8495 2.02021 26.9204 2.02021H25.885V3.40558ZM31.5489 2.38252C31.4126 2.58169 31.3009 3.05304 31.3009 3.43002C31.3009 4.36213 31.8058 4.77921 32.9035 4.75362L33.6903 4.73536V3.94815V3.1611H33.1327C32.6815 3.1611 32.5752 3.2232 32.5752 3.48707C32.5752 3.66635 32.6512 3.81304 32.7439 3.81304C32.8366 3.81304 32.8683 3.88638 32.8142 3.97602C32.649 4.24951 32.278 4.15824 32.0894 3.79788C31.7211 3.09379 32.2982 2.24904 32.7982 2.76048C33.0897 3.05891 33.6903 3.0713 33.6903 2.7789C33.6903 2.02396 32.0075 1.71233 31.5489 2.38252ZM37.4647 3.12035C37.2352 3.72551 37.0012 4.34877 36.9446 4.50572C36.864 4.72999 36.9284 4.79094 37.2466 4.79094C37.5112 4.79094 37.6861 4.67816 37.7522 4.46497C37.8884 4.02589 38.5718 4.02589 38.708 4.46497C38.7726 4.67327 38.949 4.79094 39.1965 4.79094C39.4096 4.79094 39.5841 4.76046 39.5841 4.7233C39.5841 4.68614 39.3628 4.06273 39.0922 3.33794C38.678 2.22801 38.5437 2.02021 38.2412 2.02021C37.9454 2.02021 37.8088 2.21384 37.4647 3.12035ZM42.9372 2.25491C42.8325 2.38383 42.7701 2.68991 42.7983 2.93488C42.84 3.29719 42.9764 3.4235 43.5275 3.61061C43.9004 3.73725 44.165 3.90789 44.1155 3.98987C43.9719 4.22751 43.4499 4.16247 43.3494 3.89453C43.2991 3.76007 43.1122 3.65005 42.9341 3.65005C42.5201 3.65005 42.5178 4.04399 42.9292 4.46497C43.3156 4.86037 44.2344 4.899 44.5905 4.53489C44.9766 4.13966 44.9138 3.34364 44.4823 3.16615L44.1239 3.01881L44.4823 3.00838C44.6795 3.00284 44.8407 2.91988 44.8407 2.82437C44.8407 2.43077 44.4882 2.02086 44.1581 2.03048C43.8063 2.04091 43.8063 2.04124 44.1416 2.17993C44.5406 2.34487 44.7748 2.83513 44.4546 2.83513C44.3353 2.83513 44.1945 2.7199 44.1416 2.57925C44.0173 2.2479 43.3473 2.33787 43.2809 2.6948C43.2457 2.88435 43.43 3.02631 43.9165 3.18375C44.522 3.37966 44.6018 3.46213 44.6018 3.89062C44.6018 4.27575 44.5092 4.40891 44.1529 4.53718C43.6741 4.70945 42.9415 4.42569 42.8093 4.01677C42.7126 3.71769 43.1967 3.76773 43.3094 4.06843C43.437 4.40826 44.263 4.31519 44.3299 3.95337C44.3651 3.76382 44.1804 3.62186 43.6941 3.46441C43.146 3.28692 42.9993 3.15865 42.9611 2.82291C42.9265 2.51748 43.0132 2.354 43.2796 2.2228C43.5377 2.09567 43.5694 2.03895 43.3867 2.03129C43.2441 2.0251 43.0418 2.12582 42.9372 2.25491ZM6.93956 3.27666C7.15285 3.87807 7.35133 4.42814 7.38048 4.49904C7.40979 4.56994 7.34926 4.62796 7.2462 4.62796C7.14297 4.62796 7.02112 4.48127 6.9754 4.30199C6.85577 3.83439 5.82053 3.83439 5.70106 4.30199C5.65519 4.48127 5.51915 4.62796 5.39873 4.62796C5.23067 4.62796 5.27113 4.37941 5.57299 3.55894C5.78931 2.97106 6.00786 2.42099 6.05883 2.33656C6.28933 1.95518 6.58131 2.26681 6.93956 3.27666ZM21.1041 3.13323C21.2344 3.59676 21.3886 3.97602 21.4466 3.97602C21.5047 3.97602 21.6384 3.60914 21.7435 3.16061C21.9242 2.38986 22.1402 2.04596 22.3249 2.23486C22.3702 2.28131 22.2439 2.83872 22.0439 3.4737C21.5804 4.94659 21.2763 5.00364 20.8851 3.6908C20.4145 2.1123 20.4189 2.13903 20.6514 2.21758C20.7701 2.25768 20.9738 2.6697 21.1041 3.13323ZM33.292 2.50916C33.5514 2.80237 33.5538 2.83513 33.3167 2.83513C33.1718 2.83513 33.0531 2.76961 33.0531 2.68959C33.0531 2.40208 32.523 2.34373 32.1545 2.59065C31.4882 3.03756 31.7839 4.30199 32.5547 4.30199C32.8408 4.30199 33.2124 4.00715 33.2124 3.78044C33.2124 3.70873 33.1049 3.65005 32.9735 3.65005C32.842 3.65005 32.7345 3.57671 32.7345 3.48707C32.7345 3.39743 32.9137 3.32408 33.1327 3.32408C33.4955 3.32408 33.5308 3.38585 33.5286 4.01677C33.5268 4.49578 33.4814 4.63725 33.3814 4.4754C33.2619 4.28243 33.1931 4.27852 32.9876 4.45291C32.6971 4.69967 32.0738 4.58053 31.7103 4.2086C31.3821 3.87285 31.3901 2.8586 31.7238 2.48129C32.0792 2.07954 32.9253 2.09453 33.292 2.50916ZM38.8845 3.30322C39.0939 3.87432 39.2655 4.40614 39.2655 4.48486C39.2655 4.76128 38.9673 4.62437 38.8673 4.30199C38.7236 3.83911 37.7366 3.83911 37.5929 4.30199C37.4977 4.60905 37.1947 4.76666 37.1947 4.50914C37.1947 4.44379 37.3815 3.88997 37.6101 3.27829C38.1259 1.89716 38.3701 1.90188 38.8845 3.30322ZM12.1511 2.81003C12.1968 2.9502 12.1202 3.00887 11.9386 2.97302C11.7825 2.94189 11.6226 2.81802 11.5834 2.69725C11.5377 2.55708 11.6143 2.49841 11.7959 2.53426C11.952 2.56539 12.1119 2.68926 12.1511 2.81003ZM43.9711 2.68307C44.1172 2.92477 43.9799 3.02517 43.6698 2.90342C43.5262 2.84703 43.4485 2.73538 43.4971 2.65503C43.6162 2.45766 43.8431 2.47102 43.9711 2.68307ZM6.07381 3.03886C5.92805 3.59545 5.94765 3.65005 6.29204 3.65005C6.46726 3.65005 6.60966 3.59496 6.60839 3.52781C6.60297 3.21619 6.40179 2.67215 6.29204 2.67215C6.22481 2.67215 6.12669 2.83709 6.07381 3.03886ZM37.997 3.06364C37.7764 3.65755 37.7732 3.65005 38.2408 3.65005C38.5909 3.65005 38.6342 3.59725 38.5415 3.28334C38.3594 2.66693 38.1726 2.59147 37.997 3.06364ZM27.0398 3.11677C27.3684 3.15197 27.6372 3.2452 27.6372 3.32408C27.6372 3.40297 27.3684 3.4962 27.0398 3.5314L26.4425 3.59529L27.1195 3.62267C27.6991 3.64614 27.7965 3.60328 27.7965 3.32408C27.7965 3.04489 27.6991 3.00203 27.1195 3.0255L26.4425 3.05288L27.0398 3.11677ZM38.2592 3.35472C38.2084 3.48462 38.1707 3.446 38.163 3.25612C38.1562 3.08433 38.1938 2.98817 38.2467 3.04228C38.2995 3.09639 38.3053 3.23705 38.2592 3.35472ZM6.45133 3.32408C6.45133 3.41373 6.37535 3.48707 6.28264 3.48707C6.18993 3.48707 6.15823 3.41373 6.21239 3.32408C6.26655 3.23444 6.34237 3.1611 6.38108 3.1611C6.41979 3.1611 6.45133 3.23444 6.45133 3.32408ZM12.1513 3.94897C12.1989 4.09679 12.1048 4.14895 11.8577 4.11195C11.6576 4.08196 11.4625 3.95972 11.4239 3.84009C11.3763 3.69227 11.4705 3.64011 11.7175 3.67711C11.9176 3.7071 12.1127 3.82933 12.1513 3.94897ZM0.079646 11.5413V17.9927H1.51327H2.9469V15.7262V13.4597L5.21681 13.4037C7.37474 13.3504 7.52464 13.3248 8.25579 12.8851C8.72267 12.6042 9.20756 12.1277 9.4903 11.6716L9.95575 10.9205V14.4566V17.9927H11.3894H12.823V15.5479V13.1031H14.563C16.1932 13.1031 16.3333 13.1292 16.783 13.5163C17.2923 13.9549 17.439 14.4709 17.7074 16.7703L17.8407 17.9112L20.7478 17.9557L23.6549 18V11.5585V5.11691H22.2212H20.7876L20.7776 11.4325C20.7674 17.7524 20.6581 18.6963 20.3265 15.3256C20.1436 13.4656 19.923 12.8394 19.2641 12.3091L18.8493 11.9753L19.4822 11.3576C20.8113 10.0605 20.8131 7.58775 19.486 6.22993C18.5306 5.25235 17.8132 5.11691 13.5905 5.11691H9.95575L9.9548 6.46153C9.95384 7.77958 9.9489 7.79653 9.70582 7.3172C9.31938 6.55557 8.66772 5.92107 7.88496 5.54474C7.23568 5.23247 6.83411 5.19482 3.62389 5.14494L0.079646 5.08986V11.5413ZM24.292 11.5388V17.9927H27.6082C31.4304 17.9927 32.108 17.8584 33.3479 16.8557C34.2198 16.1505 35.0212 14.7199 35.2676 13.4291C35.3738 12.8728 35.4117 13.3352 35.425 15.3442L35.4425 17.9927H40.2212H45V16.7703V15.5479H41.6549H38.3097V14.081V12.6142H41.3363H44.3628V11.3918V10.1694H41.3363H38.3097V8.94704V7.72466H41.6549H45V6.42078V5.11691H40.2212H35.4425L35.425 7.7654C35.4127 9.63223 35.3689 10.2139 35.2767 9.73654C35.029 8.45548 34.4738 7.41939 33.5953 6.59779C32.2687 5.35731 31.7923 5.23964 27.7566 5.15635L24.292 5.08497V11.5388ZM6.45451 7.80778C7.03927 8.11729 7.24779 8.51138 7.24779 9.30756C7.24779 10.6207 6.40577 11.1473 4.30598 11.1473H2.9469V9.3545V7.56167H4.46814C5.51326 7.56167 6.13481 7.63877 6.45451 7.80778ZM17.0752 7.95495C17.4554 8.28956 17.5221 8.47162 17.5221 9.17294C17.5221 10.5862 16.8144 10.9733 14.2168 10.9804L12.823 10.9843V9.27301V7.56167H14.7256C16.5073 7.56167 16.6567 7.58677 17.0752 7.95495ZM31.0892 8.23985C33.065 9.57909 32.9704 14.0675 30.9431 15.1683C30.5826 15.3641 29.9276 15.4703 28.792 15.5174L27.1593 15.5849V11.6399V7.695L28.8043 7.75057C30.2692 7.80012 30.5194 7.85374 31.0892 8.23985Z" fill="#546175"/>
</svg>
