<svg width="500" height="500" viewBox="0 0 500 500" fill="none" xmlns="http://www.w3.org/2000/svg">
<path d="M250.605 109.133C184.442 109.133 127.851 154.409 113.516 218.332C108.527 240.595 109.061 262.842 114.898 284.916C115.417 286.877 115.169 287.628 113.148 288.207C99.8116 291.986 86.4979 295.863 73.2143 299.792C71.4111 300.326 70.7874 299.837 70.3592 298.109C57.2634 245.786 64.2057 196.371 92.9368 150.607C116.807 112.597 150.602 86.8186 193.233 72.7987C209.725 67.374 226.72 64.5415 244.113 64.0757C287.653 62.9111 327.023 75.1804 361.742 101.395C397.701 128.54 420.925 164.296 431.166 208.227C438.258 238.626 437.462 268.973 429.333 299.116C428.807 301.07 428.251 301.603 426.169 300.957C413.006 296.9 399.813 292.94 386.597 289.063C384.643 288.492 384.305 287.786 384.831 285.855C401.323 225.478 375.92 161.644 322.515 129.299C303.694 117.901 283.31 111.252 261.326 109.562C257.494 109.276 253.663 109.171 250.605 109.133ZM183.999 104.347C184.044 99.0053 179.949 94.5949 174.855 94.5048C169.355 94.4146 164.9 98.5094 164.817 103.739C164.727 108.968 169.265 113.716 174.299 113.694C179.536 113.671 183.961 109.419 183.999 104.347ZM207.718 99.2006C209.259 103.506 206.997 106.316 202.692 105.707C202.174 105.64 201.678 105.467 201.182 105.301C200.355 105.023 200.092 105.595 199.837 106.158C199.469 106.977 200.04 107.3 200.633 107.48C203.413 108.359 206.02 107.833 208.35 106.203C210.363 104.798 210.979 102.649 210.393 100.388C209.432 96.6761 208.184 93.0397 207.08 89.3656C206.712 88.141 205.66 87.9306 205.239 88.8247C204.6 90.1846 203.834 89.6737 202.94 89.576C198.334 89.0501 195.006 93.0472 196.328 97.4651C197.831 102.522 203.271 103.446 207.718 99.2006ZM395.492 195.845C396.86 193.967 398.212 192.186 399.489 190.353C400.316 189.181 400.894 188.317 402.375 189.849C403.952 191.487 406.011 191.284 407.919 190.172C409.911 189.008 410.602 187.167 409.978 185.026C409.385 182.945 408.445 180.969 407.717 178.917C407.363 177.933 406.883 177.783 405.943 178.189C401.218 180.195 396.462 182.141 391.721 184.109C390.969 184.425 390.616 184.86 390.894 185.724C391.225 186.739 391.871 186.476 392.54 186.205C393.99 185.612 395.432 185.011 396.89 184.425C397.671 184.109 398.475 183.516 399.159 184.62C399.737 185.544 399.692 186.341 399.001 187.227C397.701 188.865 396.537 190.601 395.244 192.246C394.313 193.426 394.102 194.508 395.492 195.845ZM99.8566 210.721C101.397 209.136 100.6 208.047 99.3007 207.22C97.4974 206.071 97.1894 204.643 98.091 202.795C98.3164 202.329 98.4592 201.811 98.5719 201.307C99.188 198.565 99.8867 196.003 103.658 196.596C104.77 196.769 105.229 195.695 105.184 194.861C105.124 193.606 103.989 194.177 103.358 194.23C97.9858 194.695 92.6062 195.244 87.2342 195.747C86.4904 195.815 85.9043 195.988 85.6113 196.784C85.2882 197.678 85.6564 198.272 86.295 198.835C90.8256 202.787 95.3261 206.754 99.8566 210.721ZM96.5432 267.094C96.6935 266.155 96.0624 265.637 95.2434 265.524C92.0728 265.088 91.7272 262.999 91.6445 260.287C91.5619 257.455 90.8782 254.712 94.7025 253.781C95.8145 253.51 95.7093 252.315 95.3712 251.572C94.9129 250.58 94.169 251.406 93.6431 251.669C88.7218 254.126 83.8156 256.583 78.9394 259.123C77.5344 259.851 77.572 261.534 79.0221 262.075C84.4092 264.111 89.8338 266.012 95.2434 267.973C96.0549 268.259 96.6484 268.274 96.5432 267.094ZM401.781 215.199C401.819 215.575 401.879 215.755 401.834 215.891C400.677 219.707 401.413 222.315 404.088 223.862C406.612 225.327 409.956 224.869 412.022 222.795C414.261 220.549 414.366 217.716 412.292 214.501C411.969 213.997 411.624 213.749 412.029 212.968C412.856 211.375 411.932 211.022 410.459 211.307C405.68 212.239 400.894 213.141 396.101 214.042C395.297 214.2 394.493 214.358 394.786 215.5C395.042 216.462 395.71 216.304 396.432 216.161C398.22 215.808 399.993 215.522 401.781 215.199ZM112.967 177.001C113.013 175.409 112.096 173.816 110.27 172.794C108.497 171.795 106.724 171.87 105.139 173.155C103.779 174.244 102.554 175.484 101.239 176.626C100.292 177.452 99.233 177.625 98.106 176.941C96.9941 176.265 96.686 175.228 96.8438 174.019C97.0466 172.456 97.7379 171.171 99.218 170.502C100.217 170.052 100.21 169.443 99.8116 168.617C99.188 167.347 98.4441 168.286 97.9107 168.609C96.2728 169.601 95.3035 171.119 94.8227 172.974C94.1991 175.409 94.6273 177.49 96.8062 178.962C98.9626 180.428 100.969 180.157 103.2 178.159C104.177 177.279 105.048 176.303 106.04 175.461C106.949 174.687 108.024 174.319 109.181 174.988C110.375 175.672 110.826 176.739 110.698 178.076C110.526 179.759 109.707 181.081 108.196 181.818C107.152 182.328 106.521 182.975 107.16 184.011C107.956 185.281 108.873 184.274 109.564 183.771C111.683 182.253 112.727 180.105 112.967 177.001ZM337.316 118.157C332.756 118.307 329.668 114.468 330.562 109.764C331.148 106.669 333.958 104.054 337.211 103.566C339.691 103.198 342.493 104.655 343.553 107.18C344.056 108.367 344.657 109.156 345.769 108.51C346.918 107.849 345.979 106.767 345.596 106.023C343.725 102.334 338.819 100.418 334.845 101.733C330.284 103.243 327.339 108.096 328.12 112.837C328.804 117 333.011 120.546 337.211 120.328C338.083 120.283 339.616 120.756 339.631 119.171C339.661 117.413 338.248 118.164 337.316 118.157ZM97.0316 231.368C97.1744 230.301 96.9189 228.919 96.1901 227.687C95.7093 226.86 95.3637 225.38 94.0563 225.989C92.6062 226.665 93.6506 227.679 94.139 228.596C95.7694 231.661 94.9279 235.305 92.208 237.236C89.1426 239.4 84.8675 238.987 82.1401 236.259C79.5781 233.697 79.4053 230.609 81.8321 227.619C82.5158 226.77 82.7187 226.191 81.9373 225.418C80.9831 224.478 80.5173 225.5 80.089 225.996C79.5255 226.642 79.0521 227.409 78.714 228.205C77.2865 231.541 78.0979 235.636 80.6375 238.16C83.4099 240.933 87.8277 241.759 91.5694 240.211C94.988 238.799 97.0166 235.651 97.0316 231.368ZM91.3064 213.554C91.3665 210.654 90.1043 208.828 87.6549 208.265C84.9126 207.641 83.0342 208.625 81.8772 211.45C81.4189 212.562 81.1559 213.772 80.9004 214.966C80.0965 218.678 80.104 218.723 83.7029 219.49C87.8803 220.384 92.0578 221.225 96.2427 222.074C96.9715 222.224 97.7679 222.66 98.1135 221.435C98.5117 220.023 97.4298 220.106 96.6559 219.865C96.3254 219.76 95.9647 219.775 95.6266 219.692C94.0413 219.272 92.0803 219.264 90.9758 218.287C89.8864 217.326 91.3741 215.545 91.2764 214.08C91.2614 213.907 91.2989 213.734 91.3064 213.554ZM113.253 157.91C111.743 157.827 110.556 158.474 109.534 159.518C107.64 161.449 107.182 164.492 108.437 166.753C109.857 169.293 113.125 170.795 115.77 170.097C118.437 169.398 120.511 166.738 120.526 163.913C120.526 163.109 120.841 161.87 119.684 161.757C118.212 161.607 118.58 162.906 118.497 163.823C118.279 166.453 116.679 168.023 114.403 168C113.133 167.985 112.517 167.67 113.358 166.355C114.35 164.822 115.319 163.267 116.296 161.727C117.768 159.375 117.498 158.691 114.816 158.075C114.305 157.94 113.771 157.963 113.253 157.91ZM153.675 125.234C152.886 125.017 151.714 125.122 151.383 124.047C151.113 123.138 152.172 122.808 152.743 122.349C154.163 121.2 155.621 120.088 157.116 119.043C158.123 118.345 158.288 117.804 157.371 116.819C155.335 114.633 152.818 114.077 150.324 115.452C147.762 116.857 146.537 119.847 147.386 122.575C148.273 125.407 151.173 127.594 153.81 127.413C156.455 127.24 159.46 124.663 159.753 122.289C159.821 121.711 160.046 121.027 159.145 120.839C158.423 120.696 157.988 120.974 157.815 121.711C157.326 123.844 155.929 124.956 153.675 125.234ZM397.243 203.088C397.363 204.56 397.806 206.356 399.287 207.618C399.91 208.152 400.744 209.301 401.661 208.242C402.465 207.303 401.383 206.777 400.774 206.176C398.979 204.343 398.746 202.231 400.106 200.541C400.489 200.06 400.94 199.444 401.571 199.647C401.916 199.752 402.142 200.451 402.292 200.917C402.908 202.825 403.539 204.733 404.035 206.672C404.411 208.129 405.019 208.467 406.439 207.806C409.212 206.499 410.489 204.05 409.708 201.195C408.821 197.941 406.139 196.221 402.728 196.717C399.482 197.16 397.228 199.617 397.243 203.088ZM266.668 87.878C265.842 87.9381 265.233 87.9381 264.632 88.0283C261.702 88.4565 260.177 90.0794 260.507 92.386C260.8 94.4297 262.882 95.7821 265.496 95.5792C266.856 95.474 268.133 94.6551 269.598 95.7295C270.32 96.2554 270.628 95.1885 270.688 94.4597C270.853 92.4612 271.049 90.4701 271.206 88.4716C271.349 86.6533 271.116 84.9027 269.366 83.9109C267.254 82.7088 265.03 82.7614 262.829 83.7607C262.348 83.9786 261.875 84.2941 262.13 84.9553C262.386 85.6165 262.829 85.9546 263.55 85.6015C264.437 85.1732 265.368 84.9854 266.338 85.0905C267.615 85.2258 269.012 85.5939 268.945 87.0891C268.862 88.8172 267.277 87.5925 266.668 87.878ZM389.82 160.194C389.827 156.663 386.882 153.485 383.539 153.44C380.098 153.395 376.964 156.482 377.002 159.879C377.047 163.44 379.992 166.438 383.426 166.4C386.987 166.363 389.812 163.62 389.82 160.194ZM297.646 102.093C301.252 102.108 303.987 99.2908 303.942 95.5491C303.905 92.0479 300.967 89.3506 297.218 89.3882C293.799 89.4182 291.079 92.2282 291.019 95.8046C290.959 99.2607 293.912 102.071 297.646 102.093ZM409.7 240.73C413.539 240.7 416.086 238.115 416.004 234.321C415.921 230.632 413.367 227.987 409.82 227.95C406.116 227.905 403.411 230.594 403.426 234.321C403.442 238.258 405.876 240.752 409.7 240.73ZM349.127 129.209C352.644 129.262 355.536 126.482 355.551 123.033C355.581 119.509 352.651 116.556 349.075 116.474C345.634 116.406 342.741 119.224 342.673 122.717C342.606 126.241 345.506 129.156 349.127 129.209ZM212.79 94.7602C212.948 96.0525 213.301 97.2622 214.526 97.8182C216.291 98.6221 218.087 98.5019 219.77 97.5026C220.596 97.0142 221.1 95.752 222.46 96.9091C222.895 97.2772 223.887 96.6611 223.572 95.4965C223.091 93.7309 222.768 91.9352 222.354 90.1546C221.265 85.5038 217.726 84.0838 213.759 86.7435C213.113 87.1793 211.888 87.615 212.489 88.6444C213.233 89.9442 214.075 88.8998 214.849 88.3964C215.284 88.1184 215.758 87.863 216.261 87.7277C217.681 87.3671 219.379 87.2093 219.777 88.8998C220.176 90.5978 218.267 90.0644 217.381 90.41C215.209 91.244 213.068 92.0028 212.79 94.7602ZM318.12 100.343C318.27 97.45 316.933 95.9023 314.408 95.2862C313.161 94.9781 311.501 96.1051 310.682 94.0089C310.411 93.3252 309.524 93.9263 309.216 94.7076C308.082 97.5402 306.917 100.358 305.753 103.175C305.437 103.949 305.144 104.738 306.219 105.114C307.361 105.512 307.458 104.498 307.759 103.821C308.51 102.153 309.111 100.403 310.02 98.8325C311.012 97.1345 312.643 96.4808 314.513 97.3974C316.474 98.3516 316.241 99.967 315.513 101.642C314.746 103.408 314.048 105.189 313.266 106.939C312.943 107.683 313.214 108.051 313.86 108.367C314.468 108.66 314.897 108.51 315.129 107.939C316.234 105.279 317.669 102.762 318.12 100.343ZM229.169 89.2905C229.034 87.014 230.274 85.1957 232.415 85.1657C234.969 85.1281 235.187 87.0515 235.375 88.9449C235.54 90.5903 235.758 92.2358 235.931 93.8737C236.021 94.7152 236.389 95.1434 237.284 95.0382C238.163 94.9406 238.155 94.347 238.08 93.7084C237.809 91.3792 237.667 89.02 237.231 86.7134C236.637 83.6254 233.685 82.2655 230.784 83.6254C229.733 84.1138 228.959 85.2183 227.494 84.1814C226.795 83.678 226.389 84.6172 226.487 85.4286C226.855 88.5392 227.231 91.6422 227.584 94.7602C227.674 95.5567 227.907 96.1202 228.861 95.9849C229.71 95.8647 229.71 95.2712 229.65 94.6175C229.485 92.9645 229.349 91.3191 229.169 89.2905ZM367.355 132.432C367.4 131.012 366.724 129.968 365.747 128.991C364.545 127.789 362.118 128.187 361.81 125.7C361.72 125.002 360.848 125.633 360.428 126.076C358.391 128.232 356.325 130.359 354.327 132.545C353.876 133.033 352.816 133.477 353.643 134.438C354.537 135.483 355.146 134.641 355.762 134.033C357.137 132.703 358.429 131.253 359.924 130.081C361.412 128.908 363.065 129.089 364.402 130.486C365.867 132.004 365.086 133.341 363.921 134.596C362.614 136.001 361.299 137.399 359.977 138.789C359.458 139.329 359.053 139.788 359.826 140.502C360.6 141.215 361.021 140.772 361.54 140.224C362.734 138.954 363.959 137.707 365.161 136.444C366.273 135.317 367.362 134.168 367.355 132.432ZM415.455 268.371C415.463 266.125 414.742 264.525 412.608 264.036C410.542 263.563 409.618 264.983 408.896 266.591C408.686 267.064 408.521 267.568 408.31 268.048C407.859 269.085 407.529 270.453 405.996 269.852C404.681 269.341 404.862 268.018 404.997 266.891C405.079 266.17 405.478 265.577 406.011 265.111C406.687 264.525 406.657 263.909 406.101 263.307C405.335 262.481 404.801 263.247 404.381 263.706C402.668 265.577 402.547 267.808 403.239 270.077C403.689 271.542 404.907 272.331 406.439 272.346C409.016 272.376 409.678 270.385 410.339 268.447C410.369 268.364 410.391 268.281 410.429 268.199C410.85 267.275 411.128 265.855 412.488 266.395C413.938 266.966 413.637 268.371 413.149 269.551C412.991 269.927 412.63 270.242 412.315 270.543C411.684 271.159 412.127 271.7 412.465 272.158C413.006 272.902 413.524 272.384 413.983 271.97C415.117 270.949 415.425 269.611 415.455 268.371ZM254.97 84.3617C252.453 87.4197 250.447 89.8014 248.516 92.2433C247.87 93.0697 247.119 94.3094 248.967 94.4822C251.469 94.7227 254.001 94.5949 256.525 94.6175C257.059 94.6175 257.645 94.5198 257.667 93.8436C257.697 92.957 256.976 93.0096 256.367 92.9871C255.233 92.942 254.113 92.8969 252.979 92.8669C252.468 92.8518 251.822 93.0547 251.544 92.5588C251.161 91.8901 251.837 91.4544 252.19 91.0186C253.828 88.99 255.556 87.0365 257.156 84.9778C258.088 83.7757 258.253 82.6788 256.165 82.6562C253.993 82.6412 251.814 82.6036 249.651 82.6036C249.012 82.6036 248.381 82.7389 248.463 83.6029C248.531 84.2791 249.08 84.3693 249.613 84.3768C251.153 84.3693 252.701 84.3617 254.97 84.3617ZM410.031 255.554C410.031 255.524 410.031 255.509 410.031 255.486C408.896 255.486 407.762 255.396 406.642 255.501C404.351 255.726 403.028 257.95 403.817 260.077C404.013 260.603 404.23 261.016 404.884 261.008C405.583 261.001 405.741 260.655 405.665 260.009C405.41 257.815 406.83 257.605 408.483 257.695C409.617 257.755 410.744 257.92 411.872 257.86C413.57 257.763 414.569 258.191 414.231 260.167C414.125 260.753 414.141 261.467 415.035 261.489C415.914 261.519 415.936 260.828 415.959 260.219C416.004 258.905 416.064 257.68 417.965 258.153C418.716 258.349 419.377 258.198 419.528 257.267C419.715 256.08 418.896 256.019 418.07 256.004C417.071 255.974 416.117 255.944 416.274 254.479C416.334 253.961 416.117 253.42 415.448 253.367C414.749 253.307 414.539 253.833 414.524 254.367C414.509 255.974 413.494 255.877 412.375 255.734C411.601 255.629 410.812 255.606 410.031 255.554ZM136.807 129.352C136.845 132.252 139.212 135.107 142.104 135.716C144.666 136.257 147.897 134.566 148.987 132.027C149.302 131.283 149.926 130.283 148.821 129.75C147.657 129.179 147.514 130.208 147.146 131.05C145.883 133.92 142.773 134.461 140.496 132.305C137.807 129.735 138.535 126.617 142.209 125.287C143.036 124.986 143.78 124.761 143.554 123.762C143.276 122.507 142.307 123.123 141.646 123.273C138.874 123.897 136.77 126.594 136.807 129.352ZM130.797 146.685C127.558 145.566 125.026 144.739 122.539 143.8C121.48 143.394 120.796 143.762 120.398 144.626C119.805 145.941 121.112 145.716 121.69 145.919C124.718 146.978 127.776 147.97 130.819 148.999C131.623 149.27 132.269 149.27 132.9 148.533C133.547 147.767 133.351 147.188 132.93 146.437C131.465 143.77 130.105 141.065 128.618 138.413C128.272 137.797 128.317 136.332 127.055 136.925C125.951 137.444 126.311 138.465 126.837 139.39C128.062 141.553 129.234 143.785 130.797 146.685ZM279.922 83.7006C280.042 82.9042 280.455 82.0251 279.291 81.7471C277.946 81.424 277.886 82.4984 277.818 83.3324C277.72 84.5045 277.134 84.8126 276.083 84.6247C275.519 84.527 275.016 84.6322 274.888 85.3009C274.82 85.654 274.888 86.0973 275.286 86.1574C278.119 86.5557 276.766 88.4866 276.646 89.8916C276.533 91.1914 276.165 92.4612 276.015 93.7535C275.707 96.3982 277.24 97.9309 279.877 97.6905C280.545 97.6303 281.101 97.5026 281.222 96.7513C281.364 95.8271 280.688 95.8196 280.065 95.7896C278.209 95.6844 278.028 94.4822 278.269 93.0247C278.494 91.6572 278.825 90.2973 279.005 88.9224C279.193 87.5624 279.689 86.8562 281.207 87.2844C281.8 87.4497 282.694 87.8179 282.897 86.766C283.092 85.7592 282.236 85.7066 281.552 85.6165C280.395 85.4512 279.426 85.1807 279.922 83.7006ZM371.743 138.593C371.262 138.909 370.713 139.187 370.27 139.577C368.835 140.84 367.34 142.057 366.04 143.454C364.425 145.19 365.183 147.932 367.355 148.811C367.933 149.052 368.347 148.962 368.737 148.518C369.105 148.105 369.008 147.752 368.602 147.421C366.461 145.678 367.836 144.476 369.241 143.266C370.03 142.583 370.871 141.952 371.57 141.185C372.599 140.073 373.456 139.81 374.455 141.223C374.801 141.704 375.251 142.523 376.123 141.809C377.002 141.088 376.333 140.539 375.845 140.126C374.605 139.082 374.598 138.195 375.95 137.278C376.536 136.873 377.04 136.392 376.363 135.588C375.559 134.626 375.011 135.31 374.44 135.828C373.764 136.452 373.133 137.045 372.269 136.076C371.9 135.663 371.555 134.987 370.803 135.573C369.977 136.211 370.428 136.737 370.909 137.301C371.142 137.556 371.292 137.872 371.743 138.593ZM86.543 247.755C86.543 247.807 86.543 247.86 86.543 247.905C89.0675 247.905 91.5844 247.898 94.1089 247.905C94.8903 247.905 95.7168 248.078 95.7844 246.868C95.867 245.546 95.018 245.546 94.0939 245.546C89.1426 245.508 84.1763 245.463 79.225 245.411C78.3759 245.403 77.6622 245.441 77.6547 246.583C77.6471 247.777 78.4586 247.74 79.2475 247.74C81.6743 247.762 84.1162 247.755 86.543 247.755ZM401.308 163.763C400.804 162.193 399.88 162.681 398.888 163.252C394.343 165.844 389.797 168.429 385.259 171.036C384.673 171.381 383.576 171.487 384.14 172.674C384.726 173.913 385.522 173.35 386.281 172.922C390.902 170.292 395.522 167.662 400.136 165.01C400.632 164.725 401.33 164.589 401.308 163.763ZM187.5 94.9932C186.381 94.9481 185.809 95.2862 186.396 96.6611C187.583 99.4486 188.657 102.289 189.822 105.091C190.092 105.737 190.242 106.699 191.429 106.143C192.594 105.602 191.94 104.836 191.707 104.182C191.167 102.627 190.498 101.124 189.957 99.5613C189.363 97.8407 189.551 96.2253 191.272 95.2636C192.203 94.7377 193.158 94.2568 192.226 93.2125C191.317 92.1756 190.618 93.4905 189.829 93.8211C189.033 94.1291 189.138 96.0601 187.5 94.9932ZM119.827 147.97C119.557 147.722 119.286 147.399 118.941 147.181C118.347 146.813 117.994 147.234 117.671 147.684C116.732 148.992 117.363 151.253 115.049 151.779C114.568 151.884 114.996 152.673 115.447 153.004C118.114 154.95 120.781 156.888 123.434 158.849C124.072 159.323 124.485 159.217 124.936 158.586C125.41 157.91 125.154 157.489 124.591 157.069C123.539 156.302 122.479 155.543 121.45 154.739C119.399 153.124 117.273 151.524 119.579 148.578C119.684 148.466 119.707 148.278 119.827 147.97ZM383.155 148.751C383.05 148.593 382.938 148.353 382.772 148.165C381.69 146.91 379.466 146.745 379.414 144.476C379.406 144.063 378.7 144.221 378.332 144.514C375.755 146.572 373.178 148.639 370.608 150.697C370.09 151.11 369.752 151.546 370.285 152.215C370.766 152.808 371.277 152.831 371.848 152.38C372.802 151.636 373.779 150.908 374.725 150.141C376.844 148.421 378.963 146.745 381.375 149.743C381.72 150.171 382.126 150.066 382.524 149.826C382.885 149.585 383.268 149.36 383.155 148.751ZM410.549 244.719C410.549 244.757 410.549 244.802 410.549 244.832C408.986 244.832 407.416 244.832 405.861 244.832C405.132 244.832 404.433 244.877 404.456 245.891C404.486 246.921 405.23 246.883 405.928 246.891C407.664 246.906 409.407 246.846 411.135 246.951C412.938 247.064 414.336 247.83 414.509 249.874C414.576 250.678 414.524 251.587 415.681 251.436C417.063 251.264 416.665 250.137 416.447 249.4C416.064 248.108 414.929 247.026 416.207 245.508C416.605 245.035 415.628 244.704 414.967 244.712C413.502 244.742 412.022 244.719 410.549 244.719ZM131.142 132.147C130.894 132.582 130.684 132.973 130.466 133.349C130.113 133.942 130.504 134.311 130.879 134.679C133.103 136.843 135.342 139.014 137.581 141.185C138.197 141.779 138.776 142.17 139.505 141.275C140.226 140.396 139.437 140.051 138.986 139.607C136.898 137.541 134.794 135.475 132.69 133.424C132.329 133.078 131.909 132.778 131.142 132.147ZM288.54 88.0959C288.645 87.2769 288.314 86.9614 287.706 86.8712C287.127 86.7735 286.616 86.9163 286.466 87.5174C285.67 90.8909 284.896 94.2794 284.152 97.6604C284.047 98.1413 284.415 98.4643 284.881 98.5845C285.414 98.7198 285.948 98.7048 286.12 98.0286C286.947 94.6776 287.766 91.3116 288.54 88.0959ZM244.587 88.8172C244.451 88.8172 244.324 88.8172 244.188 88.8172C244.188 87.2619 244.188 85.7066 244.188 84.1514C244.188 83.4376 244.218 82.6938 243.204 82.6788C242.227 82.6637 242.1 83.3474 242.122 84.0913C242.227 87.2018 242.348 90.3198 242.483 93.4304C242.513 94.1441 242.603 94.888 243.625 94.7753C244.556 94.6701 244.602 93.9713 244.602 93.235C244.579 91.7549 244.587 90.2823 244.587 88.8172ZM288.592 80.9582C287.736 81.1535 287.18 81.6569 287.292 82.5811C287.39 83.3474 287.916 83.8433 288.72 83.8058C289.607 83.7607 290.223 83.2873 290.17 82.3331C290.117 81.409 289.501 80.9958 288.592 80.9582ZM128.926 129.705C128.753 128.871 128.227 128.345 127.318 128.383C126.537 128.42 125.996 128.886 125.988 129.705C125.973 130.614 126.446 131.193 127.401 131.208C128.325 131.215 128.791 130.667 128.926 129.705ZM244.278 77.9153C244.173 77.1865 243.775 76.6906 242.926 76.7056C241.987 76.7357 241.453 77.2316 241.514 78.1858C241.574 79.1625 242.212 79.5382 243.136 79.4405C243.978 79.3579 244.278 78.7793 244.278 77.9153Z" stroke="#546175" stroke-width="5" stroke-miterlimit="10"/>
<path d="M249.485 435.716C170.76 435.716 99.7964 385.076 74.3712 310.746C73.6724 308.688 73.0789 306.584 72.2825 304.555C71.8166 303.391 72.2299 303.022 73.2442 302.722C87.1514 298.732 101.066 294.758 114.951 290.693C116.874 290.13 116.716 291.459 117.04 292.429C125.229 317.005 139.039 337.869 158.686 354.752C183.383 375.985 212.114 387.458 244.639 388.547C285.181 389.907 320.073 376.06 348.984 347.622C364.537 332.332 375.642 314.105 382.554 293.398C383.17 291.557 383.809 291.189 385.672 291.767C398.926 295.84 412.202 299.799 425.486 303.736C427.071 304.21 427.785 304.57 427.116 306.531C410.339 356.367 378.557 393.258 331.576 416.842C305.986 429.705 278.622 435.716 249.485 435.716ZM319.096 396.669C321.613 393.506 321.876 391.297 320.141 388.945C318.608 386.857 316.159 386.421 312.785 387.743C310.914 388.472 309.134 389.411 307.27 390.147C305.925 390.673 305.662 391.259 306.339 392.649C308.51 397.112 310.539 401.643 312.552 406.188C313.116 407.451 313.484 408.194 315.182 407.436C317.008 406.617 316.377 405.715 315.828 404.596C315.257 403.424 314.686 402.244 314.168 401.042C313.92 400.463 313.213 399.802 314.017 399.193C314.731 398.66 315.528 398.314 316.414 398.968C317.744 399.952 319.217 400.786 320.411 401.913C322.53 403.927 324.468 403.686 326.655 401.74C324.168 400.057 321.726 398.42 319.096 396.669ZM161.166 381.943C161 379.952 159.708 378.306 157.634 377.893C155.658 377.495 154.291 377.059 153.795 374.858C153.585 373.919 152.48 373.22 151.496 372.844C150.173 372.341 148.723 372.363 148.092 370.522C147.739 369.493 146.529 369.087 145.508 370.537C143.704 373.1 141.728 375.541 139.745 377.976C138.926 378.975 138.813 379.606 139.985 380.463C141.067 381.252 141.698 381.297 142.495 380.155C143.599 378.592 144.794 377.074 146.056 375.647C147.221 374.324 148.641 374.279 150.001 375.376C151.368 376.481 150.842 377.675 149.986 378.802C148.829 380.327 147.679 381.86 146.439 383.325C145.665 384.234 145.553 384.865 146.657 385.624C147.581 386.248 148.243 386.917 149.167 385.564C150.301 383.919 151.541 382.326 152.878 380.846C153.923 379.689 155.26 379.411 156.612 380.47C158.07 381.612 157.672 382.867 156.733 384.099C155.628 385.557 154.569 387.052 153.359 388.419C152.367 389.531 152.525 390.155 153.675 391.094C154.922 392.101 155.418 391.507 156.102 390.568C156.973 389.366 157.927 388.239 158.829 387.059C159.933 385.609 161.158 384.212 161.166 381.943ZM245.743 420.607C243.587 414.528 241.491 408.54 239.32 402.59C238.733 400.982 236.201 400.508 235.42 401.891C232.204 407.548 229.116 413.273 225.773 419.352C227.666 418.969 229.65 420.561 230.446 418.255C231.355 415.595 233.113 415.25 235.473 415.678C236.502 415.866 237.554 415.948 238.591 415.978C239.763 416.016 240.582 416.354 240.762 417.669C241.138 420.419 242.896 421.14 245.743 420.607ZM300.238 407.759C300.275 404.859 298.93 400.561 297.33 398.397C295.459 395.88 292.905 394.993 289.952 395.827C287.082 396.646 285.331 398.855 285.196 401.988C285.053 405.294 285.872 408.39 287.563 411.222C289.404 414.318 292.086 415.437 295.294 414.581C298.442 413.739 300.193 411.328 300.238 407.759ZM376.994 359.035C378.617 359.207 380.3 357.945 381.442 356.074C382.103 354.992 381.803 354.406 380.901 353.693C379.842 352.851 379.624 353.662 379.211 354.324C378.339 355.684 377.317 355.623 376.168 354.647C375.311 353.91 374.44 353.159 373.493 352.558C372.201 351.739 372.171 350.943 373.2 349.898C373.921 349.177 374.402 348.523 373.2 347.607C372.036 346.72 371.487 347.254 370.961 348.163C370.21 349.432 369.376 349.59 368.339 348.493C367.497 347.607 366.799 347.344 365.867 348.553C364.988 349.695 364.883 350.462 366.22 351.198C367.836 352.092 367.325 353.054 366.31 354.038C365.439 354.872 364.312 355.496 363.966 356.766C363.696 357.772 363.808 358.651 362.133 358.937C360.3 359.252 360.262 360.965 361.772 362.348C363.959 364.346 366.213 366.285 368.324 368.351C369.413 369.418 369.984 369.2 371.006 368.186C372.193 366.999 371.51 366.473 370.683 365.759C369.631 364.835 368.594 363.911 367.58 362.957C365.409 360.89 365.334 359.606 367.249 357.397C367.475 357.134 367.813 356.931 367.941 356.63C369.241 353.828 370.758 354.444 372.599 356.157C373.884 357.397 375.289 358.629 376.994 359.035ZM345.168 389.148C346.212 389.013 346.73 388.99 347.226 388.878C350.081 388.239 352.125 385.812 352.215 382.965C352.32 379.674 350.224 376.706 347.211 375.827C344.544 375.061 341.434 376.263 339.976 378.697C339.435 379.606 339.397 380.853 337.632 380.463C337.143 380.35 334.882 381.191 336.37 383.137C339.585 387.352 342.733 391.628 345.836 395.933C346.678 397.105 347.294 396.699 348.143 396.038C348.962 395.414 349.653 394.971 348.669 393.836C347.489 392.477 346.505 390.959 345.168 389.148ZM220.566 398.555C217.178 398.405 214.751 399.915 214.022 402.605C213.286 405.339 214.33 407.225 217.568 409.066C218.553 409.63 219.597 410.133 220.438 410.869C222.121 412.334 221.656 414.138 219.514 414.791C217.711 415.332 216.148 414.701 215.066 413.356C213.616 411.53 212.647 413.183 211.858 413.807C210.633 414.761 212.016 415.497 212.625 415.971C215.254 418.029 218.26 418.683 221.49 417.714C223.714 417.045 224.886 415.37 225.217 413.101C225.54 410.877 224.661 409.171 222.79 407.999C221.603 407.263 220.341 406.647 219.169 405.903C218.184 405.279 217.275 404.52 217.816 403.153C218.32 401.898 219.409 401.62 220.611 401.733C221.565 401.823 222.61 401.973 223.241 402.732C224.781 404.588 225.923 402.905 226.599 402.094C227.644 400.839 225.953 400.463 225.254 399.945C223.902 398.938 222.234 398.698 220.566 398.555ZM253.602 420.967C253.858 420.937 254.744 420.93 255.586 420.742C258.456 420.096 260.297 417.999 260.432 415.332C260.582 412.5 259.403 410.937 256.27 409.817C255.368 409.494 254.451 409.224 253.542 408.938C252.137 408.518 250.672 407.962 251.115 406.166C251.544 404.423 253.144 404.16 254.692 404.295C255.361 404.355 256.052 404.648 256.63 404.994C258.524 406.143 258.884 404.152 259.508 403.378C260.259 402.447 258.899 402.169 258.313 401.913C255.413 400.636 252.52 400.846 249.793 402.402C247.885 403.499 247.111 405.272 247.284 407.481C247.449 409.532 248.546 410.877 250.402 411.583C251.777 412.109 253.219 412.485 254.609 412.988C255.819 413.424 256.863 414.138 256.615 415.633C256.375 417.045 255.24 417.556 253.956 417.751C252.798 417.939 251.574 417.819 250.74 417.03C248.997 415.385 248.163 417.045 247.502 417.992C246.525 419.412 248.238 419.607 248.959 420.058C250.154 420.854 251.574 421.005 253.602 420.967ZM123.651 350.71C124.177 350.327 124.914 349.958 125.402 349.38C125.928 348.749 125.146 348.283 124.846 347.825C123.847 346.292 122.787 344.812 121.743 343.302C120.36 341.311 122.599 341.318 123.313 340.559C124.042 339.778 124.891 339.192 125.763 340.649C126.777 342.37 128.032 343.948 129.129 345.631C129.767 346.615 130.278 346.87 131.383 346.082C132.442 345.315 132.48 344.812 131.766 343.828C129.887 341.205 128.084 338.538 126.273 335.863C125.763 335.112 125.349 334.699 124.418 335.345C119.917 338.493 115.409 341.611 110.864 344.692C109.676 345.488 110.323 346.089 110.849 346.788C111.382 347.509 111.645 348.576 113.005 347.682C114.778 346.517 116.641 343.94 118.309 344.564C120.075 345.225 121.044 347.975 122.367 349.808C122.675 350.191 122.847 350.755 123.651 350.71ZM196.193 407.601C195.945 404.468 195.614 402.154 195.629 399.84C195.644 397.616 193.879 397.36 192.646 397.413C191.339 397.473 192.166 398.968 192.211 399.78C192.376 402.822 192.722 405.85 192.932 408.893C193.172 412.425 191.79 413.634 188.319 412.74C187.027 412.409 187.072 413.296 186.703 413.86C186.253 414.536 186.335 415.069 187.117 415.58C189.213 416.955 191.94 417 193.616 415.174C197.605 410.832 201.422 406.324 205.322 401.883C203.218 400.403 201.655 400.426 200.25 402.627C199.243 404.22 197.868 405.58 196.193 407.601ZM166.688 384.948C163.051 384.948 160.076 387.991 160.121 391.658C160.174 395.339 163.675 398.75 167.469 398.72C168.296 398.713 169.708 399.103 169.708 397.781C169.708 396.631 169.152 395.512 167.379 395.737C165.478 395.985 164.028 395.001 163.322 393.145C163.104 392.567 162.939 391.875 163.525 391.462C164.013 391.109 164.501 391.605 164.937 391.86C166.891 393.01 168.874 394.107 170.768 395.339C171.91 396.083 172.39 395.707 172.954 394.648C175.426 389.945 172.233 384.948 166.688 384.948ZM332.237 398.607C334.025 398.57 336.309 397.293 337.752 394.761C338.128 394.114 339.255 393.063 337.82 392.416C336.843 391.988 335.738 391.793 335.122 393.408C334.394 395.279 332.778 396.151 330.682 395.805C330.149 395.715 329.6 395.489 329.435 394.978C329.224 394.31 329.908 394.144 330.329 393.889C332.342 392.679 334.356 391.44 336.407 390.305C337.444 389.734 337.436 389.193 336.835 388.254C335.047 385.452 332.094 384.31 329.187 385.414C325.941 386.661 323.882 390.17 324.529 393.326C325.227 396.526 327.804 398.622 332.237 398.607ZM350.63 372.581C350.57 376.157 353.605 379.313 357.144 379.366C360.991 379.426 364.71 375.819 364.8 371.935C364.89 368.208 362.028 365.271 358.309 365.256C354.304 365.233 350.698 368.667 350.63 372.581ZM135.305 359.816C135.312 355.796 131.886 352.22 127.964 352.145C124.335 352.077 121.217 355.075 121.209 358.644C121.202 362.581 124.756 366.292 128.595 366.368C132.186 366.435 135.297 363.4 135.305 359.816ZM273.603 418.743C276.112 418.803 277.713 418.315 278.336 415.528C279.298 411.207 280.748 406.992 281.965 402.732C282.98 399.148 282.266 398.292 278.757 398.9C276.015 399.374 273.287 399.945 270.53 400.328C269.275 400.501 268.659 400.786 268.952 402.251C269.253 403.784 270.109 403.664 271.229 403.424C272.761 403.1 274.324 402.92 275.849 402.574C277.803 402.124 278.735 402.176 277.863 404.686C276.285 409.261 275.031 413.942 273.603 418.743ZM387.693 345.608C387.686 343.196 386.07 341.431 384.132 341.483C382.329 341.536 381.187 342.836 379.94 343.918C379.263 344.504 378.505 345.743 377.595 344.774C376.596 343.715 377.603 342.716 378.49 341.957C378.745 341.739 379.128 341.679 379.421 341.491C380.541 340.777 380.052 339.62 379.752 338.914C379.323 337.884 378.354 338.636 377.768 338.996C375.822 340.206 374.583 341.972 374.252 344.256C374.012 345.849 374.583 347.163 375.995 348.05C377.453 348.974 378.828 348.719 380.097 347.682C380.976 346.968 381.788 346.179 382.652 345.435C383.14 345.007 383.734 344.722 384.312 345.135C384.996 345.616 384.868 346.352 384.613 347.036C384.215 348.095 383.396 348.749 382.366 349.064C380.706 349.568 381.412 350.8 381.69 351.604C382.179 353.016 383.163 352.032 383.779 351.656C386.161 350.214 387.438 348.02 387.693 345.608ZM185.253 407.939C186.11 407.947 186.132 407.188 186.35 406.677C188.552 401.478 190.693 396.248 192.917 391.056C193.42 389.899 193.195 389.389 192.038 388.923C190.888 388.457 190.25 388.344 189.686 389.749C187.605 394.903 185.389 399.997 183.247 405.129C182.631 406.624 183.698 408.059 185.253 407.939ZM145.538 367.825C145.245 367.006 144.644 366.443 143.915 366.202C142.615 365.782 141.608 365.458 141.12 363.798C140.669 362.295 139.384 361.98 138.054 363.535C136.184 365.699 134.065 367.66 132.074 369.726C131.36 370.47 130.188 370.966 131.593 372.386C133.005 373.813 133.704 373.13 134.643 372.078C135.447 371.169 136.289 370.29 137.168 369.441C139.339 367.329 140.451 367.292 142.72 369.238C143.148 369.606 143.442 370.342 144.133 369.636C144.666 369.072 145.357 368.644 145.538 367.825ZM172.668 401.568C172.774 402.672 173.818 402.68 174.502 403.1C175.358 403.626 175.756 403.145 176.087 402.424C176.801 400.922 177.492 399.419 178.258 397.954C179.476 395.647 180.79 395.174 183.187 396.278C183.984 396.646 184.412 396.947 185.02 395.948C186.132 394.107 185.298 393.386 183.608 393.145C182.308 392.957 181.106 393.205 180.137 391.688C179.453 390.621 177.83 390.147 177.154 392.349C176.778 393.588 176.019 394.7 175.441 395.873C174.539 397.736 173.63 399.622 172.668 401.568Z" fill="#637381" stroke="#546175" stroke-width="6" stroke-miterlimit="10"/>
<path d="M214.751 265.351C230.739 265.351 241.468 276.005 241.438 291.85C241.401 307.501 229.913 318.763 214.112 318.643C198.559 318.523 187.703 307.711 187.65 292.301C187.598 276.08 198.379 265.351 214.751 265.351ZM231.844 292.301C231.754 287.109 230.596 282.947 227.614 279.506C222.993 274.186 217.012 272.593 210.318 274.096C203.436 275.636 199.288 280.272 197.718 287.012C195.479 296.659 200.085 306.208 208.124 309.161C220.303 313.654 231.889 305.066 231.844 292.301Z" fill="#637381"/>
<path d="M333.665 310.229C339.383 310.229 345.1 310.199 350.825 310.236C354.83 310.267 354.244 309.748 354.274 313.708C354.304 318.644 354.282 318.644 349.398 318.644C339.796 318.644 330.201 318.591 320.607 318.689C318.736 318.704 318.368 318.118 318.263 316.337C318.105 313.565 319.014 311.687 321.118 309.846C326.948 304.722 332.711 299.515 337.692 293.519C340.164 290.544 342.305 287.373 342.884 283.414C343.755 277.546 340.502 273.541 334.597 273.135C330.562 272.865 327.046 274.278 323.837 276.486C322.665 277.29 322.064 277.343 321.651 275.893C321.486 275.307 321.215 274.751 320.975 274.195C319.157 269.852 319.157 269.86 323.477 267.703C328.113 265.382 333.041 264.458 338.188 264.938C349.946 266.035 356.22 276.547 351.87 287.854C349.15 294.924 343.793 299.973 338.504 305.06C336.881 306.615 335.168 308.065 333.5 309.575C333.56 309.786 333.612 310.004 333.665 310.229Z" fill="#637381"/>
<path d="M166.372 265.336C171.549 265.268 175.892 266.493 179.859 269.175C181.324 270.167 181.444 271.001 180.069 272.105C179.536 272.541 179.078 273.09 178.604 273.593C177.537 274.735 176.666 276.305 175.343 276.936C173.713 277.718 173.014 275.471 171.662 274.885C168.476 273.503 165.29 273.157 162 274.269C159.55 275.096 158.063 276.801 157.792 279.416C157.522 282 158.859 283.766 161.008 284.916C162.383 285.652 163.863 286.193 165.328 286.734C167.537 287.538 169.806 288.169 171.992 289.048C178.769 291.783 181.782 295.96 181.767 302.392C181.752 309.244 178.371 314.601 171.872 316.96C163.465 320.011 155.433 319.184 148.205 313.481C146.83 312.392 146.139 311.378 148.04 310.138C148.468 309.86 148.784 309.409 149.159 309.049C150.422 307.846 151.503 306.051 152.991 305.607C154.479 305.157 155.29 307.486 156.65 308.297C160.264 310.454 163.983 310.994 167.89 309.334C170.4 308.267 172.075 306.426 172.158 303.594C172.248 300.859 170.7 299.041 168.371 297.809C164.652 295.848 160.444 295.149 156.65 293.398C149.107 289.904 146.154 282.594 149.287 274.938C151.143 270.377 154.862 267.92 159.34 266.47C161.729 265.659 164.231 265.186 166.372 265.336Z" fill="#637381"/>
<path d="M246.547 292.016C246.645 272.136 265.646 259.4 283.37 267.387C285.955 268.552 288.126 270.28 290.117 272.263C290.914 273.06 291.019 273.676 289.952 274.277C289.576 274.487 289.253 274.795 288.9 275.051C287.42 276.133 286.06 277.733 284.407 278.116C282.747 278.499 281.68 276.351 280.245 275.479C273.25 271.234 262.979 274.262 258.524 281.978C254.519 288.905 255.578 298.988 260.89 305.007C265.616 310.364 276.428 313.294 283.19 305.743C284.362 304.428 285.256 304.203 286.586 305.435C287.413 306.201 288.434 306.742 289.359 307.396C292.619 309.717 292.709 309.823 289.569 312.557C281.552 319.545 272.356 320.101 262.814 316.682C253.197 313.234 248.088 305.946 246.788 295.915C246.615 294.638 246.622 293.316 246.547 292.016Z" fill="#637381"/>
<path d="M244.97 224.463C228.245 224.418 217.2 211.36 220.716 195.695C222.024 189.879 225.45 185.454 230.333 182.171C240.664 175.236 256.187 177.032 264.174 185.935C265.519 187.423 265.609 188.144 263.866 189.511C261.762 191.157 260.703 191.119 258.674 189.143C252.956 183.568 245.901 182.629 238.493 185.018C231.791 187.19 227.786 191.923 226.622 198.963C224.999 208.768 232.783 218.009 243.249 218.723C249.598 219.152 255.128 217.461 259.681 212.863C262.16 210.353 263.287 213.532 264.782 214.366C266.563 215.357 264.685 216.274 264.084 216.92C258.899 222.367 252.34 224.471 244.97 224.463Z" fill="#637381"/>
<path d="M319.983 176.505C323.86 184.304 327.474 191.532 331.058 198.79C334.687 206.138 338.278 213.494 341.885 220.849C343.192 223.524 343.154 223.269 340.344 223.599C337.331 223.967 335.761 222.848 334.627 220.143C333.319 217.01 331.546 214.087 330.104 211.014C329.495 209.722 328.699 209.271 327.279 209.286C322.305 209.354 317.346 209.354 312.372 209.279C310.914 209.249 310.216 209.85 309.622 211.104C308.052 214.41 306.196 217.573 304.731 220.924C303.822 223.013 302.582 223.855 300.358 223.562C299.194 223.404 297.991 223.531 296.391 223.531C304.28 207.799 312.004 192.404 319.983 176.505ZM326.452 203.606C324.183 199.106 322.154 195.093 319.938 190.698C317.872 194.755 315.971 198.459 314.1 202.156C313.619 203.11 313.852 203.614 315.009 203.606C318.661 203.584 322.305 203.606 326.452 203.606Z" fill="#637381"/>
<path d="M179.942 176.438C181.204 179.015 182.211 181.103 183.24 183.185C189.529 195.927 195.78 208.677 202.136 221.382C203.128 223.366 202.617 223.479 200.678 223.674C197.282 224.02 195.487 222.742 194.307 219.587C193.188 216.589 191.414 213.832 190.039 210.924C189.468 209.722 188.732 209.293 187.417 209.308C182.361 209.376 177.304 209.391 172.248 209.308C170.903 209.293 170.249 209.774 169.686 210.946C168.078 214.335 166.23 217.603 164.689 221.014C163.818 222.923 162.736 223.914 160.55 223.584C159.362 223.411 158.13 223.546 156.41 223.546C164.269 207.798 171.977 192.358 179.942 176.438ZM179.919 190.69C177.665 195.146 175.621 199.203 173.397 203.598C177.507 203.598 181.159 203.591 184.803 203.606C185.855 203.613 186.275 203.335 185.712 202.238C183.833 198.542 181.993 194.823 179.919 190.69Z" fill="#637381"/>
<path d="M273.588 201.097C273.588 194.38 273.633 187.663 273.558 180.953C273.543 179.39 273.956 178.767 275.602 178.819C280.913 178.97 286.255 178.722 291.552 179.12C300.794 179.804 305.753 186.506 303.408 194.86C302.011 199.812 298.232 202.058 293.461 202.975C289.667 203.704 285.812 203.516 281.98 203.546C280.282 203.553 279.734 204.049 279.771 205.792C279.884 210.932 279.651 216.086 279.869 221.225C279.989 224.02 278.314 223.569 276.713 223.554C275.136 223.546 273.445 224.087 273.528 221.255C273.723 214.53 273.588 207.814 273.588 201.097ZM279.809 191.119C279.809 192.779 279.809 194.425 279.809 196.085C279.809 196.882 279.779 197.768 280.928 197.731C284.918 197.618 288.96 198.287 292.882 197.175C295.895 196.326 297.646 193.891 297.586 191.014C297.525 188.174 295.58 185.92 292.567 185.123C290.516 184.582 288.419 184.672 286.338 184.665C279.809 184.642 279.809 184.657 279.809 191.119Z" fill="#637381"/>
<path d="M212.798 201.119C212.798 207.829 212.655 214.546 212.865 221.247C212.955 224.08 211.28 223.539 209.71 223.539C208.139 223.539 206.486 224.095 206.517 221.263C206.659 207.844 206.607 194.432 206.532 181.013C206.524 179.278 207.073 178.759 208.778 178.82C213.624 178.977 212.745 178.339 212.775 182.839C212.835 188.925 212.798 195.026 212.798 201.119Z" fill="#637381"/>
<path d="M158.896 245.042C219.597 245.042 280.297 245.042 341.005 245.042C341.005 245.103 341.005 245.178 341.005 245.238C280.327 245.238 219.642 245.238 158.957 245.238C158.934 245.17 158.912 245.11 158.896 245.042Z" fill="#637381"/>
<path d="M183.999 104.347C183.954 109.403 179.536 113.671 174.292 113.693C169.25 113.723 164.727 108.967 164.81 103.738C164.892 98.5088 169.355 94.4065 174.848 94.5041C179.949 94.5943 184.044 99.0047 183.999 104.347ZM174.494 111.372C178.371 111.417 181.625 108.396 181.745 104.655C181.88 100.613 178.274 96.6455 174.412 96.5854C170.55 96.5252 167.176 99.8386 167.206 103.663C167.237 107.818 170.55 111.327 174.494 111.372Z" fill="#637381"/>
<path d="M207.719 99.2004C203.263 103.445 197.824 102.521 196.321 97.4799C194.998 93.062 198.327 89.0649 202.933 89.5908C203.827 89.696 204.593 90.1994 205.232 88.8395C205.652 87.9454 206.704 88.1558 207.072 89.3805C208.177 93.0545 209.424 96.691 210.386 100.403C210.972 102.664 210.356 104.805 208.342 106.218C206.013 107.848 203.406 108.374 200.626 107.495C200.032 107.307 199.461 106.984 199.83 106.173C200.085 105.602 200.348 105.031 201.174 105.316C201.663 105.482 202.174 105.647 202.685 105.722C207.005 106.316 209.266 103.506 207.719 99.2004ZM202.549 91.3715C200.303 91.364 198.267 93.2949 198.237 95.4588C198.192 97.863 200.108 99.9067 202.429 99.9593C204.826 100.012 206.607 98.2988 206.622 95.9171C206.637 93.3776 204.856 91.3865 202.549 91.3715Z" fill="#637381"/>
<path d="M395.492 195.845C394.117 194.515 394.328 193.425 395.252 192.238C396.544 190.6 397.709 188.865 399.008 187.219C399.707 186.333 399.745 185.536 399.166 184.612C398.475 183.515 397.679 184.101 396.897 184.417C395.44 185.003 394.005 185.611 392.547 186.197C391.871 186.468 391.232 186.731 390.902 185.717C390.624 184.86 390.962 184.417 391.728 184.101C396.469 182.14 401.225 180.187 405.951 178.181C406.89 177.782 407.371 177.933 407.724 178.909C408.453 180.953 409.392 182.937 409.985 185.018C410.602 187.159 409.918 189 407.927 190.164C406.026 191.276 403.96 191.479 402.382 189.841C400.902 188.301 400.323 189.158 399.497 190.345C398.205 192.178 396.86 193.966 395.492 195.845ZM407.844 185.784C407.882 183.936 406.206 180.525 405.47 180.908C403.96 181.689 401.503 181.381 401.12 183.463C400.752 185.461 403.554 188.767 405.102 188.617C406.725 188.466 407.859 187.625 407.844 185.784Z" fill="#637381"/>
<path d="M99.8566 210.721C95.3336 206.747 90.8181 202.787 86.3025 198.843C85.6639 198.279 85.2957 197.693 85.6188 196.792C85.9118 195.995 86.5054 195.83 87.2417 195.755C92.6137 195.244 97.9933 194.703 103.365 194.237C103.996 194.184 105.131 193.613 105.191 194.868C105.236 195.702 104.778 196.776 103.666 196.604C99.8942 196.01 99.1954 198.58 98.5794 201.315C98.4667 201.825 98.3239 202.344 98.0985 202.802C97.1969 204.643 97.5049 206.086 99.3081 207.228C100.608 208.039 101.397 209.128 99.8566 210.721ZM88.4288 197.903C90.8406 199.97 92.6062 201.502 94.4019 202.99C94.7551 203.291 95.3862 203.892 95.6792 203.193C96.3779 201.517 96.8888 199.767 97.4223 198.031C97.5876 197.505 97.2119 197.257 96.701 197.235C96.5282 197.227 96.3479 197.205 96.1826 197.227C93.876 197.415 91.5694 197.625 88.4288 197.903Z" fill="#637381"/>
<path d="M96.5431 267.094C96.6408 268.281 96.0548 268.258 95.2508 267.973C89.8412 266.012 84.4091 264.103 79.0295 262.075C77.5794 261.534 77.5494 259.851 78.9469 259.122C83.823 256.582 88.7368 254.126 93.6505 251.669C94.1764 251.406 94.9278 250.579 95.3786 251.571C95.7242 252.315 95.8294 253.51 94.7099 253.78C90.8856 254.712 91.5618 257.454 91.6519 260.287C91.7346 263.006 92.0727 265.08 95.2508 265.523C96.0698 265.636 96.7009 266.154 96.5431 267.094ZM80.9229 260.534C83.7629 261.541 86.0169 262.368 88.2784 263.127C88.7292 263.277 89.5557 263.525 89.5858 262.871C89.6684 261.068 89.5182 259.25 89.3979 257.447C89.3604 256.913 88.9096 256.8 88.4212 256.943C88.2559 256.996 88.0981 257.056 87.9403 257.131C85.799 258.175 83.6502 259.205 80.9229 260.534Z" fill="#637381"/>
<path d="M401.781 215.199C399.993 215.522 398.22 215.815 396.462 216.161C395.725 216.311 395.057 216.469 394.816 215.499C394.516 214.357 395.32 214.192 396.131 214.042C400.917 213.133 405.703 212.239 410.489 211.307C411.962 211.014 412.886 211.367 412.06 212.967C411.654 213.756 411.999 214.004 412.323 214.5C414.389 217.716 414.283 220.548 412.052 222.795C409.986 224.876 406.642 225.319 404.118 223.862C401.443 222.322 400.707 219.707 401.864 215.89C401.879 215.747 401.811 215.575 401.781 215.199ZM411.804 218.294C411.842 216.123 409.911 214.102 407.724 214.027C405.245 213.937 402.998 215.928 402.991 218.227C402.983 220.533 404.742 222.352 407.063 222.412C409.685 222.479 411.767 220.676 411.804 218.294Z" fill="#637381"/>
<path d="M112.968 177.001C112.727 180.104 111.69 182.253 109.564 183.763C108.865 184.267 107.949 185.281 107.16 184.004C106.521 182.967 107.152 182.321 108.197 181.81C109.699 181.074 110.518 179.744 110.699 178.068C110.841 176.738 110.376 175.664 109.181 174.98C108.024 174.312 106.957 174.687 106.04 175.454C105.041 176.295 104.162 177.279 103.2 178.151C100.976 180.15 98.9703 180.42 96.8064 178.955C94.6426 177.482 94.1993 175.401 94.8229 172.967C95.2962 171.111 96.273 169.593 97.9109 168.602C98.4443 168.278 99.1882 167.339 99.8118 168.609C100.217 169.435 100.217 170.044 99.2182 170.495C97.7381 171.164 97.0468 172.448 96.844 174.011C96.6862 175.221 96.9943 176.258 98.1062 176.934C99.2257 177.618 100.278 177.445 101.239 176.618C102.554 175.476 103.779 174.237 105.139 173.147C106.724 171.87 108.497 171.787 110.27 172.786C112.096 173.823 113.005 175.409 112.968 177.001Z" fill="#637381"/>
<path d="M337.316 118.157C338.248 118.165 339.661 117.413 339.631 119.164C339.6 120.749 338.068 120.276 337.211 120.321C333.011 120.531 328.804 117 328.12 112.83C327.339 108.097 330.284 103.243 334.845 101.725C338.819 100.411 343.725 102.319 345.596 106.016C345.972 106.759 346.918 107.841 345.769 108.502C344.649 109.141 344.048 108.352 343.553 107.173C342.493 104.648 339.691 103.191 337.211 103.559C333.958 104.047 331.155 106.662 330.562 109.757C329.675 114.476 332.756 118.307 337.316 118.157Z" fill="#637381"/>
<path d="M97.0317 231.368C97.0167 235.651 94.9881 238.799 91.5695 240.196C87.8278 241.736 83.4025 240.91 80.6376 238.145C78.1056 235.621 77.2866 231.526 78.7141 228.19C79.0597 227.401 79.5181 226.627 80.0891 225.981C80.5249 225.478 80.9907 224.456 81.9374 225.402C82.7188 226.176 82.5159 226.762 81.8322 227.604C79.4054 230.602 79.5782 233.682 82.1402 236.244C84.8676 238.972 89.1352 239.385 92.2081 237.221C94.9355 235.297 95.7695 231.653 94.1391 228.581C93.6582 227.679 92.6139 226.65 94.0564 225.973C95.3637 225.365 95.7018 226.852 96.1902 227.671C96.919 228.919 97.1745 230.294 97.0317 231.368Z" fill="#637381"/>
<path d="M91.3062 213.554C91.2987 213.727 91.2686 213.907 91.2761 214.08C91.3738 215.545 89.8937 217.326 90.9756 218.288C92.0801 219.264 94.0335 219.272 95.6264 219.693C95.957 219.783 96.3251 219.76 96.6557 219.865C97.4296 220.106 98.504 220.023 98.1133 221.436C97.7677 222.653 96.9713 222.225 96.2425 222.074C92.0575 221.225 87.8801 220.391 83.7027 219.49C80.0962 218.708 80.0887 218.671 80.9002 214.967C81.1556 213.78 81.4186 212.57 81.8769 211.45C83.034 208.625 84.9123 207.641 87.6547 208.265C90.104 208.828 91.3588 210.654 91.3062 213.554ZM89.1949 214.185C89.2851 211.939 88.2558 210.609 86.5127 210.481C84.5592 210.338 82.8987 212.465 82.9814 215.71C83.0415 218.295 85.566 217.544 86.971 217.701C89.9087 218.047 88.2933 215.154 89.1949 214.185Z" fill="#637381"/>
<path d="M113.253 157.91C113.771 157.955 114.305 157.947 114.808 158.06C117.498 158.684 117.768 159.36 116.288 161.711C115.311 163.267 114.342 164.807 113.35 166.34C112.509 167.655 113.125 167.978 114.395 167.985C116.671 168.015 118.264 166.445 118.49 163.808C118.572 162.884 118.189 161.591 119.677 161.742C120.841 161.854 120.526 163.094 120.518 163.898C120.503 166.723 118.422 169.368 115.762 170.081C113.133 170.773 109.849 169.285 108.429 166.738C107.174 164.476 107.633 161.433 109.526 159.503C110.555 158.481 111.743 157.835 113.253 157.91ZM109.624 163.687C109.684 164.702 109.879 165.844 110.841 166.114C111.682 166.355 111.908 165.175 112.344 164.559C112.847 163.845 113.395 163.139 113.704 162.343C113.974 161.651 115.341 161.02 114.245 160.201C113.478 159.63 112.389 159.848 111.532 160.427C110.383 161.223 109.797 162.358 109.624 163.687Z" fill="#637381"/>
<path d="M153.675 125.234C155.929 124.956 157.327 123.837 157.822 121.718C157.995 120.982 158.438 120.711 159.152 120.846C160.046 121.034 159.836 121.703 159.761 122.297C159.46 124.663 156.462 127.233 153.818 127.421C151.181 127.593 148.273 125.415 147.394 122.582C146.545 119.855 147.77 116.864 150.332 115.459C152.834 114.084 155.351 114.64 157.379 116.827C158.303 117.819 158.13 118.352 157.124 119.051C155.621 120.095 154.171 121.207 152.751 122.357C152.18 122.815 151.12 123.146 151.391 124.055C151.714 125.122 152.886 125.016 153.675 125.234ZM149.655 122.372C151.346 121.109 152.864 119.96 154.396 118.84C155.508 118.021 155.14 117.496 154.133 116.985C152.721 116.263 151.564 116.879 150.534 117.728C149.205 118.825 148.739 120.23 149.655 122.372Z" fill="#637381"/>
<path d="M397.243 203.088C397.228 199.625 399.482 197.16 402.72 196.694C406.131 196.206 408.813 197.919 409.7 201.172C410.481 204.028 409.197 206.477 406.432 207.784C405.012 208.453 404.403 208.107 404.027 206.65C403.524 204.711 402.893 202.803 402.284 200.894C402.134 200.421 401.909 199.73 401.563 199.625C400.939 199.422 400.481 200.045 400.098 200.519C398.738 202.209 398.963 204.328 400.767 206.154C401.36 206.77 402.45 207.296 401.653 208.22C400.729 209.279 399.902 208.13 399.279 207.596C397.806 206.349 397.37 204.561 397.243 203.088ZM407.994 202.615C407.799 201.533 407.559 200.519 406.777 199.73C406.063 199.009 405.139 198.355 404.238 198.806C403.156 199.362 404.125 200.323 404.29 201.075C404.561 202.262 404.974 203.419 405.327 204.584C405.68 205.741 406.289 205.635 407.01 204.914C407.664 204.283 407.934 203.472 407.994 202.615Z" fill="#637381"/>
<path d="M266.668 87.8778C267.292 87.5773 268.862 88.817 268.945 87.0739C269.012 85.5712 267.622 85.2181 266.338 85.0754C265.361 84.9702 264.437 85.158 263.55 85.5863C262.829 85.9394 262.378 85.5938 262.13 84.9401C261.875 84.2789 262.355 83.9634 262.829 83.7455C265.023 82.7537 267.247 82.6936 269.365 83.8958C271.116 84.895 271.349 86.6381 271.206 88.4564C271.048 90.4549 270.853 92.446 270.688 94.4445C270.628 95.1733 270.32 96.2402 269.598 95.7143C268.133 94.6323 266.863 95.4513 265.496 95.564C262.889 95.7669 260.793 94.422 260.507 92.3708C260.184 90.0642 261.702 88.4413 264.632 88.0131C265.226 87.9379 265.842 87.9379 266.668 87.8778ZM266.375 89.7487C264.677 89.8163 262.874 89.7787 262.739 91.89C262.633 93.4152 264.061 93.866 265.293 93.881C267.164 93.9186 268.546 92.8817 268.734 91.0334C268.922 89.0725 267.119 90.1544 266.375 89.7487Z" fill="#637381"/>
<path d="M389.82 160.194C389.813 163.612 386.987 166.354 383.434 166.392C380.008 166.43 377.062 163.439 377.01 159.87C376.965 156.474 380.105 153.394 383.546 153.431C386.882 153.492 389.828 156.662 389.82 160.194ZM387.799 159.84C387.746 157.564 385.876 155.716 383.606 155.738C381.255 155.746 378.926 157.977 378.986 160.148C379.038 162.297 381.097 164.303 383.216 164.273C385.613 164.228 387.844 162.064 387.799 159.84Z" fill="#637381"/>
<path d="M297.646 102.094C293.919 102.063 290.967 99.2685 291.019 95.8048C291.079 92.2285 293.799 89.411 297.218 89.3884C300.974 89.3584 303.912 92.0557 303.942 95.5494C303.98 99.276 301.252 102.109 297.646 102.094ZM301.763 95.4592C301.718 93.2202 299.81 91.402 297.518 91.387C295.099 91.3795 293.281 93.4156 293.356 96.0678C293.409 98.3744 295.227 100.178 297.511 100.208C299.727 100.215 301.816 97.9011 301.763 95.4592Z" fill="#637381"/>
<path d="M409.7 240.73C405.883 240.761 403.449 238.259 403.434 234.322C403.419 230.602 406.124 227.905 409.828 227.95C413.374 227.995 415.929 230.633 416.012 234.322C416.079 238.116 413.54 240.708 409.7 240.73ZM409.753 230.189C407.228 230.197 405.41 231.932 405.41 234.337C405.41 236.876 407.138 238.619 409.625 238.574C412.157 238.537 414.013 236.793 414.028 234.419C414.066 232 412.232 230.189 409.753 230.189Z" fill="#637381"/>
<path d="M349.127 129.209C345.506 129.157 342.606 126.249 342.674 122.718C342.741 119.224 345.634 116.407 349.075 116.474C352.651 116.542 355.581 119.51 355.551 123.034C355.544 126.49 352.644 129.262 349.127 129.209ZM353.418 122.71C353.47 120.554 351.494 118.556 349.293 118.533C347.016 118.518 344.8 120.719 344.77 123.034C344.732 125.175 346.708 127.158 348.925 127.218C351.171 127.279 353.358 125.092 353.418 122.71Z" fill="#637381"/>
<path d="M212.79 94.7609C213.068 92.0111 215.217 91.2522 217.388 90.4257C218.282 90.0952 220.183 90.6286 219.785 88.9156C219.387 87.225 217.689 87.3753 216.269 87.7435C215.78 87.8637 215.292 88.1267 214.856 88.4122C214.082 88.9005 213.241 89.9524 212.497 88.6601C211.903 87.6157 213.121 87.1875 213.767 86.7592C217.719 84.0995 221.265 85.5195 222.362 90.1703C222.783 91.951 223.106 93.7466 223.579 95.5123C223.895 96.6693 222.895 97.293 222.467 96.9248C221.107 95.7677 220.596 97.03 219.777 97.5184C218.094 98.5176 216.299 98.6378 214.533 97.8339C213.301 97.2629 212.94 96.0532 212.79 94.7609ZM217.29 96.5566C219.146 96.2787 220.551 95.4897 220.702 93.3635C220.762 92.4093 220.604 91.5603 219.319 91.8383C217.584 92.2214 215.487 92.274 215.112 94.528C214.879 95.8654 216.006 96.4364 217.29 96.5566Z" fill="#637381"/>
<path d="M318.12 100.342C317.661 102.754 316.234 105.279 315.144 107.931C314.904 108.509 314.476 108.66 313.875 108.359C313.213 108.044 312.943 107.668 313.281 106.932C314.055 105.181 314.761 103.4 315.528 101.635C316.256 99.9516 316.489 98.3437 314.528 97.3896C312.657 96.4804 311.027 97.1266 310.035 98.8246C309.111 100.395 308.518 102.146 307.774 103.813C307.466 104.49 307.368 105.504 306.234 105.106C305.167 104.73 305.452 103.941 305.768 103.167C306.932 100.35 308.097 97.5323 309.231 94.6998C309.547 93.9184 310.434 93.3173 310.697 94.001C311.515 96.0973 313.176 94.9853 314.423 95.2783C316.94 95.9019 318.262 97.4572 318.12 100.342Z" fill="#637381"/>
<path d="M229.169 89.291C229.342 91.3196 229.485 92.9651 229.635 94.6105C229.695 95.2566 229.695 95.8577 228.846 95.9779C227.892 96.1132 227.651 95.5496 227.569 94.7532C227.216 91.6427 226.84 88.5247 226.472 85.4216C226.374 84.6177 226.787 83.6785 227.479 84.1744C228.944 85.2188 229.718 84.1143 230.769 83.6184C233.662 82.2585 236.615 83.6184 237.216 86.7064C237.667 89.0055 237.794 91.3722 238.065 93.7014C238.132 94.34 238.148 94.9411 237.268 95.0312C236.374 95.1364 236.006 94.7006 235.916 93.8667C235.751 92.2212 235.54 90.5758 235.36 88.9379C235.165 87.0445 234.939 85.1211 232.4 85.1587C230.273 85.1962 229.041 87.0145 229.169 89.291Z" fill="#637381"/>
<path d="M367.355 132.432C367.362 134.168 366.273 135.317 365.183 136.459C363.974 137.722 362.757 138.961 361.562 140.239C361.043 140.795 360.63 141.23 359.849 140.517C359.067 139.803 359.481 139.352 359.999 138.804C361.321 137.421 362.636 136.016 363.944 134.611C365.108 133.364 365.882 132.019 364.424 130.501C363.08 129.104 361.442 128.931 359.947 130.096C358.444 131.268 357.159 132.718 355.784 134.048C355.161 134.656 354.559 135.498 353.665 134.453C352.839 133.492 353.906 133.048 354.349 132.56C356.348 130.374 358.421 128.247 360.45 126.091C360.871 125.64 361.75 125.009 361.832 125.715C362.133 128.195 364.567 127.804 365.769 129.006C366.724 129.968 367.407 131.02 367.355 132.432Z" fill="#637381"/>
<path d="M415.455 268.372C415.418 269.611 415.11 270.941 413.998 271.956C413.539 272.369 413.036 272.887 412.48 272.143C412.134 271.685 411.691 271.144 412.33 270.528C412.638 270.228 413.006 269.912 413.164 269.536C413.652 268.349 413.96 266.952 412.502 266.381C411.143 265.847 410.865 267.26 410.444 268.184C410.406 268.267 410.384 268.349 410.354 268.432C409.685 270.37 409.031 272.361 406.454 272.331C404.921 272.316 403.704 271.527 403.253 270.062C402.562 267.793 402.682 265.554 404.396 263.691C404.809 263.233 405.35 262.474 406.116 263.293C406.68 263.901 406.702 264.51 406.026 265.096C405.492 265.562 405.087 266.163 405.012 266.877C404.891 268.011 404.696 269.333 406.011 269.837C407.544 270.43 407.882 269.063 408.325 268.034C408.535 267.553 408.693 267.049 408.911 266.576C409.632 264.968 410.549 263.548 412.623 264.022C414.749 264.532 415.47 266.125 415.455 268.372Z" fill="#637381"/>
<path d="M254.97 84.3617C252.709 84.3617 251.153 84.3692 249.613 84.3542C249.08 84.3467 248.524 84.2565 248.464 83.5803C248.373 82.7238 249.005 82.5811 249.651 82.5811C251.822 82.5811 254.001 82.6186 256.165 82.6336C258.254 82.6487 258.088 83.7456 257.157 84.9553C255.564 87.0139 253.836 88.9749 252.19 90.996C251.83 91.4318 251.153 91.8676 251.544 92.5363C251.837 93.0397 252.476 92.8293 252.979 92.8443C254.114 92.8744 255.233 92.927 256.368 92.9645C256.976 92.9946 257.69 92.9345 257.668 93.821C257.652 94.4972 257.074 94.6024 256.525 94.5949C254.009 94.5799 251.469 94.7001 248.967 94.4597C247.126 94.2869 247.863 93.0397 248.516 92.2207C250.447 89.8014 252.453 87.4272 254.97 84.3617Z" fill="#637381"/>
<path d="M410.031 255.554C410.812 255.614 411.601 255.637 412.375 255.742C413.487 255.892 414.509 255.982 414.524 254.375C414.531 253.841 414.741 253.315 415.448 253.375C416.116 253.428 416.334 253.969 416.274 254.487C416.116 255.952 417.071 255.975 418.07 256.013C418.904 256.043 419.708 256.103 419.527 257.275C419.377 258.206 418.724 258.357 417.965 258.161C416.064 257.68 416.004 258.913 415.959 260.228C415.944 260.844 415.914 261.527 415.034 261.497C414.14 261.467 414.125 260.761 414.231 260.175C414.576 258.214 413.569 257.778 411.871 257.868C410.752 257.928 409.617 257.763 408.483 257.703C406.837 257.613 405.417 257.816 405.665 260.017C405.748 260.663 405.583 261.009 404.884 261.016C404.238 261.024 404.012 260.611 403.817 260.085C403.028 257.951 404.351 255.735 406.642 255.509C407.762 255.396 408.904 255.494 410.031 255.494C410.031 255.502 410.031 255.524 410.031 255.554Z" fill="#637381"/>
<path d="M136.807 129.352C136.77 126.61 138.873 123.905 141.638 123.259C142.307 123.101 143.269 122.493 143.547 123.747C143.772 124.747 143.028 124.972 142.202 125.273C138.528 126.595 137.799 129.728 140.489 132.29C142.75 134.446 145.861 133.906 147.138 131.035C147.506 130.201 147.641 129.18 148.813 129.736C149.918 130.269 149.294 131.268 148.979 132.012C147.889 134.544 144.659 136.25 142.097 135.701C139.219 135.1 136.852 132.253 136.807 129.352Z" fill="#637381"/>
<path d="M130.797 146.685C129.226 143.785 128.062 141.561 126.83 139.374C126.311 138.443 125.943 137.429 127.048 136.91C128.302 136.324 128.257 137.782 128.61 138.398C130.098 141.042 131.458 143.762 132.923 146.422C133.336 147.173 133.547 147.752 132.893 148.518C132.262 149.255 131.623 149.262 130.812 148.984C127.769 147.955 124.718 146.971 121.683 145.904C121.112 145.701 119.797 145.941 120.391 144.611C120.774 143.755 121.473 143.394 122.532 143.785C125.034 144.739 127.566 145.566 130.797 146.685Z" fill="#637381"/>
<path d="M279.922 83.6997C279.418 85.1723 280.395 85.4503 281.545 85.6006C282.236 85.6908 283.085 85.7433 282.89 86.7501C282.687 87.8095 281.793 87.4414 281.199 87.2686C279.681 86.8403 279.17 87.5466 278.998 88.9065C278.81 90.2814 278.487 91.6413 278.261 93.0088C278.013 94.4664 278.201 95.6685 280.057 95.7737C280.681 95.8112 281.357 95.8188 281.214 96.7354C281.101 97.4867 280.538 97.6145 279.869 97.6746C277.247 97.915 275.707 96.3823 276.007 93.7376C276.158 92.4378 276.526 91.168 276.638 89.8757C276.759 88.4632 278.111 86.5247 275.279 86.1416C274.88 86.089 274.813 85.6306 274.88 85.285C275.016 84.6163 275.519 84.5112 276.075 84.6088C277.127 84.7967 277.713 84.4961 277.811 83.3165C277.878 82.4825 277.946 81.4081 279.283 81.7312C280.463 82.0242 280.057 82.9033 279.922 83.6997Z" fill="#637381"/>
<path d="M371.742 138.593C371.284 137.872 371.134 137.556 370.916 137.301C370.435 136.737 369.984 136.211 370.811 135.572C371.562 134.979 371.908 135.655 372.276 136.076C373.147 137.053 373.779 136.452 374.447 135.828C375.018 135.309 375.559 134.626 376.371 135.587C377.047 136.391 376.543 136.88 375.957 137.278C374.597 138.21 374.613 139.096 375.852 140.126C376.341 140.539 377.017 141.087 376.13 141.809C375.259 142.507 374.808 141.703 374.462 141.223C373.463 139.802 372.606 140.065 371.577 141.185C370.878 141.951 370.037 142.59 369.248 143.266C367.843 144.476 366.468 145.678 368.609 147.421C369.015 147.744 369.113 148.105 368.745 148.518C368.361 148.946 367.948 149.044 367.362 148.811C365.191 147.932 364.424 145.197 366.047 143.454C367.347 142.056 368.835 140.839 370.277 139.577C370.721 139.186 371.262 138.908 371.742 138.593Z" fill="#637381"/>
<path d="M86.543 247.756C84.1087 247.756 81.6743 247.763 79.24 247.756C78.4511 247.756 77.6321 247.793 77.6472 246.598C77.6547 245.449 78.376 245.411 79.2175 245.426C84.1688 245.479 89.1351 245.532 94.0864 245.562C95.0181 245.569 95.8596 245.569 95.7769 246.884C95.7093 248.094 94.8903 247.921 94.1014 247.921C91.5769 247.913 89.06 247.921 86.5355 247.921C86.543 247.861 86.543 247.808 86.543 247.756Z" fill="#637381"/>
<path d="M401.308 163.763C401.338 164.589 400.632 164.725 400.136 165.01C395.523 167.655 390.902 170.292 386.281 172.922C385.53 173.35 384.726 173.913 384.14 172.674C383.576 171.487 384.666 171.374 385.259 171.036C389.79 168.421 394.343 165.844 398.889 163.252C399.873 162.688 400.805 162.2 401.308 163.763Z" fill="#637381"/>
<path d="M187.5 94.9929C189.131 96.0523 189.033 94.1364 189.829 93.7983C190.626 93.4752 191.309 92.1679 192.226 93.1897C193.158 94.2415 192.196 94.7224 191.272 95.2408C189.551 96.2025 189.364 97.8179 189.957 99.5385C190.491 101.094 191.167 102.596 191.708 104.159C191.933 104.805 192.594 105.572 191.43 106.12C190.243 106.676 190.1 105.714 189.822 105.068C188.657 102.273 187.575 99.4408 186.396 96.6383C185.81 95.2784 186.381 94.9478 187.5 94.9929Z" fill="#637381"/>
<path d="M119.827 147.97C119.707 148.278 119.677 148.451 119.579 148.586C117.265 151.532 119.384 153.147 121.45 154.747C122.479 155.551 123.539 156.31 124.59 157.076C125.161 157.49 125.409 157.91 124.936 158.594C124.5 159.225 124.08 159.33 123.433 158.857C120.789 156.896 118.114 154.958 115.447 153.012C114.988 152.681 114.568 151.9 115.048 151.787C117.37 151.261 116.739 149 117.671 147.692C117.986 147.241 118.347 146.836 118.94 147.189C119.286 147.407 119.556 147.73 119.827 147.97Z" fill="#637381"/>
<path d="M383.156 148.751C383.261 149.359 382.885 149.585 382.517 149.81C382.119 150.058 381.713 150.163 381.367 149.727C378.963 146.73 376.852 148.412 374.718 150.126C373.771 150.892 372.795 151.613 371.841 152.365C371.262 152.815 370.759 152.793 370.278 152.199C369.744 151.531 370.075 151.095 370.601 150.682C373.178 148.623 375.747 146.557 378.325 144.498C378.693 144.205 379.391 144.047 379.406 144.46C379.459 146.729 381.683 146.91 382.765 148.15C382.938 148.36 383.05 148.585 383.156 148.751Z" fill="#637381"/>
<path d="M410.549 244.72C412.022 244.72 413.502 244.735 414.975 244.713C415.636 244.705 416.605 245.036 416.214 245.509C414.937 247.027 416.071 248.116 416.455 249.401C416.673 250.137 417.078 251.249 415.688 251.437C414.524 251.587 414.584 250.693 414.516 249.874C414.343 247.831 412.946 247.072 411.143 246.952C409.415 246.846 407.672 246.914 405.936 246.891C405.237 246.884 404.486 246.921 404.463 245.892C404.433 244.878 405.14 244.833 405.868 244.833C407.431 244.833 409.001 244.833 410.557 244.833C410.549 244.803 410.549 244.765 410.549 244.72Z" fill="#637381"/>
<path d="M131.142 132.147C131.916 132.778 132.329 133.079 132.683 133.424C134.786 135.475 136.89 137.527 138.979 139.608C139.43 140.059 140.219 140.397 139.497 141.276C138.768 142.17 138.19 141.787 137.574 141.186C135.335 139.022 133.103 136.85 130.872 134.679C130.496 134.311 130.106 133.95 130.459 133.349C130.684 132.981 130.887 132.59 131.142 132.147Z" fill="#637381"/>
<path d="M288.54 88.0961C287.758 91.3043 286.954 94.6703 286.12 98.0438C285.955 98.72 285.422 98.7275 284.881 98.5997C284.415 98.487 284.047 98.164 284.152 97.6756C284.896 94.2871 285.67 90.9061 286.466 87.5326C286.609 86.9165 287.127 86.7887 287.706 86.8864C288.307 86.9691 288.652 87.2846 288.54 88.0961Z" fill="#637381"/>
<path d="M244.587 88.8166C244.587 90.2892 244.579 91.7543 244.587 93.2269C244.594 93.9632 244.549 94.6545 243.61 94.7672C242.596 94.8874 242.505 94.1436 242.468 93.4223C242.333 90.3117 242.22 87.1937 242.107 84.0832C242.077 83.3393 242.212 82.6556 243.189 82.6707C244.203 82.6857 244.173 83.437 244.173 84.1433C244.173 85.6985 244.173 87.2538 244.173 88.8091C244.324 88.8166 244.451 88.8166 244.587 88.8166Z" fill="#637381"/>
<path d="M288.592 80.958C289.502 80.9881 290.118 81.4088 290.163 82.333C290.215 83.2872 289.599 83.7605 288.713 83.8056C287.909 83.8431 287.383 83.3397 287.285 82.5809C287.165 81.6718 287.728 81.1534 288.592 80.958Z" fill="#637381"/>
<path d="M128.926 129.704C128.791 130.651 128.34 131.214 127.393 131.207C126.439 131.199 125.966 130.621 125.981 129.704C125.996 128.885 126.544 128.412 127.311 128.382C128.212 128.344 128.746 128.878 128.926 129.704Z" fill="#637381"/>
<path d="M244.278 77.9151C244.278 78.7716 243.978 79.3501 243.129 79.4403C242.22 79.5379 241.566 79.1623 241.506 78.1855C241.446 77.2313 241.979 76.7279 242.919 76.7054C243.783 76.6904 244.173 77.2013 244.278 77.9151Z" fill="#637381"/>
<path d="M319.097 396.67C321.726 398.42 324.168 400.066 326.67 401.741C324.484 403.68 322.545 403.935 320.426 401.914C319.232 400.779 317.759 399.961 316.429 398.969C315.55 398.323 314.746 398.661 314.033 399.194C313.229 399.81 313.935 400.456 314.183 401.042C314.694 402.245 315.272 403.417 315.843 404.596C316.384 405.716 317.015 406.625 315.197 407.436C313.499 408.203 313.131 407.451 312.567 406.189C310.554 401.659 308.518 397.113 306.354 392.65C305.678 391.253 305.941 390.674 307.286 390.148C309.156 389.412 310.937 388.48 312.8 387.744C316.174 386.421 318.623 386.857 320.156 388.946C321.869 391.298 321.613 393.507 319.097 396.67ZM315.407 390.253C313.972 390.201 310.126 392.079 310.411 392.605C311.095 393.912 310.997 395.918 312.725 396.339C314.213 396.707 317.594 393.875 317.534 392.597C317.459 391.192 316.647 390.389 315.407 390.253Z" fill="#637381"/>
<path d="M161.166 381.943C161.151 384.204 159.926 385.609 158.814 387.052C157.913 388.224 156.958 389.358 156.087 390.561C155.403 391.5 154.9 392.093 153.66 391.087C152.51 390.147 152.353 389.531 153.344 388.412C154.554 387.044 155.613 385.542 156.718 384.092C157.657 382.852 158.048 381.605 156.598 380.463C155.245 379.403 153.908 379.689 152.864 380.838C151.519 382.318 150.279 383.904 149.152 385.557C148.228 386.902 147.567 386.24 146.643 385.617C145.538 384.865 145.658 384.234 146.425 383.318C147.664 381.853 148.799 380.32 149.971 378.795C150.827 377.675 151.353 376.473 149.986 375.369C148.626 374.272 147.206 374.317 146.041 375.639C144.779 377.074 143.585 378.584 142.48 380.147C141.684 381.289 141.053 381.244 139.971 380.455C138.799 379.599 138.919 378.967 139.73 377.968C141.714 375.541 143.682 373.092 145.493 370.53C146.522 369.072 147.739 369.486 148.078 370.515C148.701 372.356 150.144 372.341 151.481 372.837C152.465 373.212 153.57 373.919 153.78 374.85C154.284 377.052 155.659 377.487 157.62 377.886C159.708 378.314 161.008 379.967 161.166 381.943Z" fill="#637381"/>
<path d="M245.744 420.608C242.889 421.142 241.13 420.413 240.755 417.655C240.567 416.341 239.763 415.995 238.583 415.965C237.539 415.935 236.487 415.852 235.465 415.664C233.106 415.236 231.356 415.582 230.439 418.241C229.65 420.541 227.667 418.955 225.766 419.338C229.109 413.26 232.205 407.535 235.413 401.877C236.194 400.502 238.726 400.976 239.312 402.576C241.499 408.557 243.587 414.545 245.744 420.608ZM237.126 406.047C235.886 406.723 235.698 407.978 235.202 409C233.354 412.869 233.362 412.817 237.652 412.922C238.959 412.96 239.177 412.606 238.786 411.457C238.208 409.721 237.712 407.956 237.126 406.047Z" fill="#637381"/>
<path d="M300.238 407.76C300.193 411.328 298.45 413.748 295.294 414.589C292.086 415.446 289.411 414.326 287.563 411.231C285.872 408.398 285.053 405.303 285.196 401.997C285.331 398.856 287.082 396.647 289.952 395.836C292.897 394.994 295.459 395.889 297.33 398.406C298.931 400.562 300.268 404.859 300.238 407.76ZM296.797 407.594C296.601 404.957 295.955 402.455 294.392 400.284C293.513 399.059 292.311 398.413 290.771 398.924C289.359 399.39 288.742 400.517 288.667 401.922C288.502 404.597 289.156 407.114 290.493 409.413C291.35 410.893 292.492 412.125 294.483 411.531C296.444 410.945 296.707 409.315 296.797 407.594Z" fill="#637381"/>
<path d="M376.995 359.035C375.282 358.629 373.884 357.397 372.569 356.165C370.728 354.452 369.211 353.836 367.911 356.638C367.768 356.939 367.438 357.141 367.22 357.404C365.311 359.613 365.379 360.906 367.55 362.964C368.557 363.918 369.601 364.85 370.653 365.767C371.48 366.496 372.171 367.014 370.976 368.194C369.962 369.208 369.391 369.433 368.294 368.359C366.183 366.293 363.929 364.354 361.742 362.356C360.232 360.973 360.27 359.26 362.103 358.945C363.779 358.652 363.666 357.78 363.936 356.773C364.289 355.503 365.409 354.887 366.281 354.046C367.31 353.062 367.806 352.092 366.19 351.206C364.861 350.47 364.966 349.696 365.837 348.561C366.769 347.351 367.468 347.614 368.309 348.501C369.346 349.59 370.187 349.44 370.931 348.17C371.465 347.269 371.998 346.735 373.17 347.614C374.372 348.524 373.899 349.185 373.17 349.906C372.133 350.943 372.164 351.747 373.463 352.566C374.418 353.174 375.282 353.926 376.138 354.654C377.288 355.639 378.309 355.699 379.181 354.331C379.602 353.67 379.812 352.859 380.871 353.7C381.766 354.422 382.074 355 381.412 356.082C380.3 357.945 378.617 359.208 376.995 359.035Z" fill="#637381"/>
<path d="M345.168 389.149C346.513 390.967 347.489 392.485 348.669 393.837C349.653 394.972 348.947 395.408 348.143 396.039C347.294 396.685 346.678 397.098 345.837 395.934C342.734 391.629 339.585 387.361 336.37 383.138C334.882 381.192 337.144 380.351 337.632 380.464C339.398 380.862 339.428 379.615 339.976 378.698C341.434 376.271 344.552 375.069 347.211 375.828C350.239 376.699 352.321 379.675 352.215 382.966C352.125 385.806 350.082 388.232 347.227 388.879C346.731 388.984 346.212 389.006 345.168 389.149ZM344.927 386.602C346.873 386.632 348.872 384.716 348.902 382.808C348.932 380.854 346.971 378.923 345.01 378.969C343.027 379.021 341.141 380.96 341.186 382.913C341.238 384.821 343.019 386.587 344.927 386.602Z" fill="#637381"/>
<path d="M220.566 398.556C222.234 398.698 223.902 398.939 225.27 399.961C225.961 400.472 227.652 400.847 226.615 402.109C225.938 402.913 224.796 404.611 223.256 402.748C222.625 401.982 221.581 401.839 220.627 401.749C219.417 401.636 218.327 401.914 217.832 403.169C217.276 404.536 218.2 405.303 219.184 405.919C220.356 406.663 221.618 407.279 222.805 408.015C224.684 409.187 225.555 410.885 225.232 413.117C224.902 415.378 223.73 417.054 221.506 417.73C218.282 418.691 215.269 418.053 212.64 415.987C212.031 415.513 210.649 414.785 211.873 413.823C212.662 413.207 213.639 411.561 215.082 413.372C216.149 414.724 217.719 415.356 219.53 414.807C221.671 414.161 222.137 412.358 220.454 410.885C219.612 410.149 218.568 409.638 217.584 409.082C214.36 407.241 213.301 405.355 214.037 402.62C214.751 399.916 217.185 398.405 220.566 398.556Z" fill="#637381"/>
<path d="M253.603 420.968C251.574 421.006 250.154 420.856 248.967 420.097C248.246 419.638 246.54 419.451 247.509 418.031C248.156 417.084 248.997 415.408 250.748 417.069C251.582 417.858 252.806 417.97 253.963 417.79C255.233 417.587 256.375 417.076 256.623 415.671C256.879 414.169 255.834 413.47 254.617 413.027C253.235 412.516 251.792 412.148 250.41 411.622C248.539 410.908 247.449 409.571 247.292 407.519C247.119 405.31 247.885 403.537 249.801 402.44C252.528 400.878 255.421 400.667 258.321 401.952C258.915 402.215 260.267 402.485 259.516 403.417C258.892 404.191 258.531 406.167 256.638 405.032C256.06 404.679 255.368 404.394 254.7 404.334C253.144 404.191 251.552 404.469 251.123 406.205C250.673 408 252.153 408.556 253.55 408.977C254.459 409.255 255.383 409.533 256.278 409.856C259.418 410.976 260.59 412.538 260.44 415.371C260.297 418.038 258.456 420.134 255.594 420.78C254.745 420.931 253.858 420.946 253.603 420.968Z" fill="#637381"/>
<path d="M123.651 350.71C122.832 350.762 122.659 350.191 122.374 349.786C121.052 347.952 120.075 345.21 118.317 344.541C116.656 343.918 114.785 346.487 113.012 347.659C111.652 348.553 111.397 347.486 110.856 346.765C110.33 346.066 109.699 345.465 110.871 344.669C115.424 341.604 119.932 338.47 124.425 335.322C125.357 334.676 125.778 335.082 126.281 335.841C128.077 338.516 129.895 341.183 131.773 343.805C132.472 344.789 132.449 345.308 131.39 346.059C130.286 346.848 129.775 346.592 129.136 345.608C128.039 343.933 126.792 342.355 125.77 340.627C124.898 339.162 124.049 339.755 123.321 340.537C122.607 341.303 120.36 341.288 121.75 343.279C122.795 344.782 123.862 346.269 124.853 347.802C125.154 348.26 125.943 348.734 125.409 349.357C124.929 349.958 124.177 350.327 123.651 350.71Z" fill="#637381"/>
<path d="M196.193 407.601C197.876 405.572 199.251 404.212 200.25 402.62C201.648 400.411 203.203 400.396 205.322 401.876C201.422 406.331 197.606 410.832 193.616 415.167C191.94 416.993 189.206 416.948 187.117 415.573C186.343 415.062 186.268 414.536 186.704 413.852C187.072 413.289 187.027 412.402 188.319 412.733C191.79 413.627 193.165 412.417 192.932 408.886C192.729 405.843 192.391 402.815 192.211 399.772C192.166 398.953 191.339 397.465 192.647 397.405C193.871 397.353 195.645 397.608 195.63 399.832C195.615 402.161 195.945 404.475 196.193 407.601Z" fill="#637381"/>
<path d="M166.688 384.948C172.233 384.948 175.418 389.937 172.939 394.655C172.383 395.707 171.902 396.091 170.753 395.347C168.859 394.107 166.876 393.018 164.922 391.868C164.486 391.613 163.998 391.124 163.51 391.47C162.924 391.883 163.089 392.574 163.307 393.153C164.021 395.009 165.463 395.993 167.364 395.745C169.145 395.52 169.693 396.632 169.693 397.789C169.693 399.103 168.281 398.72 167.454 398.728C163.66 398.765 160.151 395.339 160.106 391.665C160.076 387.991 163.051 384.948 166.688 384.948ZM167.199 387.398C166.523 387.676 165.583 387.676 165.148 388.585C165.005 388.885 169.25 391.74 169.889 391.808C170.79 391.906 170.873 391.229 170.813 390.658C170.595 388.607 169.122 387.841 167.199 387.398Z" fill="#637381"/>
<path d="M332.237 398.608C327.797 398.616 325.212 396.527 324.559 393.319C323.898 390.163 325.971 386.655 329.217 385.407C332.11 384.295 335.078 385.445 336.866 388.247C337.459 389.187 337.459 389.72 336.437 390.299C334.379 391.441 332.38 392.665 330.359 393.882C329.938 394.138 329.255 394.303 329.465 394.972C329.623 395.483 330.179 395.701 330.712 395.798C332.816 396.159 334.424 395.28 335.153 393.402C335.784 391.786 336.881 391.982 337.85 392.41C339.277 393.041 338.15 394.093 337.782 394.754C336.31 397.301 334.041 398.571 332.237 398.608ZM330.938 387.842C329.698 387.804 328.774 388.42 328.03 389.322C327.384 390.111 326.986 391.178 327.669 391.936C328.331 392.665 329.022 391.621 329.668 391.32C330.367 390.99 331.043 390.584 331.674 390.126C332.185 389.758 333.252 389.667 332.921 388.773C332.643 388.015 331.779 387.782 330.938 387.842Z" fill="#637381"/>
<path d="M350.63 372.582C350.698 368.668 354.304 365.234 358.309 365.256C362.028 365.287 364.883 368.217 364.8 371.936C364.71 375.82 361.006 379.427 357.144 379.367C353.606 379.306 350.57 376.151 350.63 372.582ZM361.562 372.124C361.495 370.08 359.586 368.314 357.588 368.442C355.537 368.562 353.854 370.448 353.974 372.484C354.086 374.513 355.724 376.016 357.768 375.978C359.857 375.94 361.622 374.145 361.562 372.124Z" fill="#637381"/>
<path d="M135.305 359.817C135.297 363.393 132.187 366.436 128.588 366.368C124.756 366.286 121.202 362.582 121.202 358.645C121.21 355.076 124.32 352.078 127.957 352.146C131.886 352.221 135.32 355.805 135.305 359.817ZM128.603 355.421C126.694 355.211 124.824 356.714 124.553 358.682C124.275 360.673 125.823 362.702 127.844 362.98C129.835 363.258 131.864 361.665 132.081 359.636C132.284 357.728 130.564 355.632 128.603 355.421Z" fill="#637381"/>
<path d="M273.603 418.744C275.038 413.95 276.285 409.254 277.863 404.686C278.735 402.169 277.803 402.117 275.85 402.575C274.324 402.928 272.762 403.101 271.229 403.424C270.109 403.664 269.245 403.777 268.952 402.252C268.659 400.787 269.275 400.509 270.53 400.328C273.28 399.945 276.007 399.374 278.757 398.901C282.266 398.307 282.987 399.156 281.966 402.733C280.756 406.993 279.298 411.215 278.337 415.528C277.713 418.315 276.105 418.804 273.603 418.744Z" fill="#637381"/>
<path d="M387.694 345.609C387.431 348.029 386.161 350.215 383.779 351.68C383.163 352.056 382.171 353.04 381.69 351.627C381.412 350.809 380.706 349.584 382.367 349.088C383.403 348.78 384.222 348.134 384.613 347.059C384.868 346.376 384.996 345.639 384.312 345.158C383.734 344.745 383.148 345.023 382.652 345.459C381.803 346.203 380.977 346.984 380.097 347.706C378.828 348.742 377.46 348.983 375.995 348.074C374.583 347.187 374.019 345.872 374.252 344.279C374.583 342.003 375.822 340.23 377.768 339.02C378.347 338.659 379.324 337.916 379.752 338.937C380.052 339.651 380.541 340.816 379.421 341.514C379.128 341.702 378.745 341.762 378.49 341.98C377.603 342.732 376.596 343.723 377.596 344.798C378.497 345.76 379.271 344.527 379.94 343.941C381.187 342.852 382.321 341.56 384.132 341.507C386.071 341.424 387.686 343.197 387.694 345.609Z" fill="#637381"/>
<path d="M185.253 407.94C183.691 408.06 182.631 406.625 183.255 405.145C185.396 400.014 187.613 394.92 189.694 389.765C190.257 388.36 190.896 388.473 192.046 388.939C193.203 389.412 193.42 389.916 192.925 391.073C190.686 396.265 188.559 401.494 186.358 406.693C186.132 407.196 186.102 407.948 185.253 407.94Z" fill="#637381"/>
<path d="M145.538 367.825C145.35 368.629 144.659 369.073 144.125 369.614C143.427 370.327 143.141 369.584 142.713 369.215C140.444 367.269 139.339 367.307 137.161 369.418C136.282 370.267 135.44 371.146 134.636 372.055C133.697 373.115 132.998 373.791 131.586 372.363C130.181 370.943 131.345 370.455 132.067 369.704C134.058 367.638 136.176 365.684 138.047 363.513C139.392 361.957 140.677 362.273 141.113 363.776C141.601 365.436 142.615 365.759 143.908 366.18C144.644 366.443 145.245 367.014 145.538 367.825Z" fill="#637381"/>
<path d="M172.668 401.568C173.615 399.622 174.539 397.736 175.456 395.858C176.034 394.686 176.786 393.567 177.169 392.334C177.838 390.14 179.468 390.614 180.152 391.673C181.129 393.191 182.323 392.943 183.623 393.131C185.313 393.379 186.147 394.092 185.035 395.933C184.427 396.932 183.999 396.632 183.202 396.264C180.805 395.159 179.498 395.633 178.273 397.939C177.5 399.404 176.808 400.915 176.102 402.41C175.756 403.131 175.366 403.612 174.517 403.086C173.818 402.688 172.774 402.68 172.668 401.568Z" fill="#637381"/>
<path d="M174.494 111.372C170.55 111.327 167.221 107.818 167.199 103.663C167.169 99.8391 170.55 96.5257 174.404 96.5858C178.266 96.6459 181.865 100.605 181.737 104.655C181.625 108.404 178.371 111.425 174.494 111.372Z" stroke="#546175" stroke-width="3" stroke-miterlimit="10"/>
<path d="M202.549 91.3726C204.863 91.3801 206.644 93.3711 206.622 95.9257C206.607 98.2999 204.826 100.02 202.429 99.9679C200.1 99.9153 198.192 97.8716 198.237 95.4674C198.267 93.2885 200.303 91.3651 202.549 91.3726Z" stroke="#546175" stroke-width="3" stroke-miterlimit="10"/>
<path d="M407.86 185.784C407.86 187.618 406.725 188.459 405.11 188.617C403.569 188.767 400.759 185.454 401.128 183.463C401.511 181.382 403.968 181.69 405.478 180.908C406.207 180.525 407.882 183.936 407.86 185.784Z" stroke="#546175" stroke-width="3" stroke-miterlimit="10"/>
<path d="M88.4287 197.904C91.5768 197.626 93.8759 197.423 96.1825 197.22C96.3553 197.205 96.5356 197.22 96.7009 197.228C97.2118 197.258 97.58 197.498 97.4222 198.024C96.8888 199.76 96.3778 201.525 95.6791 203.186C95.3786 203.885 94.7474 203.276 94.4018 202.983C92.6061 201.503 90.8405 199.963 88.4287 197.904Z" stroke="#546175" stroke-width="2" stroke-miterlimit="10"/>
<path d="M80.9229 260.535C83.6502 259.22 85.799 258.175 87.9554 257.139C88.1131 257.056 88.2709 256.996 88.4362 256.951C88.9171 256.808 89.3754 256.921 89.413 257.454C89.5332 259.257 89.6759 261.076 89.6008 262.879C89.5707 263.525 88.7292 263.284 88.2935 263.134C86.0169 262.368 83.7629 261.541 80.9229 260.535Z" stroke="#546175" stroke-width="2" stroke-miterlimit="10"/>
<path d="M411.804 218.295C411.766 220.677 409.693 222.488 407.063 222.42C404.749 222.36 402.983 220.534 402.991 218.235C402.998 215.936 405.245 213.945 407.724 214.035C409.911 214.103 411.826 216.116 411.804 218.295Z" stroke="#546175" stroke-width="3" stroke-miterlimit="10"/>
<path d="M89.1954 214.185C88.3013 215.147 89.9092 218.047 86.9564 217.702C85.5439 217.544 83.0269 218.295 82.9668 215.711C82.8842 212.465 84.5446 210.346 86.4981 210.481C88.2562 210.609 89.2856 211.946 89.1954 214.185Z" stroke="#546175" stroke-width="2" stroke-miterlimit="10"/>
<path d="M109.624 163.688C109.812 162.343 110.39 161.224 111.532 160.435C112.381 159.849 113.471 159.631 114.245 160.21C115.349 161.036 113.974 161.667 113.704 162.351C113.396 163.147 112.832 163.861 112.344 164.567C111.916 165.176 111.683 166.348 110.841 166.123C109.872 165.845 109.684 164.703 109.624 163.688Z" stroke="#546175" stroke-width="3" stroke-miterlimit="10"/>
<path d="M149.655 122.372C148.746 120.231 149.204 118.819 150.542 117.722C151.571 116.873 152.728 116.257 154.141 116.978C155.147 117.489 155.523 118.022 154.404 118.834C152.863 119.961 151.346 121.103 149.655 122.372Z" stroke="#546175" stroke-width="3" stroke-miterlimit="10"/>
<path d="M407.995 202.614C407.942 203.47 407.664 204.282 407.01 204.928C406.289 205.649 405.681 205.754 405.327 204.597C404.974 203.433 404.554 202.276 404.291 201.089C404.125 200.345 403.156 199.368 404.238 198.82C405.14 198.354 406.071 199.022 406.778 199.744C407.559 200.525 407.807 201.532 407.995 202.614Z" stroke="#546175" stroke-width="3" stroke-miterlimit="10"/>
<path d="M266.375 89.7495C267.119 90.1552 268.93 89.0733 268.727 91.0268C268.539 92.8826 267.156 93.9119 265.286 93.8743C264.046 93.8443 262.626 93.401 262.731 91.8833C262.881 89.7871 264.677 89.8171 266.375 89.7495Z" stroke="#546175" stroke-width="3" stroke-miterlimit="10"/>
<path d="M387.798 159.84C387.851 162.064 385.605 164.236 383.223 164.266C381.112 164.303 379.045 162.29 378.993 160.141C378.933 157.969 381.269 155.738 383.614 155.73C385.875 155.723 387.746 157.556 387.798 159.84Z" stroke="#546175" stroke-width="3" stroke-miterlimit="10"/>
<path d="M301.763 95.4597C301.816 97.909 299.727 100.223 297.511 100.201C295.219 100.171 293.409 98.3748 293.356 96.0607C293.296 93.416 295.107 91.3724 297.518 91.3799C299.81 91.3949 301.718 93.2207 301.763 95.4597Z" stroke="#546175" stroke-width="3" stroke-miterlimit="10"/>
<path d="M409.753 230.189C412.232 230.181 414.058 231.985 414.043 234.427C414.013 236.801 412.164 238.551 409.64 238.581C407.153 238.619 405.425 236.883 405.425 234.344C405.41 231.94 407.221 230.204 409.753 230.189Z" stroke="#546175" stroke-width="3" stroke-miterlimit="10"/>
<path d="M353.418 122.71C353.358 125.084 351.171 127.278 348.917 127.218C346.701 127.158 344.725 125.174 344.762 123.033C344.8 120.711 347.016 118.517 349.285 118.532C351.494 118.562 353.47 120.561 353.418 122.71Z" stroke="#546175" stroke-width="3" stroke-miterlimit="10"/>
<path d="M217.29 96.5562C216.013 96.4435 214.879 95.8725 215.104 94.5426C215.48 92.2886 217.576 92.2285 219.311 91.8528C220.611 91.5748 220.769 92.4239 220.694 93.3781C220.551 95.4818 219.146 96.2707 217.29 96.5562Z" stroke="#546175" stroke-width="3" stroke-miterlimit="10"/>
<path d="M315.407 390.253C316.655 390.396 317.459 391.2 317.526 392.605C317.586 393.882 314.205 396.714 312.718 396.346C310.99 395.918 311.087 393.919 310.403 392.612C310.126 392.071 313.965 390.193 315.407 390.253Z" fill="#637381"/>
<path d="M237.126 406.046C237.705 407.954 238.208 409.72 238.794 411.448C239.177 412.598 238.959 412.951 237.659 412.913C233.369 412.808 233.362 412.861 235.21 408.991C235.698 407.962 235.894 406.707 237.126 406.046Z" fill="#637381"/>
<path d="M296.797 407.594C296.714 409.314 296.444 410.945 294.475 411.523C292.484 412.109 291.342 410.877 290.486 409.404C289.156 407.105 288.502 404.588 288.66 401.914C288.75 400.516 289.351 399.382 290.764 398.916C292.304 398.405 293.506 399.059 294.385 400.276C295.955 402.455 296.601 404.957 296.797 407.594Z" fill="#637381"/>
<path d="M344.927 386.601C343.019 386.571 341.238 384.821 341.193 382.912C341.148 380.966 343.026 379.02 345.017 378.968C346.971 378.915 348.939 380.854 348.909 382.807C348.872 384.716 346.873 386.631 344.927 386.601Z" fill="#637381"/>
<path d="M167.199 387.399C169.122 387.835 170.595 388.609 170.82 390.66C170.881 391.223 170.805 391.907 169.896 391.809C169.258 391.742 165.013 388.879 165.155 388.586C165.576 387.684 166.515 387.677 167.199 387.399Z" fill="#637381"/>
<path d="M330.937 387.841C331.779 387.78 332.65 388.013 332.928 388.772C333.259 389.666 332.185 389.756 331.681 390.125C331.05 390.583 330.374 390.981 329.675 391.319C329.029 391.627 328.345 392.664 327.677 391.935C326.993 391.184 327.376 390.11 328.037 389.321C328.774 388.419 329.698 387.803 330.937 387.841Z" fill="#637381"/>
<path d="M361.562 372.123C361.63 374.137 359.864 375.94 357.775 375.985C355.732 376.03 354.094 374.52 353.981 372.491C353.868 370.455 355.551 368.569 357.595 368.449C359.593 368.321 361.494 370.079 361.562 372.123Z" fill="#637381"/>
<path d="M128.603 355.421C130.556 355.638 132.284 357.727 132.074 359.628C131.848 361.657 129.827 363.249 127.836 362.971C125.823 362.694 124.275 360.665 124.545 358.674C124.831 356.713 126.694 355.21 128.603 355.421Z" fill="#637381"/>
</svg>
