<svg width="70" height="20" viewBox="0 0 70 20" fill="none" xmlns="http://www.w3.org/2000/svg">
<path d="M14.6251 13.7015C14.2389 14.449 13.6908 15.0345 12.9807 15.4705C12.2582 15.8941 11.411 16.1183 10.4144 16.1183C9.70431 16.1183 9.05651 16.0062 8.471 15.7695C7.88549 15.5328 7.37472 15.2089 6.95115 14.7853C6.52759 14.3618 6.20369 13.851 5.95454 13.2655C5.71784 12.68 5.59326 12.0322 5.59326 11.3346C5.59326 10.6494 5.71784 10.014 5.95454 9.42852C6.19123 8.84301 6.52759 8.3447 6.95115 7.90867C7.37472 7.48511 7.87303 7.14875 8.43363 6.91206C8.99422 6.67536 9.62957 6.55078 10.3023 6.55078C10.9875 6.55078 11.6103 6.67536 12.1834 6.91206C12.7565 7.14875 13.2423 7.48511 13.641 7.90867C14.0396 8.33224 14.3635 8.843 14.5877 9.44098C14.812 10.0389 14.9241 10.6868 14.9241 11.3968C14.9241 11.5588 14.9241 11.6958 14.9116 11.7955C14.8992 11.9076 14.8992 11.9948 14.8867 12.0571H8.2343C8.25922 12.3312 8.33396 12.5679 8.45854 12.7921C8.58312 13.0163 8.74507 13.2032 8.94439 13.3652C9.14372 13.5271 9.36796 13.6641 9.62957 13.7514C9.89118 13.8386 10.1528 13.8884 10.4269 13.8884C10.9252 13.8884 11.3238 13.7887 11.6228 13.5894C11.9218 13.3901 12.1709 13.1285 12.3703 12.7797L14.6251 13.7015ZM12.308 10.313C12.2457 9.82717 12.0339 9.41606 11.6602 9.10462C11.2989 8.79317 10.838 8.63122 10.2774 8.63122C10.0033 8.63122 9.75415 8.68105 9.52991 8.76826C9.29321 8.85546 9.09389 8.98004 8.90702 9.14199C8.72015 9.30394 8.57066 9.47835 8.45854 9.67767C8.34642 9.877 8.27167 10.0763 8.24676 10.3006H12.308V10.313Z" fill="#546175"/>
<path d="M18.9606 3V15.8564H16.2822V3H18.9606Z" fill="#546175"/>
<path d="M29.4376 13.7015C29.0514 14.449 28.5033 15.0345 27.7932 15.4705C27.0707 15.8941 26.2235 16.1183 25.2269 16.1183C24.5168 16.1183 23.869 16.0062 23.2835 15.7695C22.698 15.5328 22.1872 15.2089 21.7637 14.7853C21.3401 14.3618 21.0162 13.851 20.767 13.2655C20.5303 12.68 20.4058 12.0322 20.4058 11.3346C20.4058 10.6494 20.5303 10.014 20.767 9.42852C21.0037 8.84301 21.3401 8.3447 21.7637 7.90867C22.1872 7.48511 22.6855 7.14875 23.2461 6.91206C23.8067 6.67536 24.4421 6.55078 25.1148 6.55078C25.8 6.55078 26.4228 6.67536 26.9959 6.91206C27.569 7.14875 28.0548 7.48511 28.4535 7.90867C28.8521 8.33224 29.176 8.843 29.4002 9.44098C29.6245 10.0389 29.7366 10.6868 29.7366 11.3968C29.7366 11.5588 29.7366 11.6958 29.7241 11.7955C29.7117 11.9076 29.7117 11.9948 29.6992 12.0571H23.0343C23.0593 12.3312 23.134 12.5679 23.2586 12.7921C23.3832 13.0163 23.5451 13.2032 23.7444 13.3652C23.9438 13.5271 24.168 13.6641 24.4296 13.7514C24.6788 13.8386 24.9528 13.8884 25.2269 13.8884C25.7252 13.8884 26.1239 13.7887 26.4228 13.5894C26.7218 13.3901 26.971 13.1285 27.1703 12.7797L29.4376 13.7015ZM27.1205 10.313C27.0582 9.82717 26.8464 9.41606 26.4727 9.10462C26.1114 8.79317 25.6505 8.63122 25.0899 8.63122C24.8158 8.63122 24.5666 8.68105 24.3424 8.76826C24.1057 8.85546 23.9064 8.98004 23.7195 9.14199C23.5327 9.30394 23.3832 9.47835 23.271 9.67767C23.1589 9.877 23.0842 10.0763 23.0593 10.3006H27.1205V10.313Z" fill="#546175"/>
<path d="M31.3315 11.4207C31.3315 10.7729 31.4437 10.1624 31.6679 9.58939C31.8921 9.01633 32.216 8.51802 32.6271 8.10692C33.0383 7.68335 33.5366 7.35945 34.1096 7.1103C34.6827 6.8736 35.3056 6.74902 35.9907 6.74902C36.9251 6.74902 37.7722 7.01064 38.5321 7.5214V9.11599C37.7473 8.51802 36.9251 8.21904 36.0655 8.21904C35.617 8.21904 35.1934 8.30624 34.8073 8.46819C34.4211 8.63014 34.0847 8.85438 33.8106 9.15337C33.5366 9.43989 33.3123 9.77625 33.1628 10.1624C33.0009 10.5486 32.9261 10.9722 32.9261 11.4207C32.9261 11.8567 33.0009 12.2803 33.1628 12.6664C33.3248 13.0526 33.5366 13.4015 33.8106 13.688C34.0847 13.9745 34.4211 14.1988 34.8073 14.3732C35.1934 14.5351 35.617 14.6223 36.0655 14.6223C36.5264 14.6223 36.9749 14.5351 37.4109 14.3607C37.8345 14.1863 38.2331 13.9745 38.5819 13.7503V15.3449C38.1958 15.594 37.7847 15.7809 37.3486 15.9055C36.9251 16.03 36.4766 16.1048 36.0032 16.1048C35.3056 16.1048 34.6702 15.9802 34.0972 15.7435C33.5241 15.5068 33.0258 15.1705 32.6147 14.7469C32.2036 14.3233 31.8797 13.8375 31.6554 13.2644C31.4437 12.6914 31.3315 12.0809 31.3315 11.4207Z" fill="#546175"/>
<path d="M42.045 3.02539V15.8818H40.4629V3.02539H42.045Z" fill="#546175"/>
<path d="M46.4674 4.30793C46.4674 4.60692 46.3678 4.85607 46.156 5.0554C45.9442 5.25472 45.695 5.36684 45.4085 5.36684C45.1095 5.36684 44.8604 5.26718 44.6611 5.0554C44.4493 4.84361 44.3496 4.59446 44.3496 4.30793C44.3496 4.00895 44.4493 3.75979 44.6611 3.56047C44.8728 3.34869 45.122 3.24902 45.4085 3.24902C45.7075 3.24902 45.9567 3.34869 46.156 3.56047C46.3553 3.77225 46.4674 4.00895 46.4674 4.30793ZM46.1934 6.94897V15.8812H44.6112V6.94897H46.1934Z" fill="#546175"/>
<path d="M50.3414 15.8805H48.7593V6.94835H50.3414V8.23149C50.6279 7.79547 51.0017 7.4342 51.4751 7.16013C51.9485 6.88606 52.5215 6.74902 53.1942 6.74902C54.3403 6.74902 55.2373 7.09784 55.8602 7.80793C56.4831 8.51802 56.7945 9.46481 56.7945 10.6483V15.8805H55.2124V10.8352C55.2124 10.0254 55.0131 9.39006 54.6144 8.92913C54.2158 8.46819 53.6303 8.23149 52.8579 8.23149C52.0855 8.23149 51.4751 8.50556 51.0141 9.04125C50.5657 9.57693 50.329 10.3119 50.329 11.2338V15.8805H50.3414Z" fill="#546175"/>
<path d="M61.0924 4.30793C61.0924 4.60692 60.9928 4.85607 60.781 5.0554C60.5692 5.25472 60.32 5.36684 60.0335 5.36684C59.747 5.36684 59.4854 5.26718 59.2861 5.0554C59.0743 4.84361 58.9746 4.59446 58.9746 4.30793C58.9746 4.00895 59.0743 3.75979 59.2861 3.56047C59.4978 3.34869 59.747 3.24902 60.0335 3.24902C60.32 3.24902 60.5817 3.34869 60.781 3.56047C60.9803 3.77225 61.0924 4.00895 61.0924 4.30793ZM60.8184 6.94897V15.8812H59.2362V6.94897H60.8184Z" fill="#546175"/>
<path d="M62.7495 11.4207C62.7495 10.7729 62.8616 10.1624 63.0859 9.58939C63.3101 9.01633 63.634 8.51802 64.0451 8.10692C64.4562 7.68335 64.9545 7.35945 65.5276 7.1103C66.1006 6.8736 66.7235 6.74902 67.4087 6.74902C68.343 6.74902 69.1902 7.01064 69.9501 7.5214V9.11599C69.1652 8.51802 68.343 8.21904 67.4835 8.21904C67.035 8.21904 66.6114 8.30624 66.2252 8.46819C65.839 8.63014 65.5027 8.85438 65.2286 9.15337C64.9545 9.43989 64.7303 9.77625 64.5808 10.1624C64.4313 10.5486 64.3441 10.9597 64.3441 11.4207C64.3441 11.8567 64.4189 12.2803 64.5808 12.6664C64.7428 13.0526 64.9545 13.4015 65.2286 13.688C65.5027 13.9745 65.839 14.1988 66.2252 14.3732C66.6114 14.5351 67.035 14.6223 67.4835 14.6223C67.9444 14.6223 68.3929 14.5351 68.8289 14.3607C69.2525 14.1863 69.6511 13.9745 69.9999 13.7503V15.3449C69.6137 15.594 69.2026 15.7809 68.7666 15.9055C68.343 16.03 67.8946 16.1048 67.4212 16.1048C66.7235 16.1048 66.0882 15.9802 65.5151 15.7435C64.9421 15.5068 64.4438 15.1705 64.0327 14.7469C63.6216 14.3233 63.2976 13.8375 63.0734 13.2644C62.8616 12.6914 62.7495 12.0809 62.7495 11.4207Z" fill="#546175"/>
<path d="M4.95818 8.99217V6.78715H2.66596V3H0V6.0646V6.7747V8.97971V11.2969V12.8914C0 13.913 0.27407 14.6978 0.822211 15.2584C1.37035 15.819 2.13027 16.0931 3.07706 16.0931C3.50062 16.0931 3.87436 16.0557 4.17334 15.981C4.48479 15.9062 4.73394 15.819 4.94572 15.7194V13.4022C4.79623 13.5019 4.63428 13.5766 4.47233 13.614C4.29792 13.6514 4.12351 13.6763 3.96156 13.6763C3.52554 13.6763 3.18918 13.5766 2.9774 13.3648C2.76562 13.1531 2.6535 12.8042 2.6535 12.3184V8.99217H4.95818Z" fill="#546175"/>
</svg>
